<?xml version="1.0" encoding="utf-8"?>
<!-- Generator: Adobe Illustrator 24.0.0, SVG Export Plug-In . SVG Version: 6.00 Build 0)  -->
<svg version="1.1" id="_x2014_ŽÓť_x5F_1" xmlns="http://www.w3.org/2000/svg" xmlns:xlink="http://www.w3.org/1999/xlink"
	 x="0px" y="0px" viewBox="0 0 374.01 325.98" style="enable-background:new 0 0 374.01 325.98;" xml:space="preserve">
<style type="text/css">
	.st0{fill:#B2D3EA;}
	.st1{fill:#396CAA;}
	.st2{fill:#D4ECFF;}
	.st3{fill:#5793CE;}
	.st4{fill:#FAFDFF;}
	.st5{fill:#173D7A;}
	.st6{opacity:0.5;fill:#173D7A;}
	.st7{fill:#38ADA9;}
	.st8{fill:#3EBAB3;}
	.st9{fill:#40C6BC;}
	.st10{fill:#49DBD3;}
	.st11{fill:#46B2AA;}
	.st12{fill:#FDD762;}
	.st13{fill:#FFC2B0;}
	.st14{fill:#FFFFFF;}
	.st15{fill:#EA9C92;}
	.st16{fill:#D8892B;}
	.st17{fill:#25CCC3;}
	.st18{fill:#E8A200;}
	.st19{fill:#F2B42A;}
	.st20{fill:#EEAD00;}
	.st21{opacity:0.66;fill:#8BBCBA;}
	.st22{fill:#4BC4BE;}
	.st23{fill:#46CCC5;}
</style>
<ellipse class="st0" cx="304.9" cy="298.03" rx="24.95" ry="14.4"/>
<g>
	<g>
		<path class="st0" d="M238.75,297.66l-80.92-46.14c-2.96-1.71-2.59-4.69,0.83-6.67l46.56-26.88c3.42-1.97,8.59-2.19,11.55-0.48
			l80.92,46.14c2.96,1.71,2.59,4.69-0.83,6.67l-46.56,26.88C246.88,299.16,241.71,299.37,238.75,297.66z"/>
		<path class="st1" d="M304.9,248.11L304.9,248.11V59.2l-75.1-19.65l-13.83-7.99c-3.17-1.83-8.72-1.6-12.39,0.51l-12.91,7.45
			l-40.05-0.02l11.86,182.36c-0.09,1.24,0.6,2.44,2.13,3.32l74.94,56.55c3.17,1.83,8.72,1.6,12.39-0.51l49.94-28.84
			C303.99,251.16,305.01,249.58,304.9,248.11z"/>
		<path class="st2" d="M210.22,30.34c-2.32,0.06-4.73,0.64-6.64,1.74l-12.91,7.45l-40.05-0.02v189.41c-0.09,1.24,0.6,2.44,2.13,3.32
			l86.8,49.5c1.53,0.88,3.6,1.28,5.75,1.23l0.89-190.59L210.22,30.34z"/>
		<path class="st3" d="M240.35,282.12c2.74,1.17,6.7,1.11,9.9-0.11V90.11h-9.9V282.12z"/>
		<path class="st2" d="M239.55,92.39l-86.8-49.5c-3.17-1.83-2.78-5.03,0.89-7.15L203.58,6.9c3.67-2.12,9.21-2.35,12.39-0.51
			l86.8,49.5c3.17,1.83,2.78,5.03-0.89,7.15l-49.94,28.84C248.27,93.99,242.72,94.22,239.55,92.39z"/>
		<path class="st4" d="M301.88,59.53l-49.94,28.84c-3.67,2.12-9.21,2.35-12.39,0.51l-86.8-49.5c-0.71-0.41-1.23-0.89-1.58-1.41
			c-1.09,1.75-0.6,3.66,1.58,4.92l86.8,49.5c3.17,1.83,8.72,1.6,12.39-0.51l49.94-28.84c2.85-1.64,3.71-3.94,2.47-5.75
			C303.85,58.09,303.03,58.86,301.88,59.53z"/>
		<g>
			<path class="st5" d="M242.01,72.33l-57.79-33.5c-1.49-0.86-1.3-2.36,0.42-3.35L208,21.99c1.72-0.99,4.31-1.1,5.8-0.24l57.79,33.5
				c1.49,0.86,1.3,2.36-0.42,3.35L247.8,72.09C246.09,73.08,243.49,73.18,242.01,72.33z"/>
			<g>
				<path class="st2" d="M210.81,40.33l-3.35-1.93c-0.21-0.12-0.18-0.33,0.06-0.46l3.23-1.87c0.24-0.14,0.6-0.15,0.8-0.03l3.35,1.93
					c0.21,0.12,0.18,0.33-0.06,0.46l-3.23,1.87C211.37,40.43,211.01,40.45,210.81,40.33z"/>
				<path class="st2" d="M221.99,46.76l-3.35-1.93c-0.21-0.12-0.18-0.33,0.06-0.46l3.23-1.87c0.24-0.14,0.6-0.15,0.8-0.03l3.35,1.93
					c0.21,0.12,0.18,0.33-0.06,0.46l-3.23,1.87C222.56,46.87,222.2,46.88,221.99,46.76z"/>
				<path class="st2" d="M233.18,53.2l-3.35-1.93c-0.21-0.12-0.18-0.33,0.06-0.46l3.23-1.87c0.24-0.14,0.6-0.15,0.8-0.03l3.35,1.93
					c0.21,0.12,0.18,0.33-0.06,0.46l-3.23,1.87C233.75,53.3,233.39,53.32,233.18,53.2z"/>
				<path class="st2" d="M244.37,59.63l-3.35-1.93c-0.21-0.12-0.18-0.33,0.06-0.46l3.23-1.87c0.24-0.14,0.6-0.15,0.8-0.03l3.35,1.93
					c0.21,0.12,0.18,0.33-0.06,0.46l-3.23,1.87C244.93,59.73,244.57,59.75,244.37,59.63z"/>
			</g>
			<path class="st3" d="M184.21,38.83l0.07,0.04c0.11-0.08,0.22-0.16,0.35-0.24L208,25.13c1.72-0.99,4.31-1.1,5.8-0.24l57.72,33.46
				c1.37-0.98,1.44-2.31,0.07-3.11l-57.79-33.5c-1.49-0.86-4.08-0.75-5.8,0.24l-23.37,13.49C182.91,36.47,182.73,37.97,184.21,38.83
				z"/>
		</g>
		<g>
			<path class="st3" d="M229.96,129.81l-64.14-37.03c-1.85-1.07-3.35-3.93-3.35-6.4V74.63c0-2.47,1.5-3.6,3.35-2.53l64.14,37.03
				c1.85,1.07,3.35,3.93,3.35,6.4v11.75C233.31,129.75,231.81,130.88,229.96,129.81z"/>
			<g>
				<path class="st5" d="M225.11,119.42l-3.01-1.74c-0.4-0.23-0.73-0.86-0.73-1.39v-3.22c0-0.54,0.33-0.78,0.73-0.55l3.01,1.74
					c0.4,0.23,0.73,0.86,0.73,1.39v3.22C225.84,119.41,225.51,119.66,225.11,119.42z"/>
				<path class="st5" d="M215.03,113.61l-3.01-1.74c-0.4-0.23-0.73-0.86-0.73-1.39v-3.22c0-0.54,0.33-0.78,0.73-0.55l3.01,1.74
					c0.4,0.23,0.73,0.86,0.73,1.39v3.22C215.76,113.59,215.43,113.84,215.03,113.61z"/>
			</g>
		</g>
		<g>
			<path class="st3" d="M229.96,172.27l-64.14-37.03c-1.85-1.07-3.35-3.93-3.35-6.4v-11.75c0-2.47,1.5-3.6,3.35-2.53l64.14,37.03
				c1.85,1.07,3.35,3.93,3.35,6.4v11.75C233.31,172.2,231.81,173.34,229.96,172.27z"/>
			<g>
				<path class="st5" d="M225.11,161.88l-3.01-1.74c-0.4-0.23-0.73-0.86-0.73-1.39v-3.22c0-0.54,0.33-0.78,0.73-0.55l3.01,1.74
					c0.4,0.23,0.73,0.86,0.73,1.39v3.22C225.84,161.87,225.51,162.11,225.11,161.88z"/>
				<path class="st2" d="M215.03,156.06l-3.01-1.74c-0.4-0.23-0.73-0.86-0.73-1.39v-3.22c0-0.54,0.33-0.78,0.73-0.55l3.01,1.74
					c0.4,0.23,0.73,0.86,0.73,1.39v3.22C215.76,156.05,215.43,156.29,215.03,156.06z"/>
			</g>
		</g>
		<g>
			<path class="st3" d="M229.96,214.72l-64.14-37.03c-1.85-1.07-3.35-3.93-3.35-6.4v-11.75c0-2.47,1.5-3.6,3.35-2.53l64.14,37.03
				c1.85,1.07,3.35,3.93,3.35,6.4v11.75C233.31,214.66,231.81,215.79,229.96,214.72z"/>
			<g>
				<path class="st2" d="M225.11,204.34l-3.01-1.74c-0.4-0.23-0.73-0.86-0.73-1.39v-3.22c0-0.54,0.33-0.78,0.73-0.55l3.01,1.74
					c0.4,0.23,0.73,0.86,0.73,1.39v3.22C225.84,204.32,225.51,204.57,225.11,204.34z"/>
				<path class="st5" d="M215.03,198.52l-3.01-1.74c-0.4-0.23-0.73-0.86-0.73-1.39v-3.22c0-0.54,0.33-0.78,0.73-0.55l3.01,1.74
					c0.4,0.23,0.73,0.86,0.73,1.39v3.22C215.76,198.5,215.43,198.75,215.03,198.52z"/>
			</g>
		</g>
		<g>
			<path class="st3" d="M229.96,257.18l-64.14-37.03c-1.85-1.07-3.35-3.93-3.35-6.4V202c0-2.47,1.5-3.6,3.35-2.53l64.14,37.03
				c1.85,1.07,3.35,3.93,3.35,6.4v11.75C233.31,257.11,231.81,258.25,229.96,257.18z"/>
			<g>
				<path class="st2" d="M225.11,246.79l-3.01-1.74c-0.4-0.23-0.73-0.86-0.73-1.39v-3.22c0-0.54,0.33-0.78,0.73-0.55l3.01,1.74
					c0.4,0.23,0.73,0.86,0.73,1.39v3.22C225.84,246.78,225.51,247.02,225.11,246.79z"/>
				<path class="st2" d="M215.03,240.97l-3.01-1.74c-0.4-0.23-0.73-0.86-0.73-1.39v-3.22c0-0.54,0.33-0.78,0.73-0.55l3.01,1.74
					c0.4,0.23,0.73,0.86,0.73,1.39v3.22C215.76,240.96,215.43,241.21,215.03,240.97z"/>
			</g>
		</g>
	</g>
	<g>
		<path class="st5" d="M261.69,129.81L294.55,111c1.85-1.07,3.35-3.93,3.35-6.4V92.85c0-2.47-1.5-3.6-3.35-2.53l-32.86,18.81
			c-1.85,1.07-3.35,3.93-3.35,6.4v11.75C258.34,129.75,259.84,130.88,261.69,129.81z"/>
		<path class="st5" d="M261.69,172.27l32.86-18.81c1.85-1.07,3.35-3.93,3.35-6.4v-11.75c0-2.47-1.5-3.6-3.35-2.53l-32.86,18.81
			c-1.85,1.07-3.35,3.93-3.35,6.4v11.75C258.34,172.2,259.84,173.34,261.69,172.27z"/>
		<path class="st5" d="M261.69,214.72l32.86-18.81c1.85-1.07,3.35-3.93,3.35-6.4v-11.75c0-2.47-1.5-3.6-3.35-2.53l-32.86,18.81
			c-1.85,1.07-3.35,3.93-3.35,6.4v11.75C258.34,214.66,259.84,215.79,261.69,214.72z"/>
		<path class="st5" d="M261.69,257.18l32.86-18.81c1.85-1.07,3.35-3.93,3.35-6.4v-11.75c0-2.47-1.5-3.6-3.35-2.53l-32.86,18.81
			c-1.85,1.07-3.35,3.93-3.35,6.4v11.75C258.34,257.11,259.84,258.25,261.69,257.18z"/>
	</g>
</g>
<path class="st6" d="M218.5,105.18l-32.69-22.92c-11.69-8.2-23.46-15.39-35.19-21.56v168.22c-0.09,1.24,0.6,2.44,2.13,3.32
	l25.84,14.74c41.32-7.69,39.91-53.72,39.91-53.72V105.18z"/>
<g>
	<path class="st7" d="M198.4,201.25v-88.07l-32.69-22.92c-16.5-11.57-33.14-21.18-49.64-28.66L83.37,46.77l-13.2,7.73l14.61,10.59
		v68.94c0,0-1.79,56.2,57.51,121.06c7.63,0.47,14.24-0.1,19.98-1.42l-0.98,3.19l11.61-6.84c1-0.54,1.96-1.11,2.89-1.7l0.16-0.1
		l-0.01,0C199.37,233.07,198.4,201.25,198.4,201.25z"/>
	<path class="st7" d="M140.82,74.36c-8.26-4.77-16.53-9.03-24.76-12.76L83.37,46.77l-13.2,7.73l14.61,10.59v41.62L140.82,74.36z"/>
	<path class="st8" d="M129.43,68.12l-27.55,15.9l22.69,13.1l27.56-15.91C144.57,76.43,136.99,72.06,129.43,68.12z"/>
	<path class="st9" d="M185.2,208.98v-88.07l-32.69-22.92c-16.5-11.57-33.14-21.18-49.64-28.66L70.18,54.5v88.07
		c0,0-1.79,56.2,57.51,121.06C186.99,267.25,185.2,208.98,185.2,208.98z"/>
	<path class="st7" d="M162.41,243.69c-7.13,6.92-17.28,10.38-30.2,10.24c-52.74-59.41-52.2-110.57-52.19-111.04l0-73.09l18.76,8.51
		c15.92,7.22,32.09,16.56,48.06,27.75l28.49,19.98v82.94l0,0.3C175.35,209.5,175.63,230.87,162.41,243.69z"/>
	<g>
		<path class="st10" d="M132.74,166.85c0,1.65,1.16,3.65,2.58,4.47c1.43,0.82,2.58,0.16,2.58-1.49c0-1.65-1.16-3.65-2.58-4.47
			C133.89,164.53,132.74,165.2,132.74,166.85z"/>
		<path class="st10" d="M124.42,162.05c0,1.65,1.16,3.65,2.58,4.47c1.43,0.82,2.58,0.16,2.58-1.49c0-1.65-1.16-3.65-2.58-4.47
			C125.58,159.73,124.42,160.4,124.42,162.05z"/>
		<path class="st10" d="M116.11,157.25c0,1.65,1.16,3.65,2.58,4.47c1.43,0.82,2.58,0.16,2.58-1.49s-1.16-3.65-2.58-4.47
			C117.27,154.93,116.11,155.6,116.11,157.25z"/>
	</g>
</g>
<g>
	<path class="st11" d="M316.22,154.81c0,0-0.53,10.92-1.36,18.26c-0.83,7.34-18.5-5.64-18.5-5.64v-8.36L316.22,154.81z"/>
	<g>
		<path class="st5" d="M306.81,290.67c-0.27,0.66-4.84,6.24-9.42,7.63c-1.99,0.61-3.33,0.68-4.21,0.58
			c-0.88-0.1-1.42-1.01-1.13-1.85c0.79-2.22,3.05-6.84,8.79-9.68C308.6,283.5,306.81,290.67,306.81,290.67z"/>
		<path class="st5" d="M308.34,292.81c0,0-1.73,4.05-2.26,7.43c-0.32,2.06,0.81,4.75,1.74,6.52c0.58,1.1,2.05,1.35,2.97,0.51
			c1.5-1.36,3.4-3.72,3.72-7.1c0.53-5.71,0-6.7,0-6.7L308.34,292.81z"/>
		<path class="st12" d="M319.37,223.83c0,0,0.6,7.2,0,15.16c-0.6,7.96-2.74,45.21-3.13,54.17c0,0,0.2,2.71-5.05,2.12
			c-5.25-0.6-4.83-3.61-4.83-3.61s-7.37-0.1-7.61-4.45c-0.23-4.35-7.55-51.91-7.55-69.01L319.37,223.83z"/>
		<g>
			<polygon class="st13" points="293.73,186.67 289.48,212.68 285.61,212.61 285.96,188.77 			"/>
			<path class="st8" d="M295.51,163.63c0,0-5.74-0.15-7.74,8.15c-2,8.3-3.56,18.68-1.82,19.54c5.22,2.59,8.52-0.44,8.52-0.44
				L295.51,163.63z"/>
			<path class="st7" d="M293.8,163.98c0.98-0.41,2.08-0.46,3.1-0.17c4.89,1.4,23.28,6.8,26.31,9.39c3.5,2.99-5.25,19.81-5.12,25.32
				c0.13,5.51,0.75,12.01,1.23,18.01c0.49,5.99,1.15,9.28-3.76,11.83c-4.9,2.55-13.27,2.67-19.54-2.11
				c-6.27-4.77-5.13-8.04-4.87-11.51c0.26-3.47,2.39-18.46,2.21-22.71c0,0-2.21-1.63-3.84-4.42c-1.64-2.79,1.25-7.92,2.45-11.25
				c1.2-3.33-0.68-7.14-0.31-9.86C291.85,165.11,292.75,164.42,293.8,163.98z"/>
			<path class="st14" d="M299.67,169.72c-0.39,3.03,2.39,5.88,6.21,6.37c3.82,0.49,7.22-1.57,7.61-4.6
				c0.39-3.03-2.39-5.88-6.21-6.37C303.47,164.63,300.06,166.69,299.67,169.72z"/>
			<path class="st13" d="M301.64,169.97c-0.28,2.16,1.71,4.2,4.44,4.55c2.73,0.35,5.16-1.12,5.44-3.29c0.28-2.16-1.71-4.2-4.44-4.55
				C304.36,166.33,301.92,167.81,301.64,169.97z"/>
			<path class="st13" d="M304.35,162.86c0,0,3.32-2.73,3.97-1.35c0.65,1.38,1.19,7.32,1.19,7.32l-6.59,1.77l1-6.01
				C303.92,164.59,302.6,163.47,304.35,162.86z"/>
			<path class="st13" d="M294.05,156.36c0.32,5.43,4.98,9.56,10.4,9.24c5.43-0.32,9.56-4.98,9.24-10.4
				c-0.32-5.43-4.98-9.56-10.4-9.24C297.87,146.28,293.73,150.94,294.05,156.36z"/>
			<path class="st15" d="M308.78,163.24c0.06,0.31,0.11,0.64,0.17,0.98c-0.66,3.42-5.79,4.92-5.79,4.92l0.76-4.55
				c0,0-0.62-0.53-0.45-1.05C305.5,162.9,308.06,162.33,308.78,163.24z"/>
			<path class="st13" d="M294.05,156.36c0.32,5.43,4.98,9.56,10.4,9.24c5.43-0.32,9.56-4.98,9.24-10.4
				c-0.32-5.43-4.98-9.56-10.4-9.24C297.87,146.28,293.73,150.94,294.05,156.36z"/>
			<polygon class="st13" points="328.12,197.44 327.02,223.77 323.17,224.17 320.67,200.46 			"/>
			<path class="st8" d="M315.47,195.24c1.27-5.62,3.79-18.05,3.79-18.05l1.08,12.36c-1.24,3.66-2.31,7.03-2.26,8.98
				c0.07,3.24,0.32,6.81,0.61,10.43l0,0.01C318.68,208.96,314.2,200.86,315.47,195.24z"/>
			<path class="st8" d="M322.46,172.66c0,0,3.08,1.18,4.82,10.63c1.74,9.46,3.05,18.93-0.06,20.15c-3.11,1.22-5.7,2.14-6.62-0.39
				c-0.91-2.53-1.48-14.72-1.59-19.1C318.9,179.57,318.73,173.53,322.46,172.66z"/>
		</g>
		<path class="st16" d="M306.35,291.67c0,0-0.91-0.01-2.11-0.22l0,0l-1.44-57.89L306.35,291.67z"/>
	</g>
	<g>
		<path class="st11" d="M311.93,260.39l2.05-2.67l21.54-12.47c0.69-0.4,1.25-1.47,1.25-2.39l-0.02-17.64l1.24-1.62l-1.16-0.67l0,0
			c-0.22-0.14-0.52-0.14-0.84,0.05l-24.42,14.14c-0.69,0.4-1.25,1.47-1.25,2.39l0.02,19.21c0,0.52,0.18,0.88,0.46,1.02l0,0
			L311.93,260.39z"/>
		<path class="st17" d="M326.82,250.28l1.53-0.89l8.4-14.59l-0.01-9.58l1.24-1.62l-1.16-0.67l0,0c-0.22-0.14-0.52-0.14-0.84,0.05
			l-24.42,14.14c-0.36,0.21-0.69,0.61-0.92,1.08L326.82,250.28z"/>
		<path class="st10" d="M337.44,224.32l0.55-0.72l-1.16-0.67l0,0c-0.22-0.14-0.52-0.14-0.84,0.05l-0.43,0.25L337.44,224.32z"/>
		<path class="st10" d="M311.34,237.27c-0.54,0.44-0.96,1.28-1.02,2.06l2.39,1.38l1.14-1.99L311.34,237.27z"/>
		<path class="st7" d="M312.72,237.78l24.42-14.14c0.69-0.4,1.25,0.02,1.25,0.94l0.02,19.21c0,0.92-0.56,1.99-1.25,2.39
			l-24.42,14.14c-0.69,0.4-1.25-0.02-1.25-0.94l-0.02-19.21C311.47,239.26,312.03,238.18,312.72,237.78z"/>
	</g>
	<path class="st13" d="M326.99,223.55c0,0,1.02,6.15,0.86,8.12c-0.15,1.97-1.21,5.22-2.01,5.15c-0.8-0.07-0.03-7.92-1.43-7.14
		c-1.4,0.78-1.55,2.12-2.19,1.65c-0.64-0.47,1.11-7.18,0.64-10.09C322.41,218.33,326.99,223.55,326.99,223.55z"/>
	<path class="st13" d="M285.61,212.61c0,0-1.02,6.15-0.86,8.12c0.15,1.97,1.21,5.22,2.01,5.15c0.8-0.07,0.03-7.92,1.43-7.14
		c1.4,0.78,1.55,2.12,2.19,1.65c0.64-0.47-1.11-7.18-0.64-10.09C290.19,207.39,285.61,212.61,285.61,212.61z"/>
	<path class="st15" d="M300.1,156.64c-4.94,1.75-5.9,0.68-5.95,0.63c-0.05-0.3-0.08-0.6-0.1-0.91c-0.06-1.09,0.06-2.15,0.33-3.14
		l12.81-1.73C307.19,151.49,305.17,154.84,300.1,156.64z"/>
	<path class="st7" d="M293.7,146.56c1.16-1,5.36-5.93,12.88-4.76c4.7,0.73,8.66,3.93,9.54,11.25c0.59,4.93-1.22,9.78-4.55,13.37
		c-0.18-0.08-0.37-0.16-0.53-0.27c-1.88-1.24-2.09-1.92-2.09-1.93l-0.42-3.73c0.01-0.53,0.41-1,0.94-1.03
		c0.41-0.03,0.91-0.22,1.38-0.84c1.08-1.41,0.58-3.62-1.58-3.7c-1.13-0.04-1.57-0.65-1.73-1.23c-0.14-0.5-0.67-0.78-1.15-0.6
		c-2.46,0.89-8.51,2.81-12.41,1.7C289,153.37,292.53,147.55,293.7,146.56z"/>
	<path class="st14" d="M299.31,161.09l-3.01-0.83c0,0,1.44,2.26,3.54,2.84c2.1,0.58,2.42-1.2,2.42-1.2L299.31,161.09z"/>
	<polygon class="st17" points="321.87,231.14 324.44,229.67 323.48,231.24 322.18,231.72 	"/>
</g>
<g>
	<path class="st0" d="M98.34,263.23c-10.56-6.1-27.68-6.1-38.24,0c-10.56,6.1-10.56,15.98,0,22.08c10.56,6.1,27.68,6.1,38.24,0
		C108.9,279.21,108.9,269.33,98.34,263.23z M78.57,274.48c-2.72,1.57-7.12,1.57-9.83,0s-2.72-4.11,0-5.68
		c2.72-1.57,7.12-1.57,9.83,0C81.28,270.37,81.28,272.91,78.57,274.48z"/>
	<path class="st0" d="M104.05,280.41c-1.41,1.4-3.15,2.73-5.23,3.93c-2.08,1.2-4.37,2.21-6.8,3.02l5.17,2.98l7.79,0.4l3.85,2.22
		l-1.57,0.91l2.92,1.68l3.15-1.82l5.1,2.94l-5.12,2.96l3.76,2.17l3.65,2.11l4.55-2.63l6.74,3.89l-2.57,1.49l4.33,2.5l2.57-1.49
		l2.03,1.17l-2.05,4.07l6.55,3.78l24.07,0L104.05,280.41z"/>
</g>
<g>
	<path class="st18" d="M106.26,272.13v-7.31l-2.15,1.22c-1.32-1.79-3.24-3.47-5.77-4.93c-10.56-6.1-27.68-6.1-38.24,0
		c-2.93,1.69-5.04,3.67-6.35,5.79l-1.57-2.07v7.31c-0.01,4,2.63,8,7.92,11.05c10.56,6.1,27.68,6.1,38.24,0
		C103.63,280.13,106.27,276.12,106.26,272.13z M78.48,267.36c-2.72,1.57-7.12,1.57-9.83,0c-2.72-1.57-2.72-4.11,0-5.68
		c2.72-1.57,7.12-1.57,9.83,0C81.19,263.25,81.19,265.79,78.48,267.36z"/>
	<path class="st12" d="M76.96,277.89l-11.67-5.75l-10.37-6.85c-0.44,0.52-0.83,1.05-1.16,1.6l-1.57-2.07v7.31
		c-0.01,4,2.63,8,7.92,11.05c4.7,2.72,10.71,4.22,16.86,4.51V277.89z"/>
	<path class="st12" d="M98.34,253.78c-10.56-6.1-27.68-6.1-38.24,0c-10.56,6.1-10.56,15.98,0,22.08c10.56,6.1,27.68,6.1,38.24,0
		C108.9,269.76,108.9,259.87,98.34,253.78z M78.57,265.02c-2.72,1.57-7.12,1.57-9.83,0s-2.72-4.11,0-5.68
		c2.72-1.57,7.12-1.57,9.83,0C81.28,260.91,81.28,263.46,78.57,265.02z"/>
	<path class="st18" d="M83.87,257.64H69.2c-1.34,0.31-2.65,0.68-3.91,1.12v12.44h18.58V257.64z M78.48,267.36
		c-2.72,1.57-7.12,1.57-9.83,0c-2.72-1.57-2.72-4.11,0-5.68c2.72-1.57,7.12-1.57,9.83,0C81.19,263.25,81.19,265.79,78.48,267.36z"/>
	<path class="st19" d="M96.08,255.09c-9.31-5.37-24.4-5.37-33.71,0c-9.31,5.37-9.31,14.09,0,19.46c9.31,5.37,24.4,5.37,33.71,0
		C105.39,269.17,105.39,260.46,96.08,255.09z M78.57,265.02c-2.72,1.57-7.12,1.57-9.83,0s-2.72-4.11,0-5.68
		c2.72-1.57,7.12-1.57,9.83,0C81.28,260.91,81.28,263.46,78.57,265.02z"/>
	<path class="st18" d="M62.37,257.1c9.31-5.37,24.4-5.37,33.71,0c4.21,2.43,6.51,5.54,6.91,8.72c0.49-3.85-1.81-7.8-6.91-10.74
		c-9.31-5.37-24.4-5.37-33.71,0c-5.1,2.94-7.4,6.89-6.91,10.74C55.86,262.65,58.16,259.53,62.37,257.1z"/>
	<g>
		<path class="st19" d="M104.05,278.22c-1.41,1.4-3.15,2.73-5.23,3.93c-2.08,1.2-4.37,2.21-6.8,3.02l5.17,2.98l7.79,0.4l3.85,2.22
			l-1.57,0.91l2.92,1.68l3.15-1.82l5.1,2.94l-5.12,2.96l3.76,2.17l3.65,2.11l4.55-2.63l6.74,3.89l-2.57,1.49l4.33,2.5l2.57-1.49
			l2.03,1.17l-2.05,4.07l6.55,3.78l24.07,0L104.05,278.22z"/>
		<path class="st12" d="M104.05,272.94c-1.41,1.4-3.15,2.73-5.23,3.93c-2.08,1.2-4.37,2.21-6.8,3.02l5.17,2.98l7.79,0.4l3.85,2.22
			l-1.57,0.91l2.92,1.68l3.15-1.82l5.1,2.94l-5.12,2.96l3.76,2.17l3.65,2.11l4.55-2.63l6.74,3.89l-2.57,1.49l4.33,2.5l2.57-1.49
			l2.03,1.17l-2.05,4.07l6.55,3.78l24.07,0L104.05,272.94z"/>
		<rect x="142.86" y="309.25" class="st18" width="24.07" height="5.28"/>
		<polygon class="st18" points="133.75,306.99 133.75,301.71 136.33,300.22 136.33,305.51 		"/>
		<polygon class="st20" points="129.42,299.21 129.42,304.49 133.75,306.99 133.75,301.71 		"/>
		<polygon class="st18" points="125.26,293.83 125.26,299.11 120.71,301.74 120.71,296.46 		"/>
		<polygon class="st20" points="113.29,292.18 113.29,297.46 120.71,301.74 120.71,296.46 		"/>
		<polygon class="st20" points="136.33,305.51 136.31,310.75 142.86,314.53 142.86,309.25 		"/>
		<polygon class="st20" points="110.17,288.09 110.17,293.38 107.25,291.69 107.25,286.41 		"/>
		<polygon class="st18" points="97.18,282.87 97.18,288.16 104.97,288.56 104.97,283.28 		"/>
		<polygon class="st18" points="150.51,305.51 104.47,278.9 107.03,277.42 155.6,305.49 		"/>
		<polygon class="st19" points="107.03,278.7 153.4,305.5 155.6,305.49 107.03,277.42 104.47,278.9 105.57,279.54 		"/>
		<polygon class="st18" points="97.18,288.16 97.18,282.87 92.01,279.89 92.01,285.17 		"/>
		<polygon class="st18" points="113.32,286.28 113.32,291.56 110.17,293.38 110.17,288.09 		"/>
	</g>
	<path class="st12" d="M96.08,255.09c-5.23-3.02-12.29-4.34-19.12-3.97v2.02c6.83-0.37,13.89,0.95,19.12,3.97
		c4.21,2.43,6.51,5.54,6.91,8.72C103.48,261.97,101.18,258.03,96.08,255.09z"/>
</g>
<g>
	<g>
		<g>
			<path class="st21" d="M334.77,123.66l-21-12.22c-1.77-1.02-1.55-2.81,0.5-3.99l20.02-11.66c2.05-1.18,5.14-1.31,6.91-0.29
				l21,12.22c1.77,1.02,1.55,2.81-0.5,3.99l-20.02,11.66C339.64,124.55,336.55,124.68,334.77,123.66z"/>
			<path class="st22" d="M368.61,85.77L368.61,85.77V80.7l-26.94-0.01l0.19-0.01c-2.14-1.23-5.87-1.08-8.34,0.35l0.8-0.33
				l-26.96-0.02v5.41c-0.06,0.83,0.4,1.64,1.43,2.23l25.32,14.73c2.14,1.23,5.87,1.08,8.34-0.35l24.13-14.06
				C368.01,87.83,368.69,86.76,368.61,85.77z"/>
			<path class="st22" d="M337.99,79.85c-1.56,0.04-3.19,0.43-4.47,1.17l0.8-0.33l-26.96-0.02v5.41c-0.06,0.83,0.4,1.64,1.43,2.23
				l25.32,14.73c1.03,0.59,2.42,0.86,3.87,0.83L337.99,79.85z"/>
			<path class="st11" d="M310.41,80.68l-3.05,0v5.41c-0.06,0.83,0.4,1.64,1.43,2.23l1.62,0.94V80.68z"/>
			<path class="st11" d="M334.65,103.32c1.84,0.79,4.51,0.75,6.66-0.08v-7.09h-6.66V103.32z"/>
			<path class="st7" d="M334.11,97.69l-25.32-14.73c-2.14-1.23-1.87-3.39,0.6-4.81l24.13-14.06c2.47-1.42,6.2-1.58,8.34-0.35
				l25.32,14.73c2.14,1.23,1.87,3.39-0.6,4.81l-24.13,14.06C339.98,98.77,336.25,98.92,334.11,97.69z"/>
		</g>
	</g>
	<g>
		<path class="st23" d="M332.18,76.94c-1.32,0.75-3.46,0.74-4.77-0.02c-1.31-0.77-1.31-2,0.01-2.75c1.32-0.75,3.46-0.74,4.77,0.02
			C333.5,74.95,333.5,76.18,332.18,76.94z"/>
		<path class="st23" d="M339.83,81.41c-1.32,0.75-3.46,0.74-4.77-0.02s-1.31-2,0.01-2.75c1.32-0.75,3.46-0.74,4.77,0.02
			C341.16,79.42,341.15,80.65,339.83,81.41z"/>
		<path class="st23" d="M347.48,85.87c-1.32,0.75-3.46,0.74-4.77-0.02c-1.31-0.77-1.31-2,0.01-2.75c1.32-0.75,3.46-0.74,4.77,0.02
			C348.81,83.89,348.8,85.12,347.48,85.87z"/>
	</g>
</g>
<g>
	<g>
		<g>
			<path class="st21" d="M30.73,258.36l-21-12.22c-1.77-1.02-1.55-2.81,0.5-3.99l20.02-11.66c2.05-1.18,5.14-1.31,6.91-0.29
				l21,12.22c1.77,1.02,1.55,2.81-0.5,3.99l-20.02,11.66C35.6,259.25,32.51,259.38,30.73,258.36z"/>
			<path class="st22" d="M64.57,220.47L64.57,220.47v-5.07l-26.94-0.01l0.19-0.01c-2.14-1.23-5.87-1.08-8.34,0.35l0.8-0.33
				l-26.96-0.02v5.41c-0.06,0.83,0.4,1.64,1.43,2.23l25.32,14.73c2.14,1.23,5.87,1.08,8.34-0.35l24.13-14.06
				C63.97,222.53,64.65,221.46,64.57,220.47z"/>
			<path class="st22" d="M33.95,214.55c-1.56,0.04-3.19,0.43-4.47,1.17l0.8-0.33l-26.96-0.02v5.41c-0.06,0.83,0.4,1.64,1.43,2.23
				l25.32,14.73c1.03,0.59,2.42,0.86,3.87,0.83L33.95,214.55z"/>
			<path class="st11" d="M6.37,215.38l-3.05,0v5.41c-0.06,0.83,0.4,1.64,1.43,2.23l1.62,0.94V215.38z"/>
			<path class="st11" d="M30.61,238.02c1.84,0.79,4.51,0.75,6.66-0.08v-7.09h-6.66V238.02z"/>
			<path class="st7" d="M30.07,232.39L4.75,217.66c-2.14-1.23-1.87-3.39,0.6-4.81l24.13-14.06c2.47-1.42,6.2-1.58,8.34-0.35
				l25.32,14.73c2.14,1.23,1.87,3.39-0.6,4.81l-24.13,14.06C35.94,233.47,32.21,233.62,30.07,232.39z"/>
		</g>
	</g>
	<g>
		<path class="st23" d="M28.14,211.64c-1.32,0.75-3.46,0.74-4.77-0.02c-1.31-0.77-1.31-2,0.01-2.75c1.32-0.75,3.46-0.74,4.77,0.02
			C29.46,209.65,29.46,210.88,28.14,211.64z"/>
		<path class="st23" d="M35.79,216.11c-1.32,0.75-3.46,0.74-4.77-0.02c-1.31-0.77-1.31-2,0.01-2.75s3.46-0.74,4.77,0.02
			C37.12,214.12,37.11,215.35,35.79,216.11z"/>
		<path class="st23" d="M43.44,220.57c-1.32,0.75-3.46,0.74-4.77-0.02c-1.31-0.77-1.31-2,0.01-2.75c1.32-0.75,3.46-0.74,4.77,0.02
			C44.77,218.59,44.76,219.82,43.44,220.57z"/>
	</g>
</g>
</svg>
