<?xml version="1.0" encoding="utf-8"?>
<!-- Generator: Adobe Illustrator 23.0.4, SVG Export Plug-In . SVG Version: 6.00 Build 0)  -->
<svg version="1.1" id="Ebene_1" xmlns="http://www.w3.org/2000/svg" xmlns:xlink="http://www.w3.org/1999/xlink" x="0px" y="0px"
	 viewBox="0 0 235 89.8" style="enable-background:new 0 0 235 89.8;" xml:space="preserve">
<g>
	<g>
		<g>
			<path style="fill:#38ADA9;" d="M73.3,27.4c0-1.1-0.8-2.4-1.7-3L41.2,6.8c-1-0.5-2.5-0.5-3.5,0L7.4,24.4c-1,0.6-1.7,1.9-1.7,3
				l0,35.1c0,1.1,0.8,2.4,1.7,3L37.8,83c1,0.5,2.5,0.5,3.5,0l30.4-17.6c1-0.6,1.7-1.9,1.7-3L73.3,27.4z M41.2,69.9
				c-1,0.5-2.5,0.5-3.5,0L18.6,58.9c-1-0.5-1.7-1.9-1.7-3v-22c0-1.1,0.8-2.5,1.7-3l19.2-11.1c1-0.6,2.5-0.6,3.5,0l19.1,11.1
				c1,0.6,1.7,1.9,1.7,3l0.1,22.1c0,1.1-0.8,2.4-1.7,3L41.2,69.9z"/>
		</g>
		<g>
			<path style="fill:#38ADA9;" d="M54.8,34.1c1,0.6,1,1.5,0,2l-13.5,7.8c-1,0.5-2.5,0.5-3.5,0l-13.5-7.8c-1-0.5-1-1.4,0-2l13.5-7.8
				c1-0.6,2.5-0.6,3.5,0L54.8,34.1z"/>
		</g>
	</g>
	<g>
		<path style="fill:#58595B;" d="M90.8,39.4c1.7,0,3.1,0.6,4.3,1.9c1.2,1.3,1.8,2.8,1.8,4.7c0,1.9-0.6,3.4-1.8,4.7
			c-1.2,1.3-2.6,1.9-4.3,1.9c-1.8,0-3.1-0.6-4.1-1.8v1.5h-3.2V34.8h3.2v6.5C87.7,40,89.1,39.4,90.8,39.4z M87.7,48.6
			c0.7,0.7,1.5,1,2.5,1c1,0,1.8-0.3,2.5-1c0.7-0.7,1-1.5,1-2.5c0-1-0.3-1.9-1-2.5c-0.7-0.7-1.5-1-2.5-1c-1,0-1.8,0.3-2.5,1
			s-1,1.5-1,2.5C86.8,47.1,87.1,47.9,87.7,48.6z"/>
		<path style="fill:#58595B;" d="M107.5,39.8h3.2v12.5h-3.2v-1.4c-0.8,1.2-2,1.8-3.7,1.8c-1.4,0-2.5-0.5-3.4-1.4S99,49.1,99,47.5
			v-7.7h3.2v7.3c0,0.8,0.2,1.5,0.7,1.9s1.1,0.7,1.8,0.7c0.8,0,1.5-0.3,2-0.8c0.5-0.5,0.8-1.3,0.8-2.3V39.8z"/>
		<path style="fill:#58595B;" d="M119.6,52.6c-1.9,0-3.5-0.6-4.7-1.9c-1.3-1.3-1.9-2.8-1.9-4.7c0-1.9,0.6-3.4,1.9-4.7
			c1.3-1.3,2.8-1.9,4.7-1.9c1.2,0,2.3,0.3,3.3,0.9c1,0.6,1.8,1.4,2.3,2.4l-2.8,1.6c-0.3-0.5-0.6-0.9-1.1-1.2
			c-0.5-0.3-1.1-0.5-1.7-0.5c-1,0-1.8,0.3-2.4,1s-1,1.5-1,2.5c0,1,0.3,1.8,1,2.4s1.4,1,2.4,1c0.7,0,1.2-0.1,1.7-0.4
			c0.5-0.3,0.9-0.7,1.1-1.2l2.8,1.6c-0.6,1-1.3,1.8-2.3,2.4C121.9,52.3,120.8,52.6,119.6,52.6z"/>
		<path style="fill:#58595B;" d="M138.5,52.3h-3.8l-4.6-5.7v5.7H127V34.8h3.2v10.5l4.3-5.5h3.9l-5,6.2L138.5,52.3z"/>
		<path style="fill:#58595B;" d="M142,47.4c0.4,1.6,1.6,2.4,3.5,2.4c1.2,0,2.2-0.4,2.8-1.3l2.6,1.5c-1.2,1.8-3.1,2.7-5.5,2.7
			c-2.1,0-3.7-0.6-5-1.9s-1.9-2.8-1.9-4.7c0-1.9,0.6-3.5,1.9-4.7c1.2-1.3,2.8-1.9,4.8-1.9c1.8,0,3.4,0.6,4.5,1.9
			c1.2,1.3,1.8,2.8,1.8,4.7c0,0.4,0,0.9-0.1,1.3H142z M141.9,44.9h6.4c-0.2-0.9-0.6-1.5-1.1-1.9c-0.6-0.4-1.2-0.6-2-0.6
			c-0.9,0-1.6,0.2-2.2,0.7C142.5,43.4,142.1,44.1,141.9,44.9z"/>
		<path style="fill:#58595B;" d="M160.6,42.9h-2.8v5.2c0,0.4,0.1,0.8,0.3,1s0.5,0.3,1,0.3c0.4,0,0.9,0,1.6,0v2.9
			c-2.2,0.2-3.8,0-4.7-0.6s-1.4-1.9-1.4-3.6v-5.2h-2.2v-3.1h2.2v-2.5l3.2-1v3.5h2.8V42.9z"/>
		<path style="fill:#58595B;" d="M165.5,43.3c0,0.3,0.2,0.6,0.7,0.8s1,0.4,1.6,0.6c0.6,0.2,1.3,0.4,1.9,0.6c0.6,0.2,1.2,0.6,1.6,1.2
			c0.4,0.6,0.7,1.3,0.7,2.1c0,1.3-0.5,2.3-1.4,3s-2.2,1-3.6,1c-2.6,0-4.3-1-5.3-3l2.8-1.6c0.4,1.1,1.2,1.6,2.5,1.6
			c1.2,0,1.7-0.4,1.7-1.1c0-0.3-0.2-0.6-0.7-0.8c-0.4-0.2-1-0.4-1.6-0.6c-0.6-0.2-1.3-0.4-1.9-0.6c-0.6-0.3-1.2-0.6-1.6-1.2
			c-0.4-0.5-0.7-1.2-0.7-2c0-1.2,0.5-2.2,1.4-2.9c0.9-0.7,2-1.1,3.4-1.1c1,0,1.9,0.2,2.8,0.7c0.8,0.5,1.5,1.1,2,2l-2.8,1.5
			c-0.4-0.9-1.1-1.3-2-1.3c-0.4,0-0.8,0.1-1,0.3S165.5,43,165.5,43.3z"/>
		<path style="fill:#58595B;" d="M181.7,39.8h3.5l-4.6,12.5c-0.7,1.8-1.5,3.1-2.6,3.9s-2.4,1.2-4,1.1v-3c0.9,0,1.6-0.2,2.1-0.6
			c0.5-0.4,0.9-1,1.2-1.9l-5.1-12.1h3.5l3.3,8.4L181.7,39.8z"/>
		<path style="fill:#58595B;" d="M193.7,39.4c1.4,0,2.5,0.5,3.4,1.4s1.3,2.2,1.3,3.8v7.7h-3.2V45c0-0.8-0.2-1.5-0.7-1.9
			c-0.5-0.4-1.1-0.7-1.8-0.7c-0.8,0-1.5,0.3-2,0.8c-0.5,0.5-0.8,1.3-0.8,2.3v6.8h-3.2V39.8h3.2v1.4C190.7,40,192,39.4,193.7,39.4z"
			/>
		<path style="fill:#58595B;" d="M207.1,52.6c-1.9,0-3.5-0.6-4.7-1.9c-1.3-1.3-1.9-2.8-1.9-4.7c0-1.9,0.6-3.4,1.9-4.7
			c1.3-1.3,2.8-1.9,4.7-1.9c1.2,0,2.3,0.3,3.3,0.9c1,0.6,1.8,1.4,2.3,2.4l-2.8,1.6c-0.3-0.5-0.6-0.9-1.1-1.2
			c-0.5-0.3-1.1-0.5-1.7-0.5c-1,0-1.8,0.3-2.4,1c-0.6,0.6-1,1.5-1,2.5c0,1,0.3,1.8,1,2.4c0.6,0.6,1.4,1,2.4,1c0.7,0,1.2-0.1,1.7-0.4
			c0.5-0.3,0.9-0.7,1.1-1.2l2.8,1.6c-0.6,1-1.3,1.8-2.3,2.4C209.5,52.3,208.3,52.6,207.1,52.6z"/>
	</g>
</g>
</svg>
