<?xml version="1.0" encoding="utf-8"?>
<!-- Generator: Adobe Illustrator 23.1.1, SVG Export Plug-In . SVG Version: 6.00 Build 0)  -->
<svg version="1.1" id="Ebene_1" xmlns="http://www.w3.org/2000/svg" xmlns:xlink="http://www.w3.org/1999/xlink" x="0px" y="0px"
	 viewBox="0 0 74 85" style="enable-background:new 0 0 74 85;" xml:space="preserve">
<style type="text/css">
	.st0{fill:#FFFFFF;}
</style>
<g>
	<g>
		<path class="st0" d="M70.85,25.46c0-1.1-0.78-2.45-1.73-3L38.7,4.91c-0.95-0.55-2.51-0.55-3.46,0L4.89,22.44
			c-0.95,0.55-1.73,1.9-1.73,3L3.13,60.52c0,1.1,0.78,2.45,1.73,3l30.43,17.57c0.95,0.55,2.51,0.55,3.46,0l30.38-17.56
			c0.95-0.55,1.73-1.9,1.73-3L70.85,25.46z M38.76,68.04c-0.95,0.55-2.51,0.55-3.46,0L16.13,56.97c-0.95-0.55-1.73-1.9-1.73-3V32.01
			c0-1.1,0.78-2.45,1.73-3L35.3,17.91c0.95-0.55,2.51-0.55,3.46,0l19.05,11.06c0.95,0.55,1.73,1.9,1.74,3l0.06,22.05
			c0,1.1-0.77,2.45-1.73,3L38.76,68.04z"/>
	</g>
	<g>
		<path class="st0" d="M52.3,32.18c0.95,0.55,0.95,1.45,0,2l-13.53,7.79c-0.95,0.55-2.51,0.55-3.47,0L21.78,34.2
			c-0.95-0.55-0.96-1.45,0-2l13.53-7.84c0.95-0.55,2.51-0.55,3.46,0L52.3,32.18z"/>
	</g>
</g>
</svg>
