<?xml version="1.0" encoding="utf-8"?>
<!-- Generator: Adobe Illustrator 23.1.1, SVG Export Plug-In . SVG Version: 6.00 Build 0)  -->
<svg version="1.1" id="Ebene_1" xmlns="http://www.w3.org/2000/svg" xmlns:xlink="http://www.w3.org/1999/xlink" x="0px" y="0px"
	 viewBox="0 0 82 91" style="enable-background:new 0 0 82 91;" xml:space="preserve">
<g style="enable-background:new    ;">
	<defs>
		<path id="SVGID_1_" style="enable-background:new    ;" d="M68.6,20.7l2.3,1.2c0,0-0.1,0-0.1,0L68.6,20.7
			C68.5,20.7,68.5,20.7,68.6,20.7z"/>
	</defs>
	<clipPath id="SVGID_2_">
		<use xlink:href="#SVGID_1_"  style="overflow:visible;"/>
	</clipPath>
	<g style="clip-path:url(#SVGID_2_);enable-background:new    ;">
		<path style="fill:#246F6C;" d="M70.8,21.9l-2.3-1.2c0,0,0,0,0,0L70.8,21.9C70.8,21.9,70.8,21.9,70.8,21.9"/>
		<path style="fill:#236B69;" d="M70.8,21.9l-2.3-1.2c0,0,0,0,0.1,0L70.8,21.9C70.8,21.9,70.8,21.9,70.8,21.9"/>
	</g>
</g>
<path style="fill:#236C6A;" d="M62,54.6C62,54.6,62,54.5,62,54.6c0.1-0.2,0.1-0.4,0.2-0.5c0-0.1,0-0.1,0-0.1c0-0.2,0.1-0.4,0.1-0.5
	l0-21.2c0-1-0.7-2.2-1.5-2.6l-2.3-1.2c0.8,0.4,1.5,1.6,1.5,2.6l0,21.2c0,0.2,0,0.3-0.1,0.5c0,0,0,0.1,0,0.1c0,0.2-0.1,0.3-0.1,0.5
	c0,0,0,0.1,0,0.1c-0.1,0.2-0.2,0.4-0.2,0.6c0,0.1-0.1,0.1-0.1,0.2c-0.1,0.1-0.1,0.2-0.2,0.3c0,0.1-0.1,0.1-0.1,0.2
	c0,0.1-0.1,0.1-0.1,0.2c0,0.1-0.1,0.1-0.2,0.2c0,0-0.1,0.1-0.1,0.1c-0.1,0.1-0.2,0.2-0.2,0.2l-17,13c-0.2,0.1-0.4,0.3-0.7,0.4
	c-0.1,0-0.1,0-0.2,0.1c-0.2,0.1-0.5,0.2-0.7,0.2c-0.2,0-0.5,0-0.7,0c-0.1,0-0.1,0-0.2,0c-0.2,0-0.4-0.1-0.6-0.2l-17-8.2l2.3,1.2
	l17,8.2c0.1,0.1,0.2,0.1,0.4,0.1c0.1,0,0.2,0,0.2,0c0.1,0,0.1,0,0.2,0c0.2,0,0.5,0,0.7,0c0.2,0,0.5-0.1,0.7-0.2c0.1,0,0.1,0,0.2-0.1
	c0,0,0.1,0,0.1-0.1c0.1-0.1,0.3-0.2,0.4-0.2c0,0,0.1,0,0.1-0.1l17-13c0.1,0,0.1-0.1,0.2-0.1c0,0,0.1-0.1,0.1-0.1
	c0,0,0.1-0.1,0.1-0.1c0,0,0,0,0.1-0.1c0,0,0.1-0.1,0.1-0.1c0-0.1,0.1-0.1,0.1-0.2c0,0,0-0.1,0.1-0.1c0,0,0-0.1,0.1-0.1
	c0.1-0.1,0.1-0.2,0.2-0.3c0,0,0-0.1,0.1-0.1c0,0,0,0,0-0.1C61.8,55,61.9,54.8,62,54.6C62,54.6,62,54.6,62,54.6z"/>
<g style="enable-background:new    ;">
	<defs>
		<path id="SVGID_3_" style="enable-background:new    ;" d="M23.5,61.6l-2.3-1.2c0,0,0.1,0,0.1,0L23.5,61.6
			C23.5,61.6,23.5,61.6,23.5,61.6z"/>
	</defs>
	<clipPath id="SVGID_4_">
		<use xlink:href="#SVGID_3_"  style="overflow:visible;"/>
	</clipPath>
	<g style="clip-path:url(#SVGID_4_);enable-background:new    ;">
		<path style="fill:#236B69;" d="M23.5,61.6l-2.3-1.2c0,0,0,0,0.1,0L23.5,61.6C23.5,61.6,23.5,61.6,23.5,61.6"/>
		<path style="fill:#246F6C;" d="M23.5,61.6l-2.3-1.2c0,0,0,0,0,0L23.5,61.6C23.5,61.7,23.5,61.7,23.5,61.6"/>
	</g>
</g>
<g id="bucket">
	<path style="fill:#236B69;" d="M53.5,32.1l-12-5.8c-0.1-0.1-0.2-0.1-0.4-0.1c-0.1,0-0.2,0-0.2,0c-0.1,0-0.1,0-0.2,0
		c-0.2,0-0.5,0-0.7,0c-0.2,0-0.5,0.1-0.7,0.2c-0.1,0-0.1,0-0.2,0.1c0,0-0.1,0-0.1,0.1c-0.1,0.1-0.3,0.2-0.4,0.2c0,0-0.1,0-0.1,0.1
		l-12.1,9.2c-0.1,0-0.1,0.1-0.1,0.1c0,0-0.1,0.1-0.1,0.1c0,0,0,0,0,0c0,0,0,0,0,0c0,0-0.1,0.1-0.1,0.1c0,0,0,0,0,0.1c0,0,0,0,0,0
		c0,0,0,0,0,0c0,0.1-0.1,0.1-0.1,0.2c0,0,0,0,0,0c0,0.1-0.1,0.2-0.1,0.3c0,0,0,0,0,0.1c0,0.1,0,0.1,0,0.2c0,0,0,0.1,0,0.1
		c0,0.1,0.1,0.1,0.1,0.2c0,0,0,0.1,0.1,0.1c0.1,0.1,0.2,0.2,0.3,0.2l2.3,1.2c-0.1-0.1-0.2-0.1-0.3-0.2c0,0,0,0-0.1-0.1
		c0-0.1-0.1-0.1-0.1-0.2c0,0,0-0.1,0-0.1c0-0.1,0-0.1,0-0.2c0,0,0,0,0-0.1c0-0.1,0-0.2,0.1-0.3c0-0.1,0.1-0.1,0.1-0.2c0,0,0,0,0,0
		c0-0.1,0.1-0.1,0.2-0.2c0,0,0,0,0,0c0.1-0.1,0.2-0.1,0.2-0.2l12.1-9.2c0.2-0.1,0.4-0.3,0.7-0.4c0.1,0,0.1,0,0.2-0.1
		c0.2-0.1,0.5-0.2,0.7-0.2c0.2,0,0.5,0,0.7,0c0.1,0,0.1,0,0.2,0c0.2,0,0.4,0.1,0.6,0.2l12,5.8L53.5,32.1z"/>
	<g>
		<path style="fill:#319794;" d="M42.2,27.3c0.6-0.1,1.1,0,1.5,0.2l12,5.8c0.8,0.4,0.8,1.3,0,1.9l-12.1,9.2c-0.4,0.3-1,0.5-1.5,0.6
			c-0.6,0.1-1.1,0-1.5-0.2l-12-5.8c-0.8-0.4-0.8-1.3,0-1.9l12.1-9.2C41.1,27.6,41.6,27.4,42.2,27.3z"/>
	</g>
</g>
<path style="fill:none;" d="M13.4,69.3l-2.3-1.2c-0.8-0.4-1.5-1.6-1.5-2.6l2.3,1.2C12,67.7,12.6,68.9,13.4,69.3z"/>
<path style="fill:#1D5856;" d="M68.5,20.6l-27-13.1c-0.1-0.1-0.2-0.1-0.4-0.1c-0.1,0-0.2,0-0.2,0c-0.1,0-0.1,0-0.2,0
	c-0.2,0-0.5,0-0.7,0c-0.2,0-0.5,0.1-0.7,0.2c-0.1,0-0.1,0-0.2,0.1c0,0-0.1,0-0.1,0.1c-0.1,0.1-0.3,0.2-0.4,0.2c0,0-0.1,0-0.1,0.1
	l-27,20.6c-0.1,0-0.1,0.1-0.2,0.1c0,0-0.1,0.1-0.1,0.1c0,0-0.1,0.1-0.1,0.1c0,0,0,0-0.1,0.1c0,0-0.1,0.1-0.1,0.1
	c-0.1,0.1-0.1,0.1-0.1,0.2c0,0,0,0-0.1,0.1c0,0,0,0.1-0.1,0.1c-0.1,0.1-0.1,0.2-0.2,0.3c0,0,0,0.1-0.1,0.1c0,0,0,0,0,0.1
	c-0.1,0.2-0.2,0.4-0.3,0.6c0,0,0,0,0,0c0,0,0,0.1,0,0.1c-0.1,0.2-0.1,0.3-0.1,0.4c0,0.1,0,0.1,0,0.1c0,0.2-0.1,0.4-0.1,0.5L9.7,65.4
	c0,1,0.6,2.2,1.5,2.6l2.3,1.2c-0.8-0.4-1.5-1.6-1.5-2.6L12.1,33c0-0.2,0-0.3,0.1-0.5c0,0,0-0.1,0-0.1c0-0.1,0.1-0.3,0.1-0.4
	c0,0,0-0.1,0-0.1c0.1-0.2,0.2-0.4,0.3-0.6c0-0.1,0.1-0.1,0.1-0.2c0.1-0.1,0.1-0.2,0.2-0.3c0-0.1,0.1-0.1,0.1-0.2
	c0-0.1,0.1-0.1,0.1-0.2c0-0.1,0.1-0.1,0.1-0.2c0,0,0.1-0.1,0.1-0.1c0.1-0.1,0.2-0.2,0.2-0.2l27-20.6c0.2-0.1,0.4-0.3,0.7-0.4
	c0.1,0,0.1,0,0.2-0.1c0.2-0.1,0.5-0.2,0.7-0.2c0.2,0,0.5,0,0.7,0c0.1,0,0.1,0,0.2,0c0.2,0,0.4,0.1,0.6,0.2l27,13.1L68.5,20.6z"/>
<g id="hexagon">
	<path style="fill:#319794;" d="M72.3,24.5l0,33.7c0,1.1-0.7,2.4-1.6,3.1L43.6,82c-0.4,0.3-1,0.5-1.5,0.6c-0.6,0.1-1.1,0-1.5-0.2
		L13.5,69.4c-0.8-0.4-1.5-1.6-1.5-2.7L12.1,33c0-1.1,0.7-2.4,1.6-3.1l27-20.6c0.4-0.3,1-0.5,1.5-0.6c0.6-0.1,1.1,0,1.5,0.2l27,13.1
		C71.6,22.3,72.3,23.5,72.3,24.5z M60.7,56.5c0.9-0.6,1.5-2,1.5-3.1l0-21.2c0-1.1-0.7-2.3-1.5-2.7l-16.9-8.2c-0.4-0.2-1-0.3-1.5-0.2
		c-0.6,0.1-1.1,0.3-1.5,0.6L23.6,34.8c-0.9,0.6-1.5,2.1-1.6,3.1L22,59c0,1.1,0.7,2.3,1.5,2.7l17,8.2c0.4,0.2,1,0.3,1.5,0.2
		c0.6-0.1,1.1-0.3,1.5-0.6L60.7,56.5"/>
</g>
</svg>
