<?xml version="1.0" encoding="utf-8"?>
<!-- Generator: Adobe Illustrator 23.1.1, SVG Export Plug-In . SVG Version: 6.00 Build 0)  -->
<svg version="1.1" id="Ebene_1" xmlns="http://www.w3.org/2000/svg" xmlns:xlink="http://www.w3.org/1999/xlink" x="0px" y="0px"
	 viewBox="0 0 1920 1080" style="enable-background:new 0 0 1920 1080;" xml:space="preserve">
<style type="text/css">
	.st0{opacity:0.4;fill:#38ADA9;}
</style>
<path class="st0" d="M-96-43c248.17-246.68,731.16-199.8,853,3c57.43,95.59,50.01,251.45-26,329c-71.32,72.76-147.26,19.7-307,90
	c-72.96,32.11-141.3,93.18-275,214C-53.89,776.35-70.05,824.97-108,817C-227.67,791.87-382.84,242.12-96-43z"/>
<path class="st0" d="M2360.57-35.99c28.79,124.2-82.92,261.54-131.8,321.62c-165.43,203.38-435.85,252.65-626.93,152.29
	c-60.52-31.79-137.41-125.56-291.2-313.1c-146.02-178.08-219.04-267.12-211.05-304.58C1145.26-394.11,2279.72-384.81,2360.57-35.99z
	"/>
<path class="st0" d="M-145,924.78c21.2-85.02,104.2-82,299-226.9c175.58-130.6,167.9-177.48,293-234.9
	c65.59-30.11,221.33-101.59,362-28.99c10.89,5.62,136.66,72.97,151,199.92c19.8,175.31-187.11,338.75-280,306.87
	c-63.66-21.85-36.62-122.7-114-168.93c-101.48-60.62-301.66,21.01-402,157.93c-98.42,134.31-59.09,264.94-118,279.88
	C-26.35,1228.01-177.3,1054.27-145,924.78z"/>
<path class="st0" d="M125,1311c-63.33-74.72,117.17-308.77,132-328c43.39-56.27,87.07-94.4,145-106c15.3-3.06,47.62-9.53,80,3
	c77.21,29.88,115.08,152.43,97,235C538.36,1300.63,191.85,1389.87,125,1311z"/>
<path class="st0" d="M906-209c36.03-13.19,90.71,31.62,397,484c121.97,180.15,150.14,227.45,136,290
	c-33.93,150.11-280.09,249.05-365,186c-66.47-49.36,6.77-167.63-81-261c-66.09-70.31-160.82-59.84-179-131
	c-7.28-28.47,0.64-58.51,10-94c14.33-54.34,31.76-65.88,45-102c30.81-84.05-26.16-123.72-15-236
	C857.85-111.74,866.06-194.38,906-209z"/>
<path class="st0" d="M638,1239c-24.02-90.4,73.32-212,165-268c135.68-82.87,214.89,4.88,411-79c27.47-11.75,247.3-105.78,253-236
	c1.32-30.2-8.57-69.3,17-104c29.65-40.24,85.06-44.8,88-45c108.22-7.38,242.74,174.59,272,351c23.15,139.59-15.63,299.73-110,411
	C1448.95,1605.12,694.35,1451.09,638,1239z"/>
</svg>
