<?xml version="1.0" encoding="utf-8"?>
<!-- Generator: Adobe Illustrator 23.1.1, SVG Export Plug-In . SVG Version: 6.00 Build 0)  -->
<svg version="1.1" id="Ebene_1" xmlns="http://www.w3.org/2000/svg" xmlns:xlink="http://www.w3.org/1999/xlink" x="0px" y="0px"
	 viewBox="0 0 1000 1000" style="enable-background:new 0 0 1000 1000;" xml:space="preserve">
<g>
	<g>
		
			<rect x="584.1" y="672.9" transform="matrix(0.7071 -0.7071 0.7071 0.7071 -325.5309 628.9504)" style="fill:none;" width="24.7" height="69"/>
	</g>
	<g>
		<circle style="fill:none;" cx="97.3" cy="702.1" r="15.1"/>
	</g>
	<g>
		<polygon style="fill:none;" points="612.1,742 561.9,691.8 580.1,673.6 526,619.5 502.5,643 616.5,757 640,733.5 630.3,723.8 		
			"/>
	</g>
	<g>
		<polygon style="fill:none;" points="660.9,691.8 655.2,686.1 640.9,700.4 655.2,686.1 612.1,643 580.8,674.3 629.6,723.1 		"/>
	</g>
	<g>
		
			<ellipse transform="matrix(0.7071 -0.7071 0.7071 0.7071 -573.1876 345.6673)" style="fill:none;" cx="130.7" cy="864.7" rx="37.9" ry="37.9"/>
	</g>
	<g>
		
			<ellipse transform="matrix(0.3827 -0.9239 0.9239 0.3827 -245.1323 1101.8154)" style="fill:none;" cx="701.9" cy="734.3" rx="23.2" ry="23.2"/>
	</g>
	<g>
		<path style="fill:none;" d="M130.7,807.1c-31.8,0-57.6,25.8-57.6,57.6c0,31.8,25.8,57.6,57.6,57.6c31.8,0,57.6-25.8,57.6-57.6
			C188.3,832.9,162.5,807.1,130.7,807.1z M130.7,914.3c-27.4,0-49.6-22.2-49.6-49.6c0-27.4,22.2-49.6,49.6-49.6
			c27.4,0,49.6,22.2,49.6,49.6C180.2,892.1,158,914.3,130.7,914.3z"/>
	</g>
	<g>
		<polygon style="fill:none;" points="205.5,125.3 254.3,76.5 205.5,27.7 173.5,59.7 211,97.2 173.5,59.7 156.7,76.5 		"/>
	</g>
	<g>
		<circle style="fill:none;" cx="97.3" cy="427.1" r="15.1"/>
	</g>
	<g>
		<path style="fill:none;" d="M432.3,294.6c31.8,0,57.6-25.8,57.6-57.6c0-31.8-25.8-57.6-57.6-57.6c-31.8,0-57.6,25.8-57.6,57.6
			S400.4,294.6,432.3,294.6z M432.3,187.5c27.4,0,49.6,22.2,49.6,49.6s-22.2,49.6-49.6,49.6s-49.6-22.2-49.6-49.6
			S404.9,187.5,432.3,187.5z"/>
	</g>
	<g>
		
			<ellipse transform="matrix(0.9871 -0.1602 0.1602 0.9871 -32.3823 72.3011)" style="fill:none;" cx="432.3" cy="237" rx="37.9" ry="37.9"/>
	</g>
	<g>
		
			<ellipse transform="matrix(0.3827 -0.9239 0.9239 0.3827 -156.0974 928.0657)" style="fill:none;" cx="616.4" cy="580.8" rx="23.2" ry="23.2"/>
	</g>
	<g>
		<path style="fill:none;" d="M621.7,455.8c0-19.5-15.8-35.3-35.3-35.3s-35.3,15.8-35.3,35.3s15.8,35.3,35.3,35.3
			S621.7,475.3,621.7,455.8z M556.1,455.8c0-16.8,13.6-30.4,30.4-30.4c16.8,0,30.4,13.6,30.4,30.4c0,16.8-13.6,30.4-30.4,30.4
			C569.7,486.2,556.1,472.6,556.1,455.8z"/>
	</g>
	<g>
		<circle style="fill:none;" cx="857.8" cy="917.6" r="35.3"/>
	</g>
	<g>
		
			<ellipse transform="matrix(0.9871 -0.1602 0.1602 0.9871 -65.4454 99.821)" style="fill:none;" cx="586.4" cy="455.8" rx="23.2" ry="23.2"/>
	</g>
	<g>
		
			<ellipse transform="matrix(0.7071 -0.7071 0.7071 0.7071 -125.0037 859.3515)" style="fill:none;" cx="974.8" cy="580.6" rx="23.2" ry="23.2"/>
	</g>
	<g>
		
			<rect x="421.9" y="448.4" transform="matrix(0.7071 -0.7071 0.7071 0.7071 -264.3639 472.7665)" style="fill:none;" width="33.2" height="214.3"/>
	</g>
	<g>
		<circle style="fill:none;" cx="699.3" cy="63.1" r="15.1"/>
	</g>
	<g>
		
			<rect x="823" y="153" transform="matrix(0.7071 -0.7071 0.7071 0.7071 118.571 661.2579)" style="fill:none;" width="69" height="69"/>
	</g>
	<g>
		<circle style="fill:none;" cx="318.8" cy="103.6" r="11.8"/>
	</g>
	<g>
		
			<ellipse transform="matrix(0.9871 -0.1602 0.1602 0.9871 -59.1208 63.2778)" style="fill:none;" cx="362.9" cy="398.3" rx="23.2" ry="23.2"/>
	</g>
	<g>
		<circle style="fill:none;" cx="468.4" cy="495.8" r="23.2"/>
	</g>
	<g>
		<circle style="fill:none;" cx="385.9" cy="656.3" r="35.3"/>
	</g>
	<g>
		
			<rect x="428.7" y="318.1" transform="matrix(0.7071 -0.7071 0.7071 0.7071 -81.1038 473.6947)" style="fill:none;" width="205.1" height="33.2"/>
	</g>
	<g>
		
			<line style="fill:none;stroke:#F7F7F7;stroke-width:0;stroke-linecap:round;stroke-linejoin:round;" x1="223" y1="357.3" x2="243" y2="337.2"/>
	</g>
	<g>
		
			<line style="fill:none;stroke:#F7F7F7;stroke-width:0;stroke-linecap:round;stroke-linejoin:round;" x1="243.1" y1="357.3" x2="263.1" y2="337.2"/>
	</g>
	<g>
		
			<line style="fill:none;stroke:#F7F7F7;stroke-width:0;stroke-linecap:round;stroke-linejoin:round;" x1="263.1" y1="357.3" x2="283.1" y2="337.2"/>
	</g>
	<g>
		
			<line style="fill:none;stroke:#F7F7F7;stroke-width:0;stroke-linecap:round;stroke-linejoin:round;" x1="303.2" y1="337.2" x2="283.2" y2="357.3"/>
	</g>
	<g>
		
			<line style="fill:none;stroke:#F7F7F7;stroke-width:0;stroke-linecap:round;stroke-linejoin:round;" x1="323.4" y1="337.2" x2="303.3" y2="357.3"/>
	</g>
	<g>
		
			<line style="fill:none;stroke:#F7F7F7;stroke-width:0;stroke-linecap:round;stroke-linejoin:round;" x1="671.2" y1="436" x2="691.2" y2="456.1"/>
	</g>
	<g>
		
			<line style="fill:none;stroke:#F7F7F7;stroke-width:0;stroke-linecap:round;stroke-linejoin:round;" x1="671.1" y1="456.1" x2="691.2" y2="476.2"/>
	</g>
	<g>
		
			<line style="fill:none;stroke:#F7F7F7;stroke-width:0;stroke-linecap:round;stroke-linejoin:round;" x1="671.1" y1="476.2" x2="691.2" y2="496.2"/>
	</g>
	<g>
		
			<line style="fill:none;stroke:#F7F7F7;stroke-width:0;stroke-linecap:round;stroke-linejoin:round;" x1="671.1" y1="496.2" x2="691.2" y2="516.3"/>
	</g>
	<g>
		
			<line style="fill:none;stroke:#F7F7F7;stroke-width:0;stroke-linecap:round;stroke-linejoin:round;" x1="691.2" y1="536.5" x2="671.1" y2="516.4"/>
	</g>
	<g>
		
			<line style="fill:none;stroke:#F7F7F7;stroke-width:0;stroke-linecap:round;stroke-linejoin:round;" x1="759.4" y1="833.2" x2="749.6" y2="843.1"/>
	</g>
	<g>
		
			<line style="fill:none;stroke:#F7F7F7;stroke-width:0;stroke-linecap:round;stroke-linejoin:round;" x1="739.3" y1="853.3" x2="749.6" y2="843.1"/>
	</g>
	<g>
		
			<line style="fill:none;stroke:#F7F7F7;stroke-width:0;stroke-linecap:round;stroke-linejoin:round;" x1="739.3" y1="833.2" x2="719.2" y2="853.3"/>
	</g>
	<g>
		
			<line style="fill:none;stroke:#F7F7F7;stroke-width:0;stroke-linecap:round;stroke-linejoin:round;" x1="719.3" y1="833.2" x2="699.2" y2="853.3"/>
	</g>
	<g>
		
			<line style="fill:none;stroke:#F7F7F7;stroke-width:0;stroke-linecap:round;stroke-linejoin:round;" x1="699.2" y1="833.2" x2="679.1" y2="853.3"/>
	</g>
	<g>
		
			<line style="fill:none;stroke:#F7F7F7;stroke-width:0;stroke-linecap:round;stroke-linejoin:round;" x1="679" y1="833.2" x2="659" y2="853.3"/>
	</g>
	<g>
		
			<line style="fill:none;stroke:#F7F7F7;stroke-width:0;stroke-linecap:round;stroke-linejoin:round;" x1="583.1" y1="164.2" x2="603.2" y2="184.2"/>
	</g>
	<g>
		
			<line style="fill:none;stroke:#F7F7F7;stroke-width:0;stroke-linecap:round;stroke-linejoin:round;" x1="583.1" y1="184.2" x2="603.2" y2="204.3"/>
	</g>
	<g>
		
			<line style="fill:none;stroke:#F7F7F7;stroke-width:0;stroke-linecap:round;stroke-linejoin:round;" x1="603.2" y1="224.5" x2="583.1" y2="204.4"/>
	</g>
	<g>
		
			<line style="fill:none;stroke:#F7F7F7;stroke-width:0;stroke-linecap:round;stroke-linejoin:round;" x1="447" y1="395.5" x2="592" y2="250.5"/>
	</g>
	<g>
		
			<line style="fill:none;stroke:#F7F7F7;stroke-width:0;stroke-linecap:round;stroke-linejoin:round;" x1="351" y1="491.5" x2="374.5" y2="468"/>
	</g>
	<g>
		
			<line style="fill:none;stroke:#F7F7F7;stroke-width:0;stroke-linecap:round;stroke-linejoin:round;" x1="697.7" y1="144.8" x2="592" y2="250.5"/>
	</g>
	<g>
		
			<line style="fill:none;stroke:#F7F7F7;stroke-width:0;stroke-linecap:round;stroke-linejoin:round;" x1="447" y1="395.5" x2="374.5" y2="468"/>
	</g>
	<g>
		
			<line style="fill:none;stroke:#F7F7F7;stroke-width:0;stroke-linecap:round;stroke-linejoin:round;" x1="292.3" y1="550.2" x2="351" y2="491.5"/>
	</g>
	<g>
		
			<line style="fill:none;stroke:#F7F7F7;stroke-width:0;stroke-linecap:round;stroke-linejoin:round;" x1="470.5" y1="419" x2="411.3" y2="478.2"/>
	</g>
	<g>
		
			<line style="fill:none;stroke:#F7F7F7;stroke-width:0;stroke-linecap:round;stroke-linejoin:round;" x1="816.7" y1="72.8" x2="615.5" y2="274"/>
	</g>
	<g>
		
			<line style="fill:none;stroke:#F7F7F7;stroke-width:0;stroke-linecap:round;stroke-linejoin:round;" x1="470.5" y1="419" x2="615.5" y2="274"/>
	</g>
	<g>
		
			<line style="fill:none;stroke:#F7F7F7;stroke-width:0;stroke-linecap:round;stroke-linejoin:round;" x1="623.7" y1="521.8" x2="526" y2="619.5"/>
	</g>
	<g>
		
			<line style="fill:none;stroke:#F7F7F7;stroke-width:0;stroke-linecap:round;stroke-linejoin:round;" x1="218.3" y1="927.2" x2="502.5" y2="643"/>
	</g>
	<g>
		
			<line style="fill:none;stroke:#F7F7F7;stroke-width:0;stroke-linecap:round;stroke-linejoin:round;" x1="502.5" y1="643" x2="526" y2="619.5"/>
	</g>
	<g>
		
			<line style="fill:none;stroke:#F7F7F7;stroke-width:0;stroke-linecap:round;stroke-linejoin:round;" x1="446.3" y1="927.2" x2="616.5" y2="757"/>
	</g>
	<g>
		
			<line style="fill:none;stroke:#F7F7F7;stroke-width:0;stroke-linecap:round;stroke-linejoin:round;" x1="640" y1="733.5" x2="851.7" y2="521.8"/>
	</g>
	<g>
		
			<line style="fill:none;stroke:#F7F7F7;stroke-width:0;stroke-linecap:round;stroke-linejoin:round;" x1="616.5" y1="757" x2="640" y2="733.5"/>
	</g>
	<g>
		
			<line style="fill:none;stroke:#F7F7F7;stroke-width:0;stroke-linecap:round;stroke-linejoin:round;" x1="615.5" y1="274" x2="592" y2="250.5"/>
	</g>
	<g>
		
			<line style="fill:none;stroke:#F7F7F7;stroke-width:0;stroke-linecap:round;stroke-linejoin:round;" x1="592" y1="250.5" x2="438.3" y2="96.8"/>
	</g>
	<g>
		
			<line style="fill:none;stroke:#F7F7F7;stroke-width:0;stroke-linecap:round;stroke-linejoin:round;" x1="615.5" y1="274" x2="843.7" y2="502.2"/>
	</g>
	<g>
		
			<line style="fill:none;stroke:#F7F7F7;stroke-width:0;stroke-linecap:round;stroke-linejoin:round;" x1="447" y1="395.5" x2="470.5" y2="419"/>
	</g>
	<g>
		
			<line style="fill:none;stroke:#F7F7F7;stroke-width:0;stroke-linecap:round;stroke-linejoin:round;" x1="447" y1="395.5" x2="148.3" y2="96.8"/>
	</g>
	<g>
		
			<line style="fill:none;stroke:#F7F7F7;stroke-width:0;stroke-linecap:round;stroke-linejoin:round;" x1="553.7" y1="502.2" x2="470.5" y2="419"/>
	</g>
	<g>
		
			<line style="fill:none;stroke:#F7F7F7;stroke-width:0;stroke-linecap:round;stroke-linejoin:round;" x1="766.6" y1="860.1" x2="749.6" y2="843.1"/>
	</g>
	<g>
		
			<line style="fill:none;stroke:#F7F7F7;stroke-width:0;stroke-linecap:round;stroke-linejoin:round;" x1="630.3" y1="723.8" x2="640" y2="733.5"/>
	</g>
	<g>
		
			<line style="fill:none;stroke:#F7F7F7;stroke-width:0;stroke-linecap:round;stroke-linejoin:round;" x1="629.6" y1="723.1" x2="580.8" y2="674.3"/>
	</g>
	<g>
		
			<line style="fill:none;stroke:#F7F7F7;stroke-width:0;stroke-linecap:round;stroke-linejoin:round;" x1="526" y1="619.5" x2="374.5" y2="468"/>
	</g>
	<g>
		
			<line style="fill:none;stroke:#F7F7F7;stroke-width:0;stroke-linecap:round;stroke-linejoin:round;" x1="580.1" y1="673.6" x2="526" y2="619.5"/>
	</g>
	<g>
		
			<line style="fill:none;stroke:#F7F7F7;stroke-width:0;stroke-linecap:round;stroke-linejoin:round;" x1="767.7" y1="861.2" x2="766.6" y2="860.1"/>
	</g>
	<g>
		
			<line style="fill:none;stroke:#F7F7F7;stroke-width:0;stroke-linecap:round;stroke-linejoin:round;" x1="374.5" y1="468" x2="362.3" y2="455.8"/>
	</g>
	<g>
		
			<line style="fill:none;stroke:#F7F7F7;stroke-width:0;stroke-linecap:round;stroke-linejoin:round;" x1="640" y1="733.5" x2="749.6" y2="843.1"/>
	</g>
	<g>
		
			<line style="fill:none;stroke:#F7F7F7;stroke-width:0;stroke-linecap:round;stroke-linejoin:round;" x1="243.3" y1="383.8" x2="351" y2="491.5"/>
	</g>
	<g>
		
			<line style="fill:none;stroke:#F7F7F7;stroke-width:0;stroke-linecap:round;stroke-linejoin:round;" x1="351" y1="491.5" x2="502.5" y2="643"/>
	</g>
	<g>
		
			<line style="fill:none;stroke:#F7F7F7;stroke-width:0;stroke-linecap:round;stroke-linejoin:round;" x1="616.5" y1="757" x2="648.7" y2="789.2"/>
	</g>
	<g>
		
			<line style="fill:none;stroke:#F7F7F7;stroke-width:0;stroke-linecap:round;stroke-linejoin:round;" x1="502.5" y1="643" x2="616.5" y2="757"/>
	</g>
	<g>
		
			<line style="fill:none;stroke:#F7F7F7;stroke-width:0;stroke-linecap:round;stroke-linejoin:round;" x1="655.9" y1="685.4" x2="702" y2="639.3"/>
	</g>
	<g>
		
			<line style="fill:none;stroke:#F7F7F7;stroke-width:0;stroke-linecap:round;stroke-linejoin:round;" x1="655.2" y1="686.1" x2="640.9" y2="700.4"/>
	</g>
	<g>
		<polygon style="fill:#F7F7F7;" points="254.7,734.9 271.8,717.7 254.7,700.6 254,701.3 270.4,717.7 254,734.2 		"/>
	</g>
	<g>
		<path style="fill:#F7F7F7;" d="M771.3,385.7l31.9,32.4c0.5-0.5,1-1,1.4-1.4c33.6-33.1,38.6-84.1,15-122.6
			c-3.8-6.1-8.2-11.9-13.4-17.2c-0.2-0.2-0.3-0.4-0.5-0.5c-5.7-5.8-11.9-10.7-18.5-14.8c-6.3-3.9-12.9-7-19.7-9.3
			c-34.5-12-74.4-4.3-102.2,23c-0.5,0.5-1,1-1.4,1.4l31.9,32.4c0.5-0.5,0.9-1,1.4-1.5c21.2-20.8,55.2-20.6,76,0.6s20.6,55.2-0.6,76
			C772.3,384.8,771.8,385.3,771.3,385.7z"/>
	</g>
	<g>
		<path style="fill:#F7F7F7;" d="M328.1,649c0.5-0.5,0.9-1,1.4-1.5l-33-31.4c-0.5,0.5-0.9,1-1.4,1.5c-20.5,21.5-54.5,22.4-76,1.9
			c-21.5-20.5-22.4-54.5-1.9-76c0.5-0.5,0.9-1,1.4-1.4l-33-31.4c-0.5,0.5-0.9,1-1.4,1.5c-32.5,34.2-35.8,85.3-10.9,123
			c4,6,8.6,11.6,14,16.8c0.2,0.2,0.4,0.3,0.5,0.5c5.9,5.6,12.2,10.3,19,14.2c6.4,3.6,13.1,6.6,20,8.7
			C261.7,686.3,301.2,677.3,328.1,649z"/>
	</g>
	<g>
		<path style="fill:#F7F7F7;" d="M710.5,324l46.1,46.9c12.9-12.7,13.1-33.6,0.4-46.5C744.3,311.4,723.4,311.3,710.5,324z"/>
	</g>
	<g>
		<path style="fill:#F7F7F7;" d="M432.3,312.3c41.6,0,75.3-33.7,75.3-75.3c0-41.6-33.7-75.3-75.3-75.3c-41.6,0-75.3,33.7-75.3,75.3
			C356.9,278.6,390.6,312.3,432.3,312.3z M432.3,179.4c31.8,0,57.6,25.8,57.6,57.6c0,31.8-25.8,57.6-57.6,57.6
			c-31.8,0-57.6-25.8-57.6-57.6S400.4,179.4,432.3,179.4z"/>
	</g>
	<g>
		<path style="fill:#F7F7F7;" d="M432.3,286.6c27.4,0,49.6-22.2,49.6-49.6s-22.2-49.6-49.6-49.6s-49.6,22.2-49.6,49.6
			S404.9,286.6,432.3,286.6z M432.3,199.1c20.9,0,37.9,17,37.9,37.9s-16.9,37.9-37.9,37.9s-37.9-17-37.9-37.9
			S411.3,199.1,432.3,199.1z"/>
	</g>
	<g>
		<path style="fill:#F7F7F7;" d="M632.6,455.8c0-25.5-20.7-46.2-46.2-46.2c-25.5,0-46.2,20.7-46.2,46.2s20.7,46.2,46.2,46.2
			C611.9,502,632.6,481.3,632.6,455.8z M551.1,455.8c0-19.5,15.8-35.3,35.3-35.3s35.3,15.8,35.3,35.3s-15.8,35.3-35.3,35.3
			S551.1,475.3,551.1,455.8z"/>
	</g>
	<g>
		<path style="fill:#F7F7F7;" d="M616.8,455.8c0-16.8-13.6-30.4-30.4-30.4c-16.8,0-30.4,13.6-30.4,30.4c0,16.8,13.6,30.4,30.4,30.4
			C603.2,486.2,616.8,472.6,616.8,455.8z M563.2,455.8c0-12.8,10.4-23.2,23.2-23.2s23.2,10.4,23.2,23.2s-10.4,23.2-23.2,23.2
			S563.2,468.7,563.2,455.8z"/>
	</g>
	<g>
		<path style="fill:#F7F7F7;" d="M586.1,580.8c0,16.8,13.6,30.4,30.4,30.4c16.8,0,30.4-13.6,30.4-30.4c0-16.8-13.6-30.4-30.4-30.4
			C599.7,550.5,586.1,564.1,586.1,580.8z M639.7,580.8c0,12.8-10.4,23.2-23.2,23.2s-23.2-10.4-23.2-23.2s10.4-23.2,23.2-23.2
			S639.7,568,639.7,580.8z"/>
	</g>
	<g>
		<path style="fill:#F7F7F7;" d="M468.4,526.2c16.8,0,30.4-13.6,30.4-30.4c0-16.8-13.6-30.4-30.4-30.4c-16.8,0-30.4,13.6-30.4,30.4
			C438.1,512.6,451.7,526.2,468.4,526.2z M445.2,495.8c0-12.8,10.4-23.2,23.2-23.2s23.2,10.4,23.2,23.2s-10.4,23.2-23.2,23.2
			S445.2,508.7,445.2,495.8z"/>
	</g>
	<g>
		<path style="fill:#F7F7F7;" d="M432.1,656.3c0-25.5-20.7-46.2-46.2-46.2c-25.5,0-46.2,20.7-46.2,46.2s20.7,46.2,46.2,46.2
			C411.4,702.5,432.1,681.8,432.1,656.3z M350.6,656.3c0-19.5,15.8-35.3,35.3-35.3s35.3,15.8,35.3,35.3s-15.8,35.3-35.3,35.3
			S350.6,675.8,350.6,656.3z"/>
	</g>
	<g>
		<path style="fill:#F7F7F7;" d="M671.6,734.3c0,16.8,13.6,30.4,30.4,30.4c16.8,0,30.4-13.6,30.4-30.4c0-16.8-13.6-30.4-30.4-30.4
			C685.2,704,671.6,717.6,671.6,734.3z M725.2,734.3c0,12.8-10.4,23.2-23.2,23.2s-23.2-10.4-23.2-23.2s10.4-23.2,23.2-23.2
			S725.2,721.5,725.2,734.3z"/>
	</g>
	<g>
		<path style="fill:#F7F7F7;" d="M393.3,398.3c0-16.8-13.6-30.4-30.4-30.4c-16.8,0-30.4,13.6-30.4,30.4c0,16.8,13.6,30.4,30.4,30.4
			C379.7,428.7,393.3,415.1,393.3,398.3z M339.7,398.3c0-12.8,10.4-23.2,23.2-23.2s23.2,10.4,23.2,23.2s-10.4,23.2-23.2,23.2
			S339.7,411.2,339.7,398.3z"/>
	</g>
	<g>
		<path style="fill:#F7F7F7;" d="M612.1,742l18.2-18.2l32-32l-6.4-6.4l-43.8-43.9l-32,32l-18.2,18.2L612.1,742z M612.1,643
			l43.1,43.1l5.6,5.6l-31.3,31.3l-17.5,17.5l-48.8-48.8l17.5-17.5L612.1,643z"/>
	</g>
	<g>
		
			<line style="fill:none;stroke:#F7F7F7;stroke-width:0;stroke-linecap:round;stroke-linejoin:round;" x1="97.6" y1="137.8" x2="117.6" y2="157.9"/>
	</g>
	<g>
		
			<line style="fill:none;stroke:#F7F7F7;stroke-width:0;stroke-linecap:round;stroke-linejoin:round;" x1="117.6" y1="178" x2="97.5" y2="157.9"/>
	</g>
	<g>
		
			<line style="fill:none;stroke:#F7F7F7;stroke-width:0;stroke-linecap:round;stroke-linejoin:round;" x1="97.5" y1="177.9" x2="115.1" y2="195.4"/>
	</g>
	<g>
		
			<line style="fill:none;stroke:#F7F7F7;stroke-width:0;stroke-linecap:round;stroke-linejoin:round;" x1="110.9" y1="211.3" x2="97.5" y2="198"/>
	</g>
	<g>
		
			<line style="fill:none;stroke:#F7F7F7;stroke-width:0;stroke-linecap:round;stroke-linejoin:round;" x1="109.4" y1="230" x2="97.5" y2="218.1"/>
	</g>
	<g>
		
			<line style="fill:none;stroke:#F7F7F7;stroke-width:0;stroke-linecap:round;stroke-linejoin:round;" x1="0" y1="155.6" x2="118.9" y2="36.7"/>
	</g>
	<g>
		
			<line style="fill:none;stroke:#F7F7F7;stroke-width:0;stroke-linecap:round;stroke-linejoin:round;" x1="134.7" y1="20.9" x2="118.9" y2="36.7"/>
	</g>
	<g>
		
			<line style="fill:none;stroke:#F7F7F7;stroke-width:0;stroke-linecap:round;stroke-linejoin:round;" x1="155.6" y1="0" x2="134.7" y2="20.9"/>
	</g>
	<g>
		
			<line style="fill:none;stroke:#F7F7F7;stroke-width:0;stroke-linecap:round;stroke-linejoin:round;" x1="0" y1="218.8" x2="131.1" y2="349.9"/>
	</g>
	<g>
		
			<line style="fill:none;stroke:#F7F7F7;stroke-width:0;stroke-linecap:round;stroke-linejoin:round;" x1="173.5" y1="59.7" x2="211" y2="97.2"/>
	</g>
	<g>
		
			<line style="fill:none;stroke:#F7F7F7;stroke-width:0;stroke-linecap:round;stroke-linejoin:round;" x1="172.8" y1="59" x2="134.7" y2="20.9"/>
	</g>
	<g>
		
			<line style="fill:none;stroke:#F7F7F7;stroke-width:0;stroke-linecap:round;stroke-linejoin:round;" x1="134.7" y1="20.9" x2="113.8" y2="0"/>
	</g>
	<g>
		
			<line style="fill:none;stroke:#F7F7F7;stroke-width:0;stroke-linecap:round;stroke-linejoin:round;" x1="118.9" y1="36.7" x2="82.2" y2="0"/>
	</g>
	<g>
		
			<line style="fill:none;stroke:#F7F7F7;stroke-width:0;stroke-linecap:round;stroke-linejoin:round;" x1="118.9" y1="36.7" x2="130.8" y2="48.7"/>
	</g>
	<g>
		<path style="fill:#F7F7F7;" d="M172.4,188.9l-31.9-32.4c-0.5,0.5-1,1-1.4,1.4c-11.1,10.9-19,23.8-23.9,37.5
			c-1.8,5.2-3.2,10.5-4.2,15.9c-1.1,6.2-1.6,12.4-1.5,18.6c0.2,17.6,5.1,35.1,14.6,50.6c3.8,6.1,8.2,11.9,13.4,17.2
			c0.2,0.2,0.3,0.4,0.5,0.5c5.7,5.8,11.9,10.7,18.5,14.8c6.3,3.9,12.9,7,19.7,9.3c34.5,12,74.4,4.3,102.2-23c0.5-0.5,1-1,1.4-1.4
			l-31.9-32.4c-0.5,0.5-0.9,1-1.4,1.5c-21.2,20.8-55.2,20.6-76-0.6s-20.6-55.2,0.6-76C171.3,189.9,171.8,189.4,172.4,188.9z"/>
	</g>
	<g>
		<path style="fill:#F7F7F7;" d="M233.1,250.6L187,203.8c-12.9,12.7-13.1,33.6-0.4,46.5C199.3,263.2,220.2,263.4,233.1,250.6z"/>
	</g>
	<g>
		<path style="fill:#F7F7F7;" d="M303.4,103.6c0,8.5,6.9,15.4,15.4,15.4s15.4-6.9,15.4-15.4s-6.9-15.4-15.4-15.4
			S303.4,95,303.4,103.6z M330.6,103.6c0,6.5-5.3,11.8-11.8,11.8c-6.5,0-11.8-5.3-11.8-11.8c0-6.5,5.3-11.8,11.8-11.8
			C325.3,91.8,330.6,97,330.6,103.6z"/>
	</g>
	<g>
		<path style="fill:#F7F7F7;" d="M11.2,23.6C11.2,14.1,6.8,5.6,0,0v10.4c2.6,3.7,4.1,8.3,4.1,13.1S2.6,33,0,36.7v10.4
			C6.8,41.5,11.2,33.1,11.2,23.6z"/>
	</g>
	<g>
		<path style="fill:#F7F7F7;" d="M318.6,0.1c0,19.5-15.8,35.3-35.3,35.3S248,19.6,248,0.1c0,0,0,0,0-0.1h-10.9c0,0,0,0,0,0.1
			c0,25.5,20.7,46.2,46.2,46.2c25.5,0,46.2-20.7,46.2-46.2c0,0,0,0,0-0.1L318.6,0.1C318.6,0,318.6,0,318.6,0.1z"/>
	</g>
	<g>
		<path style="fill:#F7F7F7;" d="M77.7,427.1c0,10.9,8.8,19.7,19.7,19.7c10.9,0,19.7-8.8,19.7-19.7c0-10.9-8.8-19.7-19.7-19.7
			C86.5,407.4,77.7,416.2,77.7,427.1z M112.4,427.1c0,8.3-6.7,15.1-15.1,15.1s-15.1-6.7-15.1-15.1c0-8.3,6.7-15.1,15.1-15.1
			S112.4,418.8,112.4,427.1z"/>
	</g>
	<g>
		<path style="fill:#F7F7F7;" d="M205.5,126.7l50.2-50.2l-50.2-50.2L172.8,59l-17.5,17.5L205.5,126.7z M205.5,27.7l48.8,48.8
			l-48.8,48.8l-48.8-48.8l16.8-16.8L205.5,27.7z"/>
	</g>
	<g>
		<polygon style="fill:#F7F7F7;" points="0,378.8 0,380.2 21.3,401.5 0,422.8 0,424.2 22.7,401.5 		"/>
	</g>
	<g>
		
			<line style="fill:none;stroke:#F7F7F7;stroke-width:0;stroke-linecap:round;stroke-linejoin:round;" x1="952.7" y1="307.1" x2="972.8" y2="287"/>
	</g>
	<g>
		
			<line style="fill:none;stroke:#F7F7F7;stroke-width:0;stroke-linecap:round;stroke-linejoin:round;" x1="932.6" y1="307" x2="952.7" y2="287"/>
	</g>
	<g>
		
			<line style="fill:none;stroke:#F7F7F7;stroke-width:0;stroke-linecap:round;stroke-linejoin:round;" x1="932.7" y1="286.9" x2="912.6" y2="307"/>
	</g>
	<g>
		
			<line style="fill:none;stroke:#F7F7F7;stroke-width:0;stroke-linecap:round;stroke-linejoin:round;" x1="912.6" y1="287" x2="892.5" y2="307"/>
	</g>
	<g>
		
			<line style="fill:none;stroke:#F7F7F7;stroke-width:0;stroke-linecap:round;stroke-linejoin:round;" x1="892.4" y1="287" x2="872.4" y2="307"/>
	</g>
	<g>
		
			<line style="fill:none;stroke:#F7F7F7;stroke-width:0;stroke-linecap:round;stroke-linejoin:round;" x1="894.7" y1="260.9" x2="968.4" y2="187.2"/>
	</g>
	<g>
		
			<line style="fill:none;stroke:#F7F7F7;stroke-width:0;stroke-linecap:round;stroke-linejoin:round;" x1="1000" y1="155.6" x2="968.4" y2="187.2"/>
	</g>
	<g>
		
			<line style="fill:none;stroke:#F7F7F7;stroke-width:0;stroke-linecap:round;stroke-linejoin:round;" x1="968.4" y1="187.2" x2="1000" y2="218.8"/>
	</g>
	<g>
		
			<line style="fill:none;stroke:#F7F7F7;stroke-width:0;stroke-linecap:round;stroke-linejoin:round;" x1="968.4" y1="187.2" x2="781.2" y2="0"/>
	</g>
	<g>
		
			<line style="fill:none;stroke:#F7F7F7;stroke-width:0;stroke-linecap:round;stroke-linejoin:round;" x1="626.6" y1="0" x2="568.7" y2="57.9"/>
	</g>
	<g>
		<path style="fill:#F7F7F7;" d="M980.8,53.9c7.3,0,13.9-2.6,19.2-6.8V36.7c-4.2,6.1-11.2,10.1-19.2,10.1
			c-12.8,0-23.2-10.4-23.2-23.2S968,0.3,980.8,0.3c8,0,15,4,19.2,10.1V0c0,0,0,0,0,0h-38.3c-6.8,5.6-11.2,14.1-11.2,23.6
			C950.5,40.3,964.1,53.9,980.8,53.9z"/>
	</g>
	<g>
		<path style="fill:#F7F7F7;" d="M679.7,63.1c0,10.9,8.8,19.7,19.7,19.7c10.9,0,19.7-8.8,19.7-19.7c0-10.9-8.8-19.7-19.7-19.7
			C688.5,43.4,679.7,52.2,679.7,63.1z M714.4,63.1c0,8.3-6.7,15.1-15.1,15.1s-15.1-6.7-15.1-15.1c0-8.3,6.7-15.1,15.1-15.1
			S714.4,54.8,714.4,63.1z"/>
	</g>
	<g>
		<path style="fill:#F7F7F7;" d="M907.7,187.5l-50.2-50.2l-50.2,50.2l50.2,50.2L907.7,187.5z M857.5,138.7l48.8,48.8l-48.8,48.8
			l-48.8-48.8L857.5,138.7z"/>
	</g>
	<g>
		<polygon style="fill:#F7F7F7;" points="1000,424.2 1000,422.8 972.5,450.3 923.7,401.5 972.5,352.7 1000,380.2 1000,378.8 
			972.5,351.3 922.3,401.5 972.5,451.7 		"/>
	</g>
	<g>
		
			<line style="fill:none;stroke:#F7F7F7;stroke-width:0;stroke-linecap:round;stroke-linejoin:round;" x1="14.5" y1="812" x2="0" y2="826.5"/>
	</g>
	<g>
		
			<line style="fill:none;stroke:#F7F7F7;stroke-width:0;stroke-linecap:round;stroke-linejoin:round;" x1="34.5" y1="812" x2="14.5" y2="832.1"/>
	</g>
	<g>
		
			<line style="fill:none;stroke:#F7F7F7;stroke-width:0;stroke-linecap:round;stroke-linejoin:round;" x1="34.6" y1="832" x2="54.6" y2="811.9"/>
	</g>
	<g>
		
			<line style="fill:none;stroke:#F7F7F7;stroke-width:0;stroke-linecap:round;stroke-linejoin:round;" x1="54.7" y1="832" x2="74.8" y2="811.9"/>
	</g>
	<g>
		
			<line style="fill:none;stroke:#F7F7F7;stroke-width:0;stroke-linecap:round;stroke-linejoin:round;" x1="300.1" y1="855.6" x2="155.6" y2="1000"/>
	</g>
	<g>
		
			<line style="fill:none;stroke:#F7F7F7;stroke-width:0;stroke-linecap:round;stroke-linejoin:round;" x1="93.1" y1="580.6" x2="0" y2="673.6"/>
	</g>
	<g>
		
			<line style="fill:none;stroke:#F7F7F7;stroke-width:0;stroke-linecap:round;stroke-linejoin:round;" x1="113.8" y1="1000" x2="0" y2="886.2"/>
	</g>
	<g>
		
			<line style="fill:none;stroke:#F7F7F7;stroke-width:0;stroke-linecap:round;stroke-linejoin:round;" x1="0" y1="917.8" x2="82.2" y2="1000"/>
	</g>
	<g>
		<path style="fill:#F7F7F7;" d="M0,732.4v23.7l3.4-0.1c0-0.7-0.1-1.4-0.1-2C3,746.5,1.9,739.3,0,732.4z"/>
	</g>
	<g>
		<path style="fill:#F7F7F7;" d="M206,864.7c0-41.6-33.7-75.3-75.3-75.3c-41.6,0-75.3,33.7-75.3,75.3c0,41.6,33.7,75.3,75.3,75.3
			C172.3,940.1,206,906.3,206,864.7z M130.7,922.4c-31.8,0-57.6-25.8-57.6-57.6c0-31.8,25.8-57.6,57.6-57.6
			c31.8,0,57.6,25.8,57.6,57.6C188.3,896.6,162.5,922.4,130.7,922.4z"/>
	</g>
	<g>
		<path style="fill:#F7F7F7;" d="M130.7,815.2c-27.4,0-49.6,22.2-49.6,49.6c0,27.4,22.2,49.6,49.6,49.6c27.4,0,49.6-22.2,49.6-49.6
			C180.2,837.4,158,815.2,130.7,815.2z M130.7,902.6c-20.9,0-37.9-17-37.9-37.9c0-20.9,17-37.9,37.9-37.9c20.9,0,37.9,17,37.9,37.9
			C168.6,885.6,151.6,902.6,130.7,902.6z"/>
	</g>
	<g>
		<path style="fill:#F7F7F7;" d="M0,597.6c3.3-4.8,5.2-10.7,5.2-17c0-6.3-1.9-12.1-5.2-17V597.6z"/>
	</g>
	<g>
		<path style="fill:#F7F7F7;" d="M283.3,953.9c-25.5,0-46.1,20.6-46.2,46.1H248c0-19.5,15.8-35.2,35.3-35.2s35.3,15.8,35.3,35.2
			h10.9C329.5,974.5,308.8,953.9,283.3,953.9z"/>
	</g>
	<g>
		<path style="fill:#F7F7F7;" d="M97.3,682.4c-10.9,0-19.7,8.8-19.7,19.7c0,10.9,8.8,19.7,19.7,19.7c10.9,0,19.7-8.8,19.7-19.7
			C117,691.2,108.2,682.4,97.3,682.4z M97.3,717.1c-8.3,0-15.1-6.7-15.1-15.1c0-8.3,6.7-15.1,15.1-15.1s15.1,6.7,15.1,15.1
			C112.4,710.4,105.6,717.1,97.3,717.1z"/>
	</g>
	<g>
		
			<line style="fill:none;stroke:#F7F7F7;stroke-width:0;stroke-linecap:round;stroke-linejoin:round;" x1="994.4" y1="811.9" x2="974.4" y2="832"/>
	</g>
	<g>
		
			<line style="fill:none;stroke:#F7F7F7;stroke-width:0;stroke-linecap:round;stroke-linejoin:round;" x1="994.5" y1="832" x2="1000" y2="826.5"/>
	</g>
	<g>
		
			<line style="fill:none;stroke:#F7F7F7;stroke-width:0;stroke-linecap:round;stroke-linejoin:round;" x1="727.4" y1="946.2" x2="781.2" y2="1000"/>
	</g>
	<g>
		
			<line style="fill:none;stroke:#F7F7F7;stroke-width:0;stroke-linecap:round;stroke-linejoin:round;" x1="727.4" y1="946.2" x2="725.7" y2="944.6"/>
	</g>
	<g>
		
			<line style="fill:none;stroke:#F7F7F7;stroke-width:0;stroke-linecap:round;stroke-linejoin:round;" x1="766.6" y1="860.1" x2="919.9" y2="706.8"/>
	</g>
	<g>
		
			<line style="fill:none;stroke:#F7F7F7;stroke-width:0;stroke-linecap:round;stroke-linejoin:round;" x1="626.6" y1="1000" x2="766.6" y2="860.1"/>
	</g>
	<g>
		
			<line style="fill:none;stroke:#F7F7F7;stroke-width:0;stroke-linecap:round;stroke-linejoin:round;" x1="954.2" y1="672.5" x2="974.1" y2="652.6"/>
	</g>
	<g>
		
			<line style="fill:none;stroke:#F7F7F7;stroke-width:0;stroke-linecap:round;stroke-linejoin:round;" x1="727.4" y1="946.2" x2="877.9" y2="795.7"/>
	</g>
	<g>
		
			<line style="fill:none;stroke:#F7F7F7;stroke-width:0;stroke-linecap:round;stroke-linejoin:round;" x1="727.4" y1="946.2" x2="687.7" y2="985.9"/>
	</g>
	<g>
		
			<line style="fill:none;stroke:#F7F7F7;stroke-width:0;stroke-linecap:round;stroke-linejoin:round;" x1="1000" y1="673.6" x2="979.7" y2="693.9"/>
	</g>
	<g>
		
			<line style="fill:none;stroke:#F7F7F7;stroke-width:0;stroke-linecap:round;stroke-linejoin:round;" x1="947.4" y1="726.2" x2="877.9" y2="795.7"/>
	</g>
	<g>
		
			<line style="fill:none;stroke:#F7F7F7;stroke-width:0;stroke-linecap:round;stroke-linejoin:round;" x1="1000" y1="886.2" x2="937.9" y2="824.1"/>
	</g>
	<g>
		
			<line style="fill:none;stroke:#F7F7F7;stroke-width:0;stroke-linecap:round;stroke-linejoin:round;" x1="1000" y1="917.8" x2="877.9" y2="795.7"/>
	</g>
	<g>
		
			<line style="fill:none;stroke:#F7F7F7;stroke-width:0;stroke-linecap:round;stroke-linejoin:round;" x1="877.9" y1="795.7" x2="857.7" y2="775.6"/>
	</g>
	<g>
		<path style="fill:#F7F7F7;" d="M957.9,757.9l42.1-1.8v-23.7c-3.9-14.4-10.9-27.5-20.3-38.5c-7.3-8.5-15.9-15.8-25.6-21.4
			c-9.7-5.7-20.4-9.7-31.8-11.9c-7-1.3-14.3-1.9-21.8-1.6c-0.2,0-0.5,0-0.7,0c-8.1,0.3-15.9,1.6-23.4,3.8
			c-7.1,2.1-13.8,4.8-20.1,8.4c-32,17.6-53,52.3-51.4,91.3c0,0.7,0.1,1.4,0.1,2l45.5-2c0-0.7-0.1-1.4-0.1-2
			c-1.3-29.7,21.7-54.8,51.4-56c6.3-0.3,12.3,0.6,18,2.3c11.1,3.4,20.7,10.3,27.5,19.5c6.2,8.3,10,18.5,10.5,29.6
			C957.9,756.5,957.9,757.2,957.9,757.9z"/>
	</g>
	<g>
		<path style="fill:#F7F7F7;" d="M904,917.6c0-25.5-20.7-46.2-46.2-46.2c-25.5,0-46.2,20.7-46.2,46.2c0,25.5,20.7,46.2,46.2,46.2
			C883.3,963.7,904,943.1,904,917.6z M822.5,917.6c0-19.5,15.8-35.3,35.3-35.3s35.3,15.8,35.3,35.3s-15.8,35.3-35.3,35.3
			S822.5,937.1,822.5,917.6z"/>
	</g>
	<g>
		<path style="fill:#F7F7F7;" d="M974.8,610.9c10.5,0,19.7-5.3,25.2-13.4v-34c-5.5-8.1-14.7-13.4-25.2-13.4
			c-16.8,0-30.4,13.6-30.4,30.4C944.5,597.3,958.1,610.9,974.8,610.9z M974.8,557.3c12.8,0,23.2,10.4,23.2,23.2
			s-10.4,23.2-23.2,23.2s-23.2-10.4-23.2-23.2S962,557.3,974.8,557.3z"/>
	</g>
	<g>
		<path style="fill:#F7F7F7;" d="M961.7,1000h38.3c-5.2-4.2-11.9-6.8-19.1-6.8S966.9,995.8,961.7,1000z"/>
	</g>
</g>
</svg>
