<?xml version="1.0" encoding="UTF-8"?>
<svg xmlns="http://www.w3.org/2000/svg" xmlns:xlink="http://www.w3.org/1999/xlink" viewBox="0 0 32 32" version="1.1" fill="#000000"><g id="surface1" fill="#000000"><path style=" " d="M 6 4 L 6 28 L 18.125 28 C 18.679688 28.625 19.277344 29.1875 19.875 29.65625 C 21.742188 31.121094 23.59375 31.90625 23.59375 31.90625 L 24 32.09375 L 24.40625 31.90625 C 24.40625 31.90625 26.257813 31.121094 28.125 29.65625 C 29.992188 28.191406 32 25.964844 32 23 L 32 17 L 31 17 C 29.222656 17 28.175781 16.566406 27.21875 16.09375 C 26.820313 15.898438 26.417969 15.691406 26 15.5 L 26 4 Z M 8 6 L 24 6 L 24 11 L 8 11 Z M 8 13 L 24 13 L 24 15 C 22.667969 15 21.753906 15.625 20.8125 16.09375 C 19.871094 16.5625 18.832031 17 17 17 L 16 17 L 16 19 L 8 19 Z M 24 17 C 24.667969 17 25.277344 17.378906 26.34375 17.90625 C 27.214844 18.335938 28.457031 18.71875 30 18.875 L 30 23 C 30 25.035156 28.507813 26.808594 26.875 28.09375 C 25.445313 29.21875 24.335938 29.691406 24 29.84375 C 23.664063 29.691406 22.554688 29.21875 21.125 28.09375 C 19.492188 26.808594 18 25.035156 18 23 L 18 18.875 C 19.574219 18.71875 20.820313 18.339844 21.6875 17.90625 C 22.746094 17.375 23.332031 17 24 17 Z M 8 21 L 16 21 L 16 23 C 16 24.101563 16.273438 25.105469 16.71875 26 L 8 26 Z " fill="#000000"/></g></svg>
