<?xml version="1.0" encoding="UTF-8"?>
<svg xmlns="http://www.w3.org/2000/svg" xmlns:xlink="http://www.w3.org/1999/xlink" viewBox="0 0 32 32" version="1.1" fill="#000000"><g id="surface1" fill="#000000"><path style=" " d="M 6 4 L 6 28 L 22 28 L 22 32 L 28 32 L 28 28 L 32 28 L 32 22 L 28 22 L 28 18 L 26 18 L 26 4 Z M 8 6 L 24 6 L 24 11 L 8 11 Z M 8 13 L 24 13 L 24 18 L 22 18 L 22 19 L 8 19 Z M 24 20 L 26 20 L 26 24 L 30 24 L 30 26 L 26 26 L 26 30 L 24 30 L 24 26 L 20 26 L 20 24 L 24 24 Z M 8 21 L 22 21 L 22 22 L 18 22 L 18 26 L 8 26 Z " fill="#000000"/></g></svg>
