<?xml version="1.0" encoding="utf-8"?>
<!-- Generator: Adobe Illustrator 24.0.0, SVG Export Plug-In . SVG Version: 6.00 Build 0)  -->
<svg version="1.1" id="_x2014_ŽÓť_x5F_1" xmlns="http://www.w3.org/2000/svg" xmlns:xlink="http://www.w3.org/1999/xlink"
	 x="0px" y="0px" viewBox="0 0 367.88 359.71" style="enable-background:new 0 0 367.88 359.71;" xml:space="preserve">
<style type="text/css">
	.room0{opacity:0.5;fill:#C4D9E8;}
	.room1{fill:#46B2AA;}
	.room2{fill:#173D7A;}
	.room3{fill:#FDD762;}
	.room4{fill:#FFC2B0;}
	.room5{fill:#38ADA9;}
	.room6{fill:#FFFFFF;}
	.room7{fill:#EA9C92;}
	.room8{fill:#3EBAB3;}
	.room9{fill:#D8892B;}
	.room010{fill:#396CAA;}
	.room011{fill:#D4ECFF;}
	.room012{fill:#5793CE;}
	.room013{fill:#FAFDFF;}
	.room014{fill:#46CCC5;}
	.room015{fill:#2F8984;}
	.room016{fill:#32938E;}
	.room017{fill:url(#SVGID_1_);}
	.room018{fill:#EAEAEA;}
	.room019{fill:#E8A200;}
	.room020{fill:#274F89;}
</style>
<g>
	<path class="room0" d="M143.3,235.95c-9.08,5.24-23.79,5.24-32.87,0c-9.08-5.24-9.08-13.74,0-18.97c9.08-5.24,23.79-5.24,32.87,0
		C152.37,222.22,152.37,230.71,143.3,235.95z"/>
	<ellipse class="room0" cx="316.09" cy="297.33" rx="32.72" ry="18.89"/>
	<g>
		<path class="room1" d="M113.54,61.53c0,0,0.61,12.5,1.56,20.9c0.95,8.4,21.18-6.45,21.18-6.45v-9.56L113.54,61.53z"/>
		<g>
			<path class="room2" d="M124.31,217.02c0.3,0.76,5.54,7.14,10.79,8.73c2.28,0.69,3.81,0.78,4.81,0.66c1.01-0.12,1.63-1.16,1.29-2.11
				c-0.9-2.54-3.49-7.83-10.05-11.08C122.26,208.82,124.31,217.02,124.31,217.02z"/>
			<path class="room2" d="M122.56,219.47c0,0,1.97,4.63,2.58,8.51c0.37,2.36-0.93,5.43-1.99,7.47c-0.66,1.26-2.34,1.55-3.4,0.59
				c-1.71-1.55-3.89-4.25-4.25-8.13c-0.61-6.53,0-7.67,0-7.67L122.56,219.47z"/>
			<path class="room3" d="M109.94,140.52c0,0-0.68,8.24,0,17.35c0.68,9.11,3.13,51.74,3.59,61.99c0,0-0.23,3.1,5.78,2.42
				c6.01-0.68,5.53-4.13,5.53-4.13s8.44-0.11,8.71-5.09c0.27-4.97,8.64-59.41,8.64-78.98L109.94,140.52z"/>
			<g>
				<path class="room4" d="M145.3,97.92l4.14,6.4l14.21,17.17c0,0-0.49,1.59-2.26,2.01c-1.38,0.33-13.34-11.08-18.5-16.09
					c-1.37-1.33-1.6-3.45-0.54-5.04L145.3,97.92z"/>
				<path class="room5" d="M137.24,71.63c0,0,6.57-0.17,8.86,9.32c2.29,9.49,4.08,21.38,2.09,22.37c-5.97,2.96-9.75-0.5-9.75-0.5
					L137.24,71.63z"/>
				<path class="room5" d="M139.2,72.03c-1.12-0.47-2.38-0.53-3.55-0.19c-5.6,1.61-26.64,7.78-30.11,10.75
					c-4.01,3.42,6.01,22.67,5.86,28.98c-0.14,6.31-0.86,13.75-1.41,20.61c-0.56,6.86-1.31,10.62,4.3,13.54
					c5.61,2.92,15.19,3.05,22.36-2.41c7.17-5.46,5.87-9.2,5.57-13.17c-0.3-3.97-2.74-21.12-2.53-25.99c0,0,2.53-1.86,4.4-5.05
					c1.87-3.19-1.43-9.06-2.81-12.87s0.77-8.18,0.35-11.29C141.42,73.32,140.4,72.53,139.2,72.03z"/>
				
					<ellipse transform="matrix(0.9919 -0.1271 0.1271 0.9919 -9.1046 16.4722)" class="room6" cx="124.57" cy="79.61" rx="7.97" ry="6.33"/>
				<path class="room4" d="M130.22,78.88c0.32,2.48-1.96,4.81-5.08,5.21c-3.12,0.4-5.91-1.28-6.22-3.76
					c-0.32-2.48,1.96-4.81,5.08-5.21C127.12,74.72,129.9,76.4,130.22,78.88z"/>
				<path class="room4" d="M127.12,70.75c0,0-3.8-3.12-4.54-1.54c-0.75,1.58-1.36,8.37-1.36,8.37l7.54,2.03l-1.14-6.88
					C127.61,72.73,129.12,71.45,127.12,70.75z"/>
				
					<ellipse transform="matrix(0.9993 -0.0382 0.0382 0.9993 -2.2985 4.9195)" class="room4" cx="127.67" cy="62.64" rx="11.26" ry="11.26"/>
				<path class="room7" d="M122.05,71.18c-0.07,0.35-0.13,0.73-0.19,1.12c0.76,3.92,6.62,5.63,6.62,5.63l-0.87-5.21
					c0,0,0.71-0.6,0.51-1.21C125.8,70.79,122.88,70.14,122.05,71.18z"/>
				
					<ellipse transform="matrix(0.9993 -0.0382 0.0382 0.9993 -2.2985 4.9195)" class="room4" cx="127.67" cy="62.64" rx="11.26" ry="11.26"/>
				<polygon class="room4" points="99.92,110.32 101.18,140.46 105.58,140.91 108.45,113.78 				"/>
				<path class="room1" d="M114.4,107.8c-1.46-6.44-4.34-20.65-4.34-20.65l-1.23,14.14c1.42,4.19,2.64,8.04,2.59,10.28
					c-0.08,3.7-0.37,7.8-0.7,11.93l0,0.01C110.72,123.51,115.85,114.24,114.4,107.8z"/>
				<path class="room8" d="M106.39,81.97c0,0-3.52,1.35-5.52,12.17c-1.99,10.82-3.49,21.66,0.07,23.06c3.56,1.4,6.53,2.45,7.57-0.45
					c1.05-2.89,1.69-16.84,1.82-21.86C110.47,89.87,110.66,82.96,106.39,81.97z"/>
				<path class="room4" d="M162.6,120.24c0,0,1.91,0.7,3.29,2.2c1.13,1.23,1.75,2.28,2.25,3.02c1.1,1.64,2.02,5.18,1.35,5.62
					c-0.67,0.44-4.5-5.93-5.11-4.44c-0.62,1.48,0.01,2.85-0.79,2.87c-0.79,0.02-3.54-6.4-5.7-8.39
					C155.72,119.12,162.6,120.24,162.6,120.24z"/>
			</g>
			<path class="room9" d="M124.83,218.16c0,0,1.05-0.02,2.41-0.25l0,0l1.65-66.26L124.83,218.16z"/>
		</g>
		<path class="room4" d="M101.21,140.21c0,0-1.16,7.03-0.99,9.29c0.18,2.25,1.38,5.97,2.3,5.89c0.92-0.08,0.03-9.06,1.64-8.17
			c1.61,0.89,1.78,2.43,2.5,1.89c0.73-0.54-1.27-8.22-0.74-11.55C106.46,134.23,101.21,140.21,101.21,140.21z"/>
		<path class="room7" d="M131.99,63.63c5.65,2.01,6.75,0.78,6.8,0.72c0.05-0.34,0.09-0.69,0.11-1.04c0.07-1.25-0.07-2.46-0.38-3.6
			l-14.66-1.98C123.87,57.73,126.19,61.57,131.99,63.63z"/>
		<path class="room5" d="M139.31,52.09c-1.33-1.14-6.14-6.78-14.74-5.45c-5.38,0.83-9.91,4.5-10.92,12.87
			c-0.68,5.64,1.39,11.2,5.21,15.3c0.21-0.1,0.42-0.18,0.61-0.31c2.16-1.42,2.39-2.2,2.39-2.21l0.48-4.27
			c-0.02-0.61-0.47-1.15-1.07-1.18c-0.47-0.03-1.04-0.25-1.58-0.96c-1.24-1.62-0.67-4.14,1.81-4.23c1.29-0.05,1.79-0.75,1.98-1.4
			c0.16-0.57,0.76-0.89,1.32-0.69c2.81,1.02,9.74,3.21,14.21,1.95C144.7,59.89,140.65,53.23,139.31,52.09z"/>
		<path class="room6" d="M132.9,68.71l3.45-0.95c0,0-1.64,2.59-4.05,3.25c-2.4,0.66-2.77-1.37-2.77-1.37L132.9,68.71z"/>
	</g>
</g>
<g>
	<g>
		<path class="room0" d="M238.8,307.2l-77.99-44.47c-2.85-1.65-2.49-4.52,0.8-6.42l44.87-25.91c3.29-1.9,8.28-2.11,11.13-0.46
			l77.99,44.47c2.85,1.65,2.49,4.52-0.8,6.42l-44.87,25.91C246.64,308.64,241.65,308.84,238.8,307.2z"/>
		<path class="room010" d="M302.55,259.43L302.55,259.43V77.36l-72.38-18.94l-13.33-7.7c-3.06-1.77-8.4-1.55-11.94,0.49l-12.44,7.18
			l-38.61-0.02l11.43,175.76c-0.09,1.2,0.58,2.35,2.05,3.2l72.23,54.5c3.06,1.77,8.4,1.55,11.94-0.49l48.14-27.79
			C301.69,262.38,302.67,260.85,302.55,259.43z"/>
		<path class="room011" d="M211.3,49.54c-2.24,0.05-4.56,0.62-6.4,1.68l-12.44,7.18l-38.61-0.02v182.56c-0.09,1.2,0.58,2.35,2.05,3.2
			l83.66,47.71c1.47,0.85,3.47,1.23,5.54,1.18l0.86-183.7L211.3,49.54z"/>
		<path class="room012" d="M240.34,292.22c2.64,1.13,6.46,1.07,9.54-0.11V107.15h-9.54V292.22z"/>
		<path class="room011" d="M239.57,109.34l-83.66-47.71c-3.06-1.77-2.68-4.85,0.86-6.89l48.14-27.79c3.53-2.04,8.88-2.26,11.94-0.49
			l83.66,47.71c3.06,1.77,2.68,4.85-0.86,6.89l-48.14,27.79C247.98,110.89,242.63,111.11,239.57,109.34z"/>
		<path class="room013" d="M299.65,77.67l-48.14,27.79c-3.53,2.04-8.88,2.26-11.94,0.49l-83.66-47.71c-0.68-0.39-1.18-0.86-1.53-1.35
			c-1.05,1.69-0.57,3.53,1.53,4.74l83.66,47.71c3.06,1.77,8.4,1.54,11.94-0.49l48.14-27.79c2.75-1.58,3.58-3.8,2.38-5.54
			C301.55,76.29,300.75,77.03,299.65,77.67z"/>
		<g>
			<path class="room2" d="M241.94,90.01l-55.7-32.29c-1.43-0.83-1.25-2.27,0.4-3.23l22.53-13.01c1.65-0.95,4.15-1.06,5.59-0.23
				l55.7,32.29c1.43,0.83,1.25,2.27-0.4,3.23l-22.53,13.01C245.87,90.73,243.37,90.84,241.94,90.01z"/>
			<g>
				<path class="room011" d="M211.87,59.17l-3.23-1.86c-0.2-0.11-0.17-0.31,0.06-0.45l3.12-1.8c0.23-0.13,0.57-0.15,0.77-0.03
					l3.23,1.86c0.2,0.11,0.17,0.31-0.06,0.45l-3.12,1.8C212.41,59.27,212.07,59.28,211.87,59.17z"/>
				<path class="room011" d="M222.65,65.37l-3.23-1.86c-0.2-0.11-0.17-0.31,0.06-0.45l3.12-1.8c0.23-0.13,0.57-0.15,0.77-0.03
					l3.23,1.86c0.2,0.11,0.17,0.31-0.06,0.45l-3.12,1.8C223.19,65.47,222.85,65.49,222.65,65.37z"/>
				<path class="room011" d="M233.43,71.57l-3.23-1.86c-0.2-0.11-0.17-0.31,0.06-0.45l3.12-1.8c0.23-0.13,0.57-0.15,0.77-0.03
					l3.23,1.86c0.2,0.11,0.17,0.31-0.06,0.45l-3.12,1.8C233.98,71.67,233.63,71.69,233.43,71.57z"/>
				<path class="room011" d="M244.22,77.77l-3.23-1.86c-0.2-0.11-0.17-0.31,0.06-0.45l3.12-1.8c0.23-0.13,0.57-0.15,0.77-0.03
					l3.23,1.86c0.2,0.11,0.17,0.31-0.06,0.45l-3.12,1.8C244.76,77.87,244.42,77.89,244.22,77.77z"/>
			</g>
			<path class="room012" d="M186.24,57.72l0.07,0.04c0.11-0.08,0.21-0.16,0.34-0.23l22.53-13.01c1.65-0.95,4.15-1.06,5.59-0.23
				l55.64,32.25c1.32-0.94,1.39-2.23,0.07-2.99l-55.7-32.29c-1.43-0.83-3.93-0.72-5.59,0.23L186.64,54.5
				C184.98,55.45,184.81,56.89,186.24,57.72z"/>
		</g>
		<g>
			<path class="room012" d="M230.33,145.42l-61.82-35.69c-1.78-1.03-3.23-3.79-3.23-6.17V92.23c0-2.38,1.44-3.47,3.23-2.44l61.82,35.69
				c1.78,1.03,3.23,3.79,3.23,6.17v11.33C233.56,145.35,232.11,146.45,230.33,145.42z"/>
			<g>
				<path class="room2" d="M225.65,135.4l-2.91-1.68c-0.39-0.22-0.7-0.83-0.7-1.34v-3.1c0-0.52,0.31-0.76,0.7-0.53l2.91,1.68
					c0.39,0.22,0.7,0.83,0.7,1.34v3.1C226.36,135.39,226.04,135.63,225.65,135.4z"/>
				<path class="room2" d="M215.94,129.8l-2.91-1.68c-0.39-0.22-0.7-0.83-0.7-1.34v-3.1c0-0.52,0.31-0.76,0.7-0.53l2.91,1.68
					c0.39,0.22,0.7,0.83,0.7,1.34v3.1C216.64,129.78,216.33,130.02,215.94,129.8z"/>
			</g>
		</g>
		<g>
			<path class="room012" d="M230.33,186.34l-61.82-35.69c-1.78-1.03-3.23-3.79-3.23-6.17v-11.33c0-2.38,1.44-3.47,3.23-2.44
				l61.82,35.69c1.78,1.03,3.23,3.79,3.23,6.17v11.33C233.56,186.27,232.11,187.37,230.33,186.34z"/>
			<g>
				<path class="room2" d="M225.65,176.32l-2.91-1.68c-0.39-0.22-0.7-0.83-0.7-1.34v-3.1c0-0.52,0.31-0.76,0.7-0.53l2.91,1.68
					c0.39,0.22,0.7,0.83,0.7,1.34v3.1C226.36,176.31,226.04,176.55,225.65,176.32z"/>
				<path class="room011" d="M215.94,170.72l-2.91-1.68c-0.39-0.22-0.7-0.83-0.7-1.34v-3.1c0-0.52,0.31-0.76,0.7-0.53l2.91,1.68
					c0.39,0.22,0.7,0.83,0.7,1.34v3.1C216.64,170.7,216.33,170.94,215.94,170.72z"/>
			</g>
		</g>
		<g>
			<path class="room012" d="M230.33,227.26l-61.82-35.69c-1.78-1.03-3.23-3.79-3.23-6.17v-11.33c0-2.38,1.44-3.47,3.23-2.44
				l61.82,35.69c1.78,1.03,3.23,3.79,3.23,6.17v11.33C233.56,227.19,232.11,228.29,230.33,227.26z"/>
			<g>
				<path class="room011" d="M225.65,217.25l-2.91-1.68c-0.39-0.22-0.7-0.83-0.7-1.34v-3.1c0-0.52,0.31-0.76,0.7-0.53l2.91,1.68
					c0.39,0.22,0.7,0.83,0.7,1.34v3.1C226.36,217.23,226.04,217.47,225.65,217.25z"/>
				<path class="room2" d="M215.94,211.64l-2.91-1.68c-0.39-0.22-0.7-0.83-0.7-1.34v-3.1c0-0.52,0.31-0.76,0.7-0.53l2.91,1.68
					c0.39,0.22,0.7,0.83,0.7,1.34v3.1C216.64,211.62,216.33,211.86,215.94,211.64z"/>
			</g>
		</g>
		<g>
			<path class="room012" d="M230.33,268.18l-61.82-35.69c-1.78-1.03-3.23-3.79-3.23-6.17v-11.33c0-2.38,1.44-3.47,3.23-2.44
				l61.82,35.69c1.78,1.03,3.23,3.79,3.23,6.17v11.33C233.56,268.11,232.11,269.21,230.33,268.18z"/>
			<g>
				<path class="room011" d="M225.65,258.17l-2.91-1.68c-0.39-0.22-0.7-0.83-0.7-1.34v-3.1c0-0.52,0.31-0.76,0.7-0.53l2.91,1.68
					c0.39,0.22,0.7,0.83,0.7,1.34v3.1C226.36,258.15,226.04,258.39,225.65,258.17z"/>
				<path class="room011" d="M215.94,252.56l-2.91-1.68c-0.39-0.22-0.7-0.83-0.7-1.34v-3.1c0-0.52,0.31-0.76,0.7-0.53l2.91,1.68
					c0.39,0.22,0.7,0.83,0.7,1.34v3.1C216.64,252.54,216.33,252.78,215.94,252.56z"/>
			</g>
		</g>
	</g>
	<g>
		<path class="room2" d="M260.91,145.42l31.67-18.13c1.78-1.03,3.23-3.79,3.23-6.17v-11.33c0-2.38-1.44-3.47-3.23-2.44l-31.67,18.13
			c-1.78,1.03-3.23,3.79-3.23,6.17v11.33C257.68,145.35,259.13,146.45,260.91,145.42z"/>
		<path class="room2" d="M260.91,186.34l31.67-18.13c1.78-1.03,3.23-3.79,3.23-6.17v-11.33c0-2.38-1.44-3.47-3.23-2.44l-31.67,18.13
			c-1.78,1.03-3.23,3.79-3.23,6.17v11.33C257.68,186.27,259.13,187.37,260.91,186.34z"/>
		<path class="room2" d="M260.91,227.26l31.67-18.13c1.78-1.03,3.23-3.79,3.23-6.17v-11.33c0-2.38-1.44-3.47-3.23-2.44l-31.67,18.13
			c-1.78,1.03-3.23,3.79-3.23,6.17v11.33C257.68,227.19,259.13,228.29,260.91,227.26z"/>
		<path class="room2" d="M260.91,268.18l31.67-18.13c1.78-1.03,3.23-3.79,3.23-6.17v-11.33c0-2.38-1.44-3.47-3.23-2.44l-31.67,18.13
			c-1.78,1.03-3.23,3.79-3.23,6.17v11.33C257.68,268.11,259.13,269.21,260.91,268.18z"/>
	</g>
</g>
<g>
	<path class="room0" d="M59.92,298.66l-24.94-14.4c-1.53-0.88-1.34-2.43,0.43-3.45l24.08-13.9c1.77-1.02,4.44-1.13,5.97-0.25
		l24.94,14.4c1.53,0.88,1.34,2.43-0.43,3.45l-24.08,13.9C64.13,299.44,61.45,299.55,59.92,298.66z"/>
	<g>
		<path class="room5" d="M98.68,270.1L98.68,270.1v-10.78l-24.16-0.01l-8.35-4.82c-1.92-1.11-5.26-0.97-7.48,0.31l-7.79,4.5
			l-24.18-0.01v11.08c-0.05,0.75,0.36,1.47,1.28,2l31.23,18.03c1.92,1.11,5.26,0.97,7.48-0.31l30.15-17.41
			C98.13,271.94,98.75,270.99,98.68,270.1z"/>
		<path class="room5" d="M62.69,253.75c-1.4,0.03-2.86,0.39-4.01,1.05l-7.79,4.5l-24.18-0.01v11.08c-0.05,0.75,0.36,1.47,1.28,2
			l31.23,18.03c0.92,0.53,2.17,0.77,3.47,0.74V253.75z"/>
		<path class="room1" d="M29.45,259.28l-2.74,0v11.08c-0.05,0.75,0.36,1.47,1.28,2l1.45,0.84V259.28z"/>
		<path class="room1" d="M59.71,290.63c1.65,0.71,4.04,0.67,5.98-0.07v-12.58h-5.98V290.63z"/>
		<path class="room014" d="M59.22,279.36l-31.23-18.03c-1.92-1.11-1.68-3.04,0.54-4.32l30.15-17.41c2.21-1.28,5.56-1.42,7.48-0.31
			l31.23,18.03c1.92,1.11,1.68,3.04-0.54,4.32L66.7,279.05C64.49,280.32,61.14,280.46,59.22,279.36z"/>
		<path class="room015" d="M59.79,276.11L33.62,261c-1.61-0.93-1.4-2.55,0.45-3.62l25.27-14.59c1.85-1.07,4.66-1.19,6.27-0.26
			l26.17,15.11c1.61,0.93,1.4,2.55-0.45,3.62l-25.27,14.59C64.2,276.92,61.39,277.04,59.79,276.11z"/>
		<g>
			<path class="room014" d="M87.19,272.94c0,0.8-0.56,1.78-1.26,2.18c-0.7,0.4-1.26,0.08-1.26-0.73c0-0.8,0.56-1.78,1.26-2.18
				C86.63,271.81,87.19,272.14,87.19,272.94z"/>
			<path class="room014" d="M91.25,270.6c0,0.8-0.56,1.78-1.26,2.18c-0.7,0.4-1.26,0.08-1.26-0.73s0.56-1.78,1.26-2.18
				C90.68,269.47,91.25,269.79,91.25,270.6z"/>
			<path class="room014" d="M95.31,268.26c0,0.8-0.56,1.78-1.26,2.18c-0.7,0.4-1.26,0.08-1.26-0.73c0-0.8,0.56-1.78,1.26-2.18
				C94.74,267.12,95.31,267.45,95.31,268.26z"/>
		</g>
	</g>
	<g>
		<path class="room5" d="M98.68,252.62L98.68,252.62v-10.78l-24.16-0.01l-8.35-4.82c-1.92-1.11-5.26-0.97-7.48,0.31l-7.79,4.5
			l-24.18-0.01v11.08c-0.05,0.75,0.36,1.47,1.28,2l31.23,18.03c1.92,1.11,5.26,0.97,7.48-0.31l30.15-17.41
			C98.13,254.47,98.75,253.51,98.68,252.62z"/>
		<path class="room5" d="M62.69,236.27c-1.4,0.03-2.86,0.39-4.01,1.05l-7.79,4.5l-24.18-0.01v11.08c-0.05,0.75,0.36,1.47,1.28,2
			l31.23,18.03c0.92,0.53,2.17,0.77,3.47,0.74V236.27z"/>
		<path class="room1" d="M29.45,241.81l-2.74,0v11.08c-0.05,0.75,0.36,1.47,1.28,2l1.45,0.84V241.81z"/>
		<path class="room1" d="M59.71,273.16c1.65,0.71,4.04,0.67,5.98-0.07v-12.58h-5.98V273.16z"/>
		<path class="room014" d="M59.22,261.88l-31.23-18.03c-1.92-1.11-1.68-3.04,0.54-4.32l30.15-17.41c2.21-1.28,5.56-1.42,7.48-0.31
			l31.23,18.03c1.92,1.11,1.68,3.04-0.54,4.32L66.7,261.57C64.49,262.85,61.14,262.99,59.22,261.88z"/>
		<path class="room015" d="M59.79,258.64l-26.17-15.11c-1.61-0.93-1.4-2.55,0.45-3.62l25.27-14.59c1.85-1.07,4.66-1.19,6.27-0.26
			l26.17,15.11c1.61,0.93,1.4,2.55-0.45,3.62l-25.27,14.59C64.2,259.45,61.39,259.56,59.79,258.64z"/>
		<g>
			<path class="room014" d="M87.19,255.47c0,0.8-0.56,1.78-1.26,2.18c-0.7,0.4-1.26,0.08-1.26-0.73c0-0.8,0.56-1.78,1.26-2.18
				C86.63,254.34,87.19,254.66,87.19,255.47z"/>
			<path class="room014" d="M91.25,253.12c0,0.8-0.56,1.78-1.26,2.18c-0.7,0.4-1.26,0.08-1.26-0.73s0.56-1.78,1.26-2.18
				C90.68,251.99,91.25,252.32,91.25,253.12z"/>
			
				<ellipse transform="matrix(0.5 -0.866 0.866 0.5 -170.7866 207.1867)" class="room014" cx="94.05" cy="251.51" rx="1.78" ry="1.03"/>
		</g>
	</g>
	<g>
		<path class="room5" d="M98.68,235.15L98.68,235.15v-10.78l-24.16-0.01l-8.35-4.82c-1.92-1.11-5.26-0.97-7.48,0.31l-7.79,4.5
			l-24.18-0.01v11.08c-0.05,0.75,0.36,1.47,1.28,2l31.23,18.03c1.92,1.11,5.26,0.97,7.48-0.31l30.15-17.41
			C98.13,236.99,98.75,236.04,98.68,235.15z"/>
		<path class="room5" d="M62.69,218.79c-1.4,0.03-2.86,0.39-4.01,1.05l-7.79,4.5l-24.18-0.01v11.08c-0.05,0.75,0.36,1.47,1.28,2
			l31.23,18.03c0.92,0.53,2.17,0.77,3.47,0.74V218.79z"/>
		<path class="room1" d="M29.45,224.33l-2.74,0v11.08c-0.05,0.75,0.36,1.47,1.28,2l1.45,0.84V224.33z"/>
		<path class="room1" d="M59.71,255.68c1.65,0.71,4.04,0.67,5.98-0.07v-12.58h-5.98V255.68z"/>
		<path class="room5" d="M59.22,244.4l-31.23-18.03c-1.92-1.11-1.68-3.04,0.54-4.32l30.15-17.41c2.21-1.28,5.56-1.42,7.48-0.31
			l31.23,18.03c1.92,1.11,1.68,3.04-0.54,4.32L66.7,244.1C64.49,245.37,61.14,245.51,59.22,244.4z"/>
		<path class="room014" d="M96.86,224.56L66.7,241.97c-2.21,1.28-5.56,1.42-7.48,0.31l-31.23-18.03c-0.43-0.25-0.74-0.54-0.96-0.85
			c-0.66,1.06-0.36,2.21,0.96,2.97l31.23,18.03c1.92,1.11,5.26,0.97,7.48-0.31l30.15-17.41c1.72-0.99,2.24-2.38,1.49-3.47
			C98.05,223.7,97.55,224.16,96.86,224.56z"/>
		<g>
			<path class="room014" d="M87.19,237.99c0,0.8-0.56,1.78-1.26,2.18c-0.7,0.4-1.26,0.08-1.26-0.73s0.56-1.78,1.26-2.18
				C86.63,236.86,87.19,237.19,87.19,237.99z"/>
			<path class="room014" d="M91.25,235.65c0,0.8-0.56,1.78-1.26,2.18c-0.7,0.4-1.26,0.08-1.26-0.73s0.56-1.78,1.26-2.18
				C90.68,234.52,91.25,234.84,91.25,235.65z"/>
			<path class="room014" d="M95.31,233.3c0,0.8-0.56,1.78-1.26,2.18c-0.7,0.4-1.26,0.08-1.26-0.73c0-0.8,0.56-1.78,1.26-2.18
				C94.74,232.17,95.31,232.5,95.31,233.3z"/>
		</g>
		<g>
			<path class="room015" d="M61.07,233.71l-14.61-8.44c-0.9-0.52-0.78-1.42,0.25-2.02l14.11-8.15c1.04-0.6,2.6-0.66,3.5-0.15
				l14.61,8.44c0.9,0.52,0.78,1.42-0.25,2.02l-14.11,8.15C63.53,234.16,61.97,234.22,61.07,233.71z"/>
			<path class="room014" d="M62.47,226.64l-2.02-1.17c-0.12-0.07-0.11-0.2,0.03-0.28l1.95-1.13c0.14-0.08,0.36-0.09,0.48-0.02
				l2.02,1.17c0.12,0.07,0.11,0.2-0.03,0.28l-1.95,1.13C62.81,226.7,62.59,226.71,62.47,226.64z"/>
			<path class="room014" d="M71.43,235.9l-2.02-1.17c-0.12-0.07-0.11-0.2,0.03-0.28l1.95-1.13c0.14-0.08,0.36-0.09,0.48-0.02l2.02,1.17
				c0.12,0.07,0.11,0.2-0.03,0.28l-1.95,1.13C71.77,235.96,71.55,235.97,71.43,235.9z"/>
			<path class="room014" d="M75.84,233.33l-2.02-1.17c-0.12-0.07-0.11-0.2,0.03-0.28l1.95-1.13c0.14-0.08,0.36-0.09,0.48-0.02
				l2.02,1.17c0.12,0.07,0.11,0.2-0.03,0.28l-1.95,1.13C76.19,233.39,75.97,233.4,75.84,233.33z"/>
			<path class="room014" d="M80.26,230.75l-2.02-1.17c-0.12-0.07-0.11-0.2,0.03-0.28l1.95-1.13c0.14-0.08,0.36-0.09,0.48-0.02
				l2.02,1.17c0.12,0.07,0.11,0.2-0.03,0.28l-1.95,1.13C80.6,230.81,80.39,230.82,80.26,230.75z"/>
			<path class="room1" d="M46.46,225.27l0.04,0.02c0.07-0.05,0.13-0.1,0.21-0.14L60.82,217c1.04-0.6,2.6-0.66,3.5-0.15l14.57,8.41
				c0.83-0.59,0.87-1.4,0.04-1.88l-14.61-8.44c-0.9-0.52-2.46-0.45-3.5,0.15l-14.11,8.15C45.67,223.85,45.56,224.75,46.46,225.27z"
				/>
		</g>
	</g>
	<path class="room015" d="M49.89,264.16l-12.64-7.3c-0.78-0.45-1.41-1.66-1.41-2.7l0,0c0-1.04,0.63-1.52,1.41-1.07l12.64,7.3
		c0.78,0.45,1.41,1.66,1.41,2.7l0,0C51.3,264.13,50.67,264.61,49.89,264.16z"/>
	<path class="room014" d="M51.02,263.46l-12.64-7.3c-0.78-0.45-1.41-1.66-1.41-2.7c0-0.18,0.02-0.33,0.06-0.47
		c-0.67-0.24-1.19,0.23-1.19,1.17c0,1.04,0.63,2.25,1.41,2.7l12.64,7.3c0.65,0.37,1.19,0.1,1.35-0.6
		C51.17,263.53,51.1,263.51,51.02,263.46z"/>
</g>
<g>
	<path class="room2" d="M334.74,287.74c2.22,0.95,3.61,3.42,3.43,6.07c-0.09,1.25-0.24,2.42-0.5,2.97c-0.7,1.48-3.02,3.51-6.7,2.05
		c-3.69-1.46-11.88-9.15-12.18-14.19C318.21,275.28,328.91,285.25,334.74,287.74z"/>
	<path class="room2" d="M313.08,303.21c0,0,0.88,5.39,0.45,6.38c-0.43,0.99-3,3.1-6.79,2.64c-3.79-0.46-14.7-4.22-17.13-11.41
		c-3.77-11.15,21.06,0.84,21.06,0.84L313.08,303.21z"/>
	<path class="room3" d="M302.42,216.97l-0.84,84.22c0.09,2.93,2.01,5.4,4.59,5.84c0.32,0.05,0.66,0.1,1.03,0.13
		c2.61,0.23,4.13-0.89,5-2.07c0.7-0.95,1.07-2.16,1.13-3.4l1.08-35.95l5.37-32.14l7.43,56.89c0.12,1.54,0.86,2.96,2.04,3.75
		c0.82,0.54,1.93,0.96,3.39,0.92c2.13-0.06,3.6-1.2,4.5-2.22c0.71-0.8,1.09-1.91,1.07-3.05l-2.94-34.23l-1.1-43.66L302.42,216.97z"
		/>
	<path class="room4" d="M337.59,189.31c-0.15,0-0.31-0.01-0.46-0.04l-13.45-2.08c-1.65-0.26-2.78-1.8-2.53-3.45
		c0.26-1.65,1.81-2.78,3.45-2.53l9.28,1.44l-3.17-18.14c-0.29-1.65,0.81-3.21,2.46-3.5c1.64-0.29,3.21,0.81,3.5,2.46l3.89,22.3
		c0.17,0.96-0.14,1.94-0.82,2.64C339.18,188.99,338.4,189.31,337.59,189.31z"/>
	<path class="room8" d="M325.31,146.28c0,0,4.5-0.26,10.29,11.67c5.8,11.94-2.14,15.71-2.14,15.71L325.31,146.28z"/>
	<path class="room8" d="M312.97,149.4c0.2-0.08,12.4-7.94,16.91,0.28c7.35,13.4,6.92,56.56,4.6,62.14
		c-2.15,5.17-7.51,8.99-11.28,11.14c-3.35,1.91-7.09,3.08-10.94,3.11c-3.81,0.03-11.12-3.36-10.86-8.34
		c1.22-22.92-0.81-42.25-2.68-61C298.73,156.74,301.07,154.22,312.97,149.4z"/>
	<g>
		<path class="room4" d="M293.73,196.21c0.35-0.02,0.69-0.1,1.02-0.26c0.89-0.43,1.53-1.34,1.68-2.42l5.8-16.91
			c0.26-1.75-2.79-8.56-4.35-8.85c-1.56-0.29-5.5,2.8-5.76,4.55l-1.43,15.11l-14.32-7.04c-1.49-0.78-2.72-2.37-3.59-0.9
			c-0.88,1.47-0.53,3.46,0.78,4.45l18.45,11.74C292.53,196.06,293.13,196.24,293.73,196.21z"/>
	</g>
	<path class="room4" d="M275.27,179.83l-0.9-2.2c-0.32-0.79-0.82-1.5-1.45-2.08l-3.78-3.48c-0.32-0.29-0.82-0.25-1.09,0.1l0,0
		c-0.21,0.28-0.19,0.68,0.05,0.94l1.58,1.71c0.26,0.28,0.34,0.68,0.21,1.04l-0.6,1.68c-0.2,0.56-0.09,1.19,0.29,1.65l3.79,4.59
		L275.27,179.83z"/>
	<path class="room8" d="M298.73,156.74c0,0-8.14,6.28-9.4,25.39c0,0-0.18,2.12,4.53,3.39c4.71,1.27,7.92-2.37,7.92-2.37
		S307.27,170.46,298.73,156.74z"/>
	<path class="room4" d="M314.09,142.02l1.33,7.67c0,0,0.05,2.62-2.87,3.34c-2.92,0.73-3.83-1.16-3.83-1.16l-1.32-8.64L314.09,142.02z"
		/>
	
		<ellipse transform="matrix(0.8945 -0.4471 0.4471 0.8945 -28.8179 152.2655)" class="room4" cx="308.16" cy="137.18" rx="11.11" ry="12.48"/>
	<path class="room5" d="M306.17,141.16c-0.46,0.07-0.93-0.06-1.25-0.4c-0.57-0.58-0.81-3.67-2.3-3.93c-2.33-0.41-7.08,3.24-9-4.59
		c-1-4.07,0.82-5.51,0.42-7.77c0,0,0.02,1.16,10.51-1.37c10.49-2.53,15.56,6.29,16.58,10.74c1.02,4.44,0.12,12.19-6.95,14.46
		c-1.17,0.38-6.92-2.82-6.88-3.37c0.04-0.55,1.95-0.85,1.41-2.36C308.25,141.32,307.38,140.98,306.17,141.16z"/>
	<path class="room9" d="M319.76,233.59l7.43,56.89c0.12,1.54,0.86,2.96,2.04,3.75c0.19,0.13,0.41,0.25,0.63,0.36
		c-1.54-1.16-6.04-48.91-6.88-54.22C322.15,235.05,319.76,233.59,319.76,233.59z"/>
</g>
<path class="room5" d="M301.12,183.77l0,0.19c0.67,10.55,0.93,21.66,0.29,33.77c-0.11,1.97,0.99,3.69,2.57,5.05
	c1.86-23.22,0-43.44,0-43.44C302.98,182.76,301.12,183.77,301.12,183.77z"/>
<g>
	<ellipse class="room0" cx="163.7" cy="308.31" rx="30.63" ry="17.69"/>
	<g>
		<g>
			<path class="room8" d="M176.13,298.84c-0.77-0.44-1.59-0.83-2.45-1.17l0.02,0l-4.72-2.09l0.36,0.82
				c-3.58-0.71-7.46-0.76-11.07-0.12l0.22-0.92l-5.55,2.46l0.03,0c-0.72,0.31-1.42,0.64-2.08,1.01c-6.97,4.02-6.97,10.55,0,14.58
				c6.97,4.02,18.27,4.02,25.25,0C183.1,309.39,183.1,302.86,176.13,298.84z"/>
			<path class="room016" d="M169.42,302.64c-3.27,1.89-8.56,1.89-11.83,0c-3.27-1.89-3.27-4.94,0-6.83c3.27-1.89,8.56-1.89,11.83,0
				C172.68,297.7,172.68,300.75,169.42,302.64z"/>
		</g>
		<g>
			<path class="room8" d="M163.5,300.53L163.5,300.53c-1.57,0-2.84-1.27-2.84-2.84v-35.95h5.69v35.95
				C166.35,299.25,165.07,300.53,163.5,300.53z"/>
			<path class="room5" d="M165.5,263.04c-1.13,0.65-2.97,0.65-4.1,0c-1.13-0.65-1.13-1.72,0-2.37c1.13-0.65,2.97-0.65,4.11,0
				C166.64,261.32,166.64,262.39,165.5,263.04z"/>
		</g>
		<path class="room8" d="M163.5,262.97L163.5,262.97c-1.27,0-2.31-1.03-2.31-2.31v-33.79h4.61v33.79
			C165.81,261.94,164.78,262.97,163.5,262.97z"/>
		<g>
			<path class="room5" d="M196.65,244.58l0-1.32l1.87-0.27l2.09-1.57c0.34-0.25,0.99-0.28,1.38-0.05l1.54,0.89l1.53-0.22v1.34l-0.01,0
				c-0.01,0.15-0.12,0.3-0.35,0.4l-4.87,2.17c-0.39,0.17-0.93,0.15-1.28-0.05l-1.62-0.94C196.75,244.86,196.66,244.72,196.65,244.58
				L196.65,244.58z"/>
			<path class="room016" d="M196.85,242.9l3.76-2.81c0.34-0.25,0.99-0.28,1.38-0.05l2.81,1.62c0.39,0.23,0.35,0.6-0.09,0.8l-4.87,2.17
				c-0.39,0.17-0.93,0.15-1.28-0.05l-1.62-0.94C196.59,243.44,196.55,243.12,196.85,242.9z"/>
			<g>
				<path class="room8" d="M190.51,249.28c0.54,0,1.08-0.12,1.51-0.37l5.84-3.38c0.32-0.19,0.43-0.6,0.25-0.92
					c-0.19-0.32-0.6-0.43-0.92-0.25l-5.84,3.37c-0.43,0.25-1.23,0.25-1.66,0l-9.71-5.63c-0.32-0.19-0.73-0.08-0.92,0.25
					c-0.19,0.32-0.08,0.74,0.25,0.92l9.71,5.63C189.43,249.16,189.97,249.28,190.51,249.28z"/>
			</g>
		</g>
		<g>
			<radialGradient id="SVGID_1_" cx="72.2578" cy="229.9328" r="57.9257" gradientUnits="userSpaceOnUse">
				<stop  offset="0" style="stop-color:#01C8EF"/>
				<stop  offset="0.0894" style="stop-color:#03BEE9"/>
				<stop  offset="0.2388" style="stop-color:#08A5D7"/>
				<stop  offset="0.4288" style="stop-color:#107BBB"/>
				<stop  offset="0.4457" style="stop-color:#1177B8"/>
				<stop  offset="1" style="stop-color:#112564"/>
			</radialGradient>
			<polygon class="room017" points="134.32,236.92 143.7,231.47 138.44,229.09 133.95,232.28 			"/>
			<path class="room8" d="M194.58,228.82c-0.52-0.27-1.05-0.59-1.58-0.98l-20-14.65c-3.61-2.65-7.33-3.33-10.2-1.87
				c-0.07,0.04-0.14,0.09-0.21,0.13l-0.02-0.01l-27.62,16.02l2.48,0.83l9.67,4.39l13.16,9.33l10.38,5.51l0.47,0.1
				c2.42-2.04,5.13-3.79,6.62-6.76c2.57-4.5,9.73-5.79,13.94-9.43c0.42,0.27,0.85,0.52,1.27,0.74
				C193.81,231.31,194.05,230.1,194.58,228.82z"/>
			<path class="room5" d="M203.35,222.22c-0.43,0-0.82,0.15-1.13,0.4l0-0.01l-27.02,15.64l0.99,4.04l1.01-0.48
				c-1.55,2.41-3.92,4-6.07,5.81l3.05,0.65l26.47-15.4c0.12-0.05,0.25-0.1,0.37-0.16c0.36-0.18,0.7-0.4,1.02-0.65l0.05-0.03l-0.02,0
				c2.01-1.56,3.15-4.26,3.15-7.64v-0.32C205.2,223.05,204.37,222.22,203.35,222.22z"/>
			<g>
				<path class="room018" d="M166.34,210.57c1.69,0.06,3.49,0.64,5.31,1.72C169.83,211.21,168.03,210.63,166.34,210.57z"/>
				<path class="room016" d="M178.65,239.51v-0.32c0-1.03-0.83-1.86-1.86-1.86c-1.03,0-1.86,0.83-1.86,1.86v0.32
					c0,2.48-0.79,4.31-2.17,5c-1.56,0.79-3.92,0.21-6.33-1.55l-20-14.65c-3.08-2.26-6.23-3.07-8.87-2.36l16.51-9.58l-19.14,11.1
					l2.48,0.83l9.67,4.39l13.16,9.33l10.38,5.51l0.47,0.1c2.42-2.04,5.13-3.79,6.62-6.76c0.26-0.45,0.57-0.86,0.91-1.25
					C178.64,239.58,178.65,239.54,178.65,239.51z"/>
			</g>
			<g>
				<path class="room5" d="M170.63,249.18c-2.19,0-4.6-0.89-6.96-2.62l-20-14.65c-2.4-1.76-4.77-2.34-6.33-1.55
					c-1.38,0.7-2.17,2.52-2.17,5c0,1.03-0.83,1.86-1.86,1.86c-1.03,0-1.86-0.83-1.86-1.86c0-3.93,1.53-6.96,4.2-8.32
					c2.87-1.45,6.59-0.77,10.2,1.87l20,14.65c2.4,1.76,4.77,2.34,6.33,1.55c1.38-0.7,2.17-2.52,2.17-5v-0.32
					c0-1.03,0.83-1.86,1.86-1.86s1.86,0.83,1.86,1.86v0.32c0,3.93-1.53,6.96-4.2,8.32C172.88,248.93,171.79,249.18,170.63,249.18z"
					/>
			</g>
		</g>
	</g>
	<g>
		<g>
			<path class="room2" d="M154.92,281.94c0,0-3.77-1.9-6.08,0.93c-2.31,2.83-5.62,9.5-5.72,14.02c-0.1,4.51,3.57,4.21,5.75,3.14
				c2.18-1.07,8.56-10.32,8.95-12.13c0.39-1.81-0.46-4.26-1.07-4.74C156.14,282.67,154.92,281.94,154.92,281.94z"/>
			<path class="room019" d="M155.74,281.03l0.17,3.9c0.04,0.83-0.38,1.62-1.1,2.03c-0.66,0.37-1.61,0.66-2.91,0.45
				c-2.84-0.46-3.09-1.27-3.29-5.17C148.41,278.34,155.74,281.03,155.74,281.03z"/>
			<g>
				<path class="room2" d="M141.13,274.43c0,0-3.77-1.9-6.08,0.93c-2.31,2.83-5.62,9.5-5.72,14.01c-0.1,4.51,3.57,4.21,5.75,3.14
					c2.18-1.07,8.56-10.32,8.95-12.13c0.39-1.81-0.46-4.26-1.07-4.74C142.35,275.16,141.13,274.43,141.13,274.43z"/>
				<path class="room019" d="M141.96,273.53l0.17,3.9c0.04,0.83-0.38,1.62-1.1,2.03c-0.66,0.37-1.61,0.66-2.91,0.45
					c-2.84-0.46-3.09-1.27-3.29-5.17C134.63,270.84,141.96,273.53,141.96,273.53z"/>
				<path class="room3" d="M175.56,201.89c-1.11-18.14-19.64,2.67-19.64,2.67l-12.68,12.43l-11.42,12.54
					c-2.23,2.45-3.27,5.76-2.84,9.04l4.62,35.17c0.23,1.74,1.71,3.02,3.47,3c0.49,0,1.06-0.05,1.71-0.15
					c4.12-0.64,3.82-4.56,3.82-4.56l-0.84-32.9l23.98-14.46C165.73,224.69,176.67,220.03,175.56,201.89z"/>
			</g>
			<path class="room3" d="M189.35,208.8c-1.11-18.14-19.64,2.67-19.64,2.67l-12.68,12.43l-11.42,12.54c-2.23,2.45-3.27,5.76-2.84,9.04
				l4.62,35.17c0.23,1.74,1.71,3.02,3.47,3c0.49,0,1.06-0.05,1.71-0.15c4.12-0.64,3.82-4.56,3.82-4.56l-0.84-32.9l23.98-14.46
				C179.52,231.6,190.46,226.94,189.35,208.8z"/>
			<path class="room8" d="M178.39,150.59c14.05,5.82,13.76,14.13,13.76,14.13s-2.75,30.44-1.81,50.77c0.39,8.5-45.15,9.15-38.36-13.53
				c8.01-26.73,5.01-48.37,8.76-51.64C164.48,147.05,174.75,149.08,178.39,150.59z"/>
			
				<ellipse transform="matrix(0.2494 -0.9684 0.9684 0.2494 -19.1894 287.5235)" class="room4" cx="175.89" cy="156.14" rx="5.33" ry="7.24"/>
			<path class="room6" d="M176.96,162.29c-0.84,0-1.71-0.11-2.57-0.33c-4.23-1.09-6.99-4.58-6.17-7.79c0.83-3.21,4.94-4.93,9.16-3.84
				c4.23,1.09,6.99,4.58,6.17,7.79l0,0c-0.41,1.59-1.62,2.86-3.39,3.58C179.18,162.09,178.09,162.29,176.96,162.29z M174.81,151.34
				c-2.61,0-4.79,1.21-5.29,3.16c-0.64,2.49,1.69,5.25,5.2,6.15c1.73,0.45,3.49,0.37,4.93-0.21c1.37-0.55,2.29-1.5,2.6-2.67l0,0
				c0.64-2.49-1.69-5.25-5.2-6.15C176.29,151.43,175.54,151.34,174.81,151.34z"/>
			<path class="room4" d="M172.75,149.95c0,0,0.12,0.56-0.12,5.01c-0.08,1.4,4.82,2.71,6.09,1.44c1.27-1.27,0.76-2.58,1.06-7.35
				C180.09,144.3,172.75,149.95,172.75,149.95z"/>
			<path class="room7" d="M179.79,149.06c0,0-1.21,4.42-7.15,6.11l0.09-4.01L179.79,149.06z"/>
			
				<ellipse transform="matrix(0.8425 -0.5388 0.5388 0.8425 -48.4545 115.3965)" class="room4" cx="173.09" cy="140.55" rx="10.81" ry="10.81"/>
			<path class="room7" d="M175.57,140.95c0,0-5.95,2.55-10.07,2.58c-4.12,0.03-3.21-3.42-3.21-3.42l12.24-1.77L175.57,140.95z"/>
			<path class="room5" d="M164.27,141.62c0,0,5.19-2.2,9.73-1.28c1.07,0.22,2.06,0.79,2.75,1.63c0.23,0.28,0.51,0.53,0.83,0.6
				c0.81,0.18,2.13-3.16,3.7-3.24c1.57-0.08,2.61,1.03,1.33,3.09c-1.29,2.06-0.85,4.36-0.26,4.69c0.59,0.33,6.87-4.47,1.33-15.44
				c-5.53-10.96-19.59-5.06-21.78-2.84c0,0-2.3,2.01-4.18,0.22C157.72,129.06,155.62,144.79,164.27,141.62z"/>
			<path class="room4" d="M184.27,186.95v8.22c0,0.94-0.4,1.84-1.09,2.48l-16.9,15.4l1.92,2.94l22.32-14.95
				c1.04-0.76,1.71-1.92,1.85-3.2l1.51-15.58L184.27,186.95z"/>
			<path class="room8" d="M190.96,160.6c0,0,5.13,7.71,7.04,28c0,0-8.76,2.83-13.73,1.22C179.3,188.22,190.96,160.6,190.96,160.6z"/>
			<path class="room5" d="M183.33,170.35c0,0-2.01,10.74-2.12,15.79c-0.03,1.39,0.82,2.64,2.12,3.11l0,0V170.35z"/>
		</g>
		<g>
			<path class="room2" d="M178.95,223.75l-3.73-0.49l-24.11-13.92c-0.77-0.45-2.12-0.39-3.02,0.12l-17.08,9.86l-2.26-0.3v2.25l0,0
				c-0.01,0.3,0.15,0.58,0.52,0.79l27.32,15.77c0.77,0.45,2.12,0.39,3.02-0.12l18.6-10.74c0.5-0.29,0.75-0.66,0.74-1.01l0,0V223.75z
				"/>
			<path class="room010" d="M160.84,214.96l-1.71-0.99H140.3l-9.28,5.36l-2.26-0.3v2.25l0,0c-0.01,0.3,0.15,0.58,0.52,0.79l27.32,15.77
				c0.41,0.24,0.98,0.33,1.56,0.29L160.84,214.96z"/>
			<path class="room012" d="M129.76,219.16l-1-0.13v2.25l0,0c-0.01,0.3,0.15,0.58,0.52,0.79l0.48,0.28V219.16z"/>
			<path class="room020" d="M156.87,237.97c0.73,0.28,1.78,0.22,2.56-0.16v-3.82h-2.56V237.97z"/>
			<path class="room6" d="M156.6,235.59l-27.32-15.77c-0.77-0.45-0.68-1.23,0.22-1.74l18.6-10.74c0.89-0.52,2.24-0.57,3.02-0.12
				l27.32,15.77c0.77,0.45,0.68,1.23-0.22,1.74l-18.6,10.74C158.72,235.98,157.37,236.04,156.6,235.59z"/>
			<path class="room011" d="M156.13,233.2l-22.72-13.12c-0.64-0.37-0.56-1.02,0.18-1.45l9.97-5.61c0.74-0.43,1.86-0.47,2.51-0.1
				l22.72,13.12c0.64,0.37,0.56,1.02-0.18,1.45l-9.97,5.61C157.9,233.52,156.78,233.57,156.13,233.2z"/>
		</g>
		<path class="room4" d="M149.15,206.82l-0.28,1.89c-0.24,1.61-0.2,3.24,0.12,4.83l0.34,1.66c0.19,0.94,0.93,1.66,1.87,1.84l0,0
			c0.73,0.13,1.43-0.38,1.51-1.12l0.45-4.03c0,0,1.03,1.35,1.53,1.35c0.5,0-0.56-4.04-1.68-6.32
			C151.88,204.63,149.15,206.82,149.15,206.82z"/>
		<path class="room4" d="M158.41,176.86l-2.93,5.8c-0.69,1.37-1.1,2.87-1.2,4.4l-1.27,19.85l-3.86-0.09l-1.75-22.29
			c-0.05-0.69-0.02-1.38,0.1-2.06l2-11.3L158.41,176.86z"/>
		<g>
			<path class="room2" d="M155.67,237.11l-2.29-2.99l-24.09-13.95c-0.77-0.45-1.4-1.64-1.4-2.68l0.02-19.72l-1.39-1.81l1.3-0.75l0,0
				c0.25-0.16,0.58-0.16,0.94,0.05l27.3,15.81c0.77,0.45,1.4,1.64,1.4,2.68l-0.02,21.48c0,0.58-0.2,0.98-0.51,1.15l0,0
				L155.67,237.11z"/>
			<path class="room010" d="M139.01,225.8l-1.71-0.99l-9.39-16.32l0.01-10.72l-1.39-1.81l1.3-0.75l0,0c0.25-0.16,0.58-0.16,0.94,0.05
				l27.3,15.81c0.41,0.24,0.77,0.68,1.03,1.2L139.01,225.8z"/>
			<path class="room012" d="M127.14,196.77l-0.61-0.8l1.3-0.75l0,0c0.25-0.16,0.58-0.16,0.94,0.05l0.48,0.28L127.14,196.77z"/>
			<path class="room020" d="M156.33,211.25c0.61,0.5,1.08,1.43,1.14,2.3l-2.67,1.54l-1.28-2.22L156.33,211.25z"/>
			<path class="room6" d="M154.78,211.82l-27.3-15.81c-0.77-0.45-1.4,0.03-1.4,1.06l-0.02,21.48c0,1.03,0.62,2.23,1.4,2.68l27.3,15.81
				c0.77,0.45,1.4-0.03,1.4-1.06l0.02-21.48C156.17,213.47,155.55,212.27,154.78,211.82z"/>
		</g>
		<path class="room4" d="M168.2,215.99l-0.44,0.91c-0.5,1.04-1.3,1.92-2.28,2.53l-2.71,1.67c-0.84,0.52-1.91,0.56-2.77,0.06
			c-0.03-0.02-0.06-0.04-0.09-0.06c-0.86-0.54-0.94-1.78-0.23-2.51l2.83-2.91c0,0-1.59,1.22-2.04,0.73
			c-0.33-0.36,1.54-2.12,2.98-2.17c1.44-0.06,2.83-1.19,2.83-1.19L168.2,215.99z"/>
		<path class="room8" d="M161.02,150.27c0,0-10.39,11.3-14.58,21.67c0,0,3.55,6.4,12.25,8.91
			C167.38,183.37,161.02,150.27,161.02,150.27z"/>
		<path class="room5" d="M156.73,180.19l1.68-16.27l-3.97,15.24C155.15,179.53,155.92,179.87,156.73,180.19z"/>
		<path class="room6" d="M168.8,147.99l-2.79-0.77c0,0,1.33,2.1,3.28,2.63c1.95,0.53,2.25-1.11,2.25-1.11L168.8,147.99z"/>
	</g>
</g>
</svg>
