<?xml version="1.0" encoding="utf-8"?>
<!-- Generator: Adobe Illustrator 24.0.0, SVG Export Plug-In . SVG Version: 6.00 Build 0)  -->
<svg version="1.1" id="_x2014_ŽÓť_x5F_1" xmlns="http://www.w3.org/2000/svg" xmlns:xlink="http://www.w3.org/1999/xlink"
	 x="0px" y="0px" viewBox="0 0 313.21 374.66" style="enable-background:new 0 0 313.21 374.66;" xml:space="preserve">
<style type="text/css">
	.ebene0{fill:#B2D3EA;}
	.ebene1{opacity:0.5;fill:#C4D9E8;}
	.ebene2{fill:#38ADA9;}
	.ebene3{fill:#46B2AA;}
	.ebene4{fill:#46CCC5;}
	.ebene5{fill:#2F8984;}
	.ebene6{fill:#396CAA;}
	.ebene6{fill:#D4ECFF;}
	.ebene7{fill:#5793CE;}
	.ebene8{fill:#FAFDFF;}
	.ebene010{fill:#173D7A;}
	.ebene011{fill:#FFFFFF;}
	.ebene012{opacity:0.4;fill:#D4ECFF;}
</style>
<path class="ebene0" d="M38.27,246.23c0.78,0,1.57-0.21,2.26-0.63l13.58-8.14l-0.82-1.37l-13.58,8.14c-0.88,0.53-1.98,0.53-2.86,0.02
	l-22.1-12.93c-0.35-0.21-0.56-0.57-0.55-0.98c0.01-0.41,0.23-0.76,0.59-0.96l29.46-15.77l-0.75-1.41l-29.46,15.77
	c-0.88,0.47-1.41,1.34-1.43,2.34c-0.02,1,0.49,1.89,1.34,2.39l22.1,12.93C36.74,246.02,37.51,246.23,38.27,246.23z"/>
<g>
	<path class="ebene1" d="M69.38,242.68l24.94-14.4c1.53-0.88,1.34-2.43-0.43-3.45l-24.08-13.9c-1.77-1.02-4.44-1.13-5.97-0.25
		l-24.94,14.4c-1.53,0.88-1.34,2.43,0.43,3.45l24.08,13.9C65.17,243.46,67.85,243.57,69.38,242.68z"/>
	<g>
		<path class="ebene2" d="M30.62,214.12L30.62,214.12v-10.78l24.16-0.01l8.35-4.82c1.92-1.11,5.26-0.97,7.48,0.31l7.79,4.5l24.18-0.01
			v11.08c0.05,0.75-0.36,1.47-1.28,2l-31.23,18.03c-1.92,1.11-5.26,0.97-7.48-0.31L32.44,216.7
			C31.17,215.96,30.55,215.01,30.62,214.12z"/>
		<path class="ebene2" d="M66.61,197.77c1.4,0.03,2.86,0.39,4.01,1.05l7.79,4.5l24.18-0.01v11.08c0.05,0.75-0.36,1.47-1.28,2
			l-31.23,18.03c-0.92,0.53-2.17,0.77-3.47,0.74V197.77z"/>
		<path class="ebene3" d="M99.85,203.3l2.74,0v11.08c0.05,0.75-0.36,1.47-1.28,2l-1.45,0.84V203.3z"/>
		<path class="ebene3" d="M69.6,234.65c-1.65,0.71-4.04,0.67-5.98-0.07V222h5.98V234.65z"/>
		<path class="ebene4" d="M70.08,223.38l31.23-18.03c1.92-1.11,1.68-3.04-0.54-4.32l-30.15-17.41c-2.21-1.28-5.56-1.42-7.48-0.31
			l-31.23,18.03c-1.92,1.11-1.68,3.04,0.54,4.32l30.15,17.41C64.81,224.34,68.16,224.48,70.08,223.38z"/>
		<path class="ebene5" d="M69.51,220.13l26.17-15.11c1.61-0.93,1.4-2.55-0.45-3.62l-25.27-14.59c-1.85-1.07-4.66-1.19-6.27-0.26
			l-26.17,15.11c-1.61,0.93-1.4,2.55,0.45,3.62l25.27,14.59C65.1,220.94,67.91,221.06,69.51,220.13z"/>
		<g>
			<path class="ebene4" d="M42.11,216.96c0,0.8,0.56,1.78,1.26,2.18c0.7,0.4,1.26,0.08,1.26-0.73c0-0.8-0.56-1.78-1.26-2.18
				C42.67,215.83,42.11,216.16,42.11,216.96z"/>
			<path class="ebene4" d="M38.05,214.62c0,0.8,0.56,1.78,1.26,2.18c0.7,0.4,1.26,0.08,1.26-0.73s-0.56-1.78-1.26-2.18
				C38.62,213.49,38.05,213.81,38.05,214.62z"/>
			<path class="ebene4" d="M33.99,212.28c0,0.8,0.56,1.78,1.26,2.18c0.7,0.4,1.26,0.08,1.26-0.73s-0.56-1.78-1.26-2.18
				C34.56,211.15,33.99,211.47,33.99,212.28z"/>
		</g>
	</g>
	<g>
		<path class="ebene2" d="M30.62,196.64L30.62,196.64v-10.78l24.16-0.01l8.35-4.82c1.92-1.11,5.26-0.97,7.48,0.31l7.79,4.5l24.18-0.01
			v11.08c0.05,0.75-0.36,1.47-1.28,2l-31.23,18.03c-1.92,1.11-5.26,0.97-7.48-0.31l-30.15-17.41
			C31.17,198.49,30.55,197.53,30.62,196.64z"/>
		<path class="ebene2" d="M66.61,180.29c1.4,0.03,2.86,0.39,4.01,1.05l7.79,4.5l24.18-0.01v11.08c0.05,0.75-0.36,1.47-1.28,2
			l-31.23,18.03c-0.92,0.53-2.17,0.77-3.47,0.74V180.29z"/>
		<path class="ebene3" d="M99.85,185.83l2.74,0v11.08c0.05,0.75-0.36,1.47-1.28,2l-1.45,0.84V185.83z"/>
		<path class="ebene3" d="M69.6,217.18c-1.65,0.71-4.04,0.67-5.98-0.07v-12.58h5.98V217.18z"/>
		<path class="ebene4" d="M70.08,205.9l31.23-18.03c1.92-1.11,1.68-3.04-0.54-4.32l-30.15-17.41c-2.21-1.28-5.56-1.42-7.48-0.31
			l-31.23,18.03c-1.92,1.11-1.68,3.04,0.54,4.32l30.15,17.41C64.81,206.87,68.16,207.01,70.08,205.9z"/>
		<path class="ebene5" d="M69.51,202.66l26.17-15.11c1.61-0.93,1.4-2.55-0.45-3.62l-25.27-14.59c-1.85-1.07-4.66-1.19-6.27-0.26
			l-26.17,15.11c-1.61,0.93-1.4,2.55,0.45,3.62l25.27,14.59C65.1,203.47,67.91,203.58,69.51,202.66z"/>
		<g>
			<path class="ebene4" d="M42.11,199.49c0,0.8,0.56,1.78,1.26,2.18c0.7,0.4,1.26,0.08,1.26-0.73s-0.56-1.78-1.26-2.18
				C42.67,198.36,42.11,198.68,42.11,199.49z"/>
			<path class="ebene4" d="M38.05,197.14c0,0.8,0.56,1.78,1.26,2.18c0.7,0.4,1.26,0.08,1.26-0.73s-0.56-1.78-1.26-2.18
				C38.62,196.01,38.05,196.34,38.05,197.14z"/>
			<ellipse transform="matrix(0.866 -0.5 0.5 0.866 -93.0493 43.8297)" class="ebene4" cx="35.25" cy="195.53" rx="1.03" ry="1.78"/>
		</g>
	</g>
	<g>
		<path class="ebene2" d="M30.62,179.17L30.62,179.17v-10.78l24.16-0.01l8.35-4.82c1.92-1.11,5.26-0.97,7.48,0.31l7.79,4.5l24.18-0.01
			v11.08c0.05,0.75-0.36,1.47-1.28,2l-31.23,18.03c-1.92,1.11-5.26,0.97-7.48-0.31l-30.15-17.41
			C31.17,181.01,30.55,180.06,30.62,179.17z"/>
		<path class="ebene2" d="M66.61,162.82c1.4,0.03,2.86,0.39,4.01,1.05l7.79,4.5l24.18-0.01v11.08c0.05,0.75-0.36,1.47-1.28,2
			l-31.23,18.03c-0.92,0.53-2.17,0.77-3.47,0.74V162.82z"/>
		<path class="ebene3" d="M99.85,168.35l2.74,0v11.08c0.05,0.75-0.36,1.47-1.28,2l-1.45,0.84V168.35z"/>
		<path class="ebene3" d="M69.6,199.7c-1.65,0.71-4.04,0.67-5.98-0.07v-12.58h5.98V199.7z"/>
		<path class="ebene2" d="M70.08,188.43l31.23-18.03c1.92-1.11,1.68-3.04-0.54-4.32l-30.15-17.41c-2.21-1.28-5.56-1.42-7.48-0.31
			l-31.23,18.03c-1.92,1.11-1.68,3.04,0.54,4.32l30.15,17.41C64.81,189.39,68.16,189.53,70.08,188.43z"/>
		<path class="ebene4" d="M32.44,168.59L62.6,186c2.21,1.28,5.56,1.42,7.48,0.31l31.23-18.03c0.43-0.25,0.74-0.54,0.96-0.85
			c0.66,1.06,0.36,2.21-0.96,2.97l-31.23,18.03c-1.92,1.11-5.26,0.97-7.48-0.31l-30.15-17.41c-1.72-0.99-2.24-2.38-1.49-3.47
			C31.25,167.72,31.75,168.19,32.44,168.59z"/>
		<g>
			<path class="ebene4" d="M42.11,182.01c0,0.8,0.56,1.78,1.26,2.18c0.7,0.4,1.26,0.08,1.26-0.73s-0.56-1.78-1.26-2.18
				C42.67,180.88,42.11,181.21,42.11,182.01z"/>
			<path class="ebene4" d="M38.05,179.67c0,0.8,0.56,1.78,1.26,2.18c0.7,0.4,1.26,0.08,1.26-0.73s-0.56-1.78-1.26-2.18
				C38.62,178.54,38.05,178.86,38.05,179.67z"/>
			<path class="ebene4" d="M33.99,177.33c0,0.8,0.56,1.78,1.26,2.18c0.7,0.4,1.26,0.08,1.26-0.73c0-0.8-0.56-1.78-1.26-2.18
				C34.56,176.19,33.99,176.52,33.99,177.33z"/>
		</g>
		<g>
			<path class="ebene5" d="M68.23,177.73l14.61-8.44c0.9-0.52,0.78-1.42-0.25-2.02l-14.11-8.15c-1.04-0.6-2.6-0.66-3.5-0.15
				l-14.61,8.44c-0.9,0.52-0.78,1.42,0.25,2.02l14.11,8.15C65.77,178.18,67.33,178.24,68.23,177.73z"/>
			<path class="ebene4" d="M66.83,170.66l2.02-1.17c0.12-0.07,0.11-0.2-0.03-0.28l-1.95-1.13c-0.14-0.08-0.36-0.09-0.48-0.02
				l-2.02,1.17c-0.12,0.07-0.11,0.2,0.03,0.28l1.95,1.13C66.49,170.72,66.71,170.73,66.83,170.66z"/>
			<path class="ebene4" d="M57.87,179.92l2.02-1.17c0.12-0.07,0.11-0.2-0.03-0.28l-1.95-1.13c-0.14-0.08-0.36-0.09-0.48-0.02
				l-2.02,1.17c-0.12,0.07-0.11,0.2,0.03,0.28l1.95,1.13C57.53,179.98,57.75,179.99,57.87,179.92z"/>
			<path class="ebene4" d="M53.46,177.35l2.02-1.17c0.12-0.07,0.11-0.2-0.03-0.28l-1.95-1.13c-0.14-0.08-0.36-0.09-0.48-0.02
				l-2.02,1.17c-0.12,0.07-0.11,0.2,0.03,0.28l1.95,1.13C53.11,177.41,53.33,177.42,53.46,177.35z"/>
			<path class="ebene4" d="M49.04,174.77l2.02-1.17c0.12-0.07,0.11-0.2-0.03-0.28l-1.95-1.13c-0.14-0.08-0.36-0.09-0.48-0.02
				l-2.02,1.17c-0.12,0.07-0.11,0.2,0.03,0.28l1.95,1.13C48.7,174.83,48.91,174.84,49.04,174.77z"/>
			<path class="ebene3" d="M82.84,169.29l-0.04,0.02c-0.07-0.05-0.13-0.1-0.21-0.14l-14.11-8.15c-1.04-0.6-2.6-0.66-3.5-0.15
				l-14.57,8.41c-0.83-0.59-0.87-1.4-0.04-1.88l14.61-8.44c0.9-0.52,2.46-0.45,3.5,0.15l14.11,8.15
				C83.63,167.87,83.74,168.77,82.84,169.29z"/>
		</g>
	</g>
	<path class="ebene5" d="M79.41,208.18l12.64-7.3c0.78-0.45,1.41-1.66,1.41-2.7l0,0c0-1.04-0.63-1.52-1.41-1.07l-12.64,7.3
		c-0.78,0.45-1.41,1.66-1.41,2.7l0,0C78,208.15,78.63,208.63,79.41,208.18z"/>
	<path class="ebene4" d="M78.28,207.48l12.64-7.3c0.78-0.45,1.41-1.66,1.41-2.7c0-0.18-0.02-0.33-0.06-0.47
		c0.67-0.24,1.19,0.23,1.19,1.17c0,1.04-0.63,2.25-1.41,2.7l-12.64,7.3c-0.65,0.37-1.19,0.1-1.35-0.6
		C78.13,207.55,78.2,207.53,78.28,207.48z"/>
</g>
<path class="ebene0" d="M93.2,368.52c0.96,0,1.92-0.24,2.78-0.72l54.2-30.17c0.8-0.44,1.28-1.26,1.28-2.17c0-0.92-0.47-1.73-1.27-2.18
	l-24.53-13.83c-0.39-0.22-0.43-0.59-0.43-0.74c0-0.15,0.04-0.52,0.43-0.74l27.29-15.67c0.75-0.43,1.21-1.21,1.23-2.07
	c0.02-0.87-0.41-1.66-1.14-2.12l-11.15-7.06l-0.86,1.35l11.15,7.06c0.37,0.23,0.4,0.59,0.4,0.74c0,0.14-0.05,0.5-0.43,0.72
	l-27.29,15.67c-0.77,0.45-1.23,1.24-1.23,2.13c0,0.89,0.47,1.69,1.24,2.12l24.53,13.83c0.41,0.23,0.45,0.62,0.45,0.78
	c0,0.16-0.05,0.55-0.46,0.78l-54.2,30.17c-1.29,0.72-2.88,0.69-4.14-0.08l-20.61-12.67c-0.16-0.1-0.19-0.25-0.19-0.33
	c0-0.07,0.02-0.23,0.19-0.33l14.92-9.07l-0.83-1.37l-14.92,9.07c-0.6,0.36-0.96,1-0.96,1.7c0,0.7,0.35,1.33,0.95,1.7l20.61,12.67
	C91.14,368.25,92.17,368.52,93.2,368.52z"/>
<g>
	<g>
		<g>
			<path class="ebene0" d="M128.65,301.18l56.47-32.2c2.07-1.19,1.81-3.28-0.58-4.65l-32.49-18.76c-2.38-1.38-5.99-1.53-8.06-0.33
				l-56.47,32.2c-2.07,1.19-1.81,3.28,0.58,4.65l32.49,18.76C122.98,302.22,126.58,302.37,128.65,301.18z"/>
			<path class="ebene6" d="M82.49,266.59L82.49,266.59V134.76l52.41-13.72l9.65-5.57c2.22-1.28,6.09-1.12,8.64,0.36l9.01,5.2
				l27.95-0.02l-8.28,127.27c0.06,0.87-0.42,1.7-1.48,2.32l-52.3,39.46c-2.22,1.28-6.09,1.12-8.64-0.36l-34.86-20.12
				C83.12,268.72,82.4,267.62,82.49,266.59z"/>
			<path class="ebene6" d="M148.56,114.61c1.62,0.04,3.3,0.45,4.63,1.22l9.01,5.2l27.95-0.02V253.2c0.06,0.87-0.42,1.7-1.48,2.32
				l-60.58,34.54c-1.06,0.61-2.51,0.89-4.01,0.86l-0.62-133.02L148.56,114.61z"/>
			<path class="ebene7" d="M127.54,290.33c-1.91,0.82-4.67,0.77-6.91-0.08V156.33h6.91V290.33z"/>
			<path class="ebene6" d="M128.09,157.92l60.58-34.54c2.22-1.28,1.94-3.51-0.62-4.99L153.2,98.26c-2.56-1.48-6.43-1.64-8.64-0.36
				l-60.58,34.54c-2.22,1.28-1.94,3.51,0.62,4.99l34.86,20.12C122.01,159.03,125.88,159.19,128.09,157.92z"/>
			<path class="ebene8" d="M84.59,134.98l34.86,20.12c2.56,1.48,6.43,1.64,8.64,0.36l60.58-34.54c0.49-0.29,0.86-0.62,1.11-0.98
				c0.76,1.22,0.42,2.55-1.11,3.43l-60.58,34.54c-2.22,1.28-6.09,1.12-8.64-0.36l-34.86-20.12c-1.99-1.15-2.59-2.75-1.73-4.01
				C83.21,133.98,83.79,134.52,84.59,134.98z"/>
			<g>
				<path class="ebene010" d="M126.38,143.92l40.33-23.38c1.04-0.6,0.91-1.64-0.29-2.34l-16.31-9.42c-1.2-0.69-3.01-0.77-4.04-0.17
					L105.73,132c-1.04,0.6-0.91,1.64,0.29,2.34l16.31,9.42C123.53,144.44,125.34,144.51,126.38,143.92z"/>
				<g>
					<path class="ebene6" d="M148.15,121.59l2.34-1.35c0.14-0.08,0.13-0.23-0.04-0.32l-2.26-1.3c-0.17-0.1-0.42-0.11-0.56-0.02
						l-2.34,1.35c-0.14,0.08-0.13,0.23,0.04,0.32l2.26,1.3C147.76,121.66,148.01,121.67,148.15,121.59z"/>
					<path class="ebene6" d="M140.34,126.08l2.34-1.35c0.14-0.08,0.13-0.23-0.04-0.32l-2.26-1.3c-0.17-0.1-0.42-0.11-0.56-0.02
						l-2.34,1.35c-0.14,0.08-0.13,0.23,0.04,0.32l2.26,1.3C139.95,126.15,140.2,126.16,140.34,126.08z"/>
					<path class="ebene6" d="M132.54,130.57l2.34-1.35c0.14-0.08,0.13-0.23-0.04-0.32l-2.26-1.3c-0.17-0.1-0.42-0.11-0.56-0.02
						l-2.34,1.35c-0.14,0.08-0.13,0.23,0.04,0.32l2.26,1.3C132.14,130.64,132.39,130.65,132.54,130.57z"/>
					<path class="ebene6" d="M124.73,135.05l2.34-1.35c0.14-0.08,0.13-0.23-0.04-0.32l-2.26-1.3c-0.17-0.1-0.42-0.11-0.56-0.02
						l-2.34,1.35c-0.14,0.08-0.13,0.23,0.04,0.32l2.26,1.3C124.33,135.13,124.58,135.14,124.73,135.05z"/>
				</g>
				<path class="ebene7" d="M166.71,120.54l-0.05,0.03c-0.08-0.06-0.15-0.11-0.24-0.17l-16.31-9.42c-1.2-0.69-3.01-0.77-4.04-0.17
					l-40.29,23.35c-0.96-0.68-1.01-1.62-0.05-2.17l40.33-23.38c1.04-0.6,2.85-0.52,4.04,0.17l16.31,9.42
					C167.62,118.89,167.75,119.94,166.71,120.54z"/>
			</g>
		</g>
		<g>
			<path class="ebene010" d="M112.64,184.04l-22.93-13.13c-1.29-0.75-2.34-2.74-2.34-4.46v-8.2c0-1.72,1.05-2.51,2.34-1.77l22.93,13.13
				c1.29,0.74,2.34,2.74,2.34,4.46v8.2C114.98,183.99,113.93,184.78,112.64,184.04z"/>
			<path class="ebene011" d="M88.57,156.23c-0.36,0.34-0.59,0.92-0.59,1.71v8.2c0,1.72,1.05,3.72,2.34,4.46l22.93,13.13
				c0.41,0.24,0.8,0.3,1.14,0.25c-0.43,0.4-1.05,0.46-1.75,0.06l-22.93-13.13c-1.29-0.74-2.34-2.74-2.34-4.46v-8.2
				C87.37,157.07,87.86,156.35,88.57,156.23z"/>
			<g>
				<path class="ebene6" d="M105.74,175.13l-2.1-1.21c-0.28-0.16-0.51-0.6-0.51-0.97v-2.25c0-0.38,0.23-0.55,0.51-0.39l2.1,1.21
					c0.28,0.16,0.51,0.6,0.51,0.97v2.25C106.25,175.12,106.03,175.29,105.74,175.13z"/>
				<path class="ebene011" d="M98.71,171.07l-2.1-1.21c-0.28-0.16-0.51-0.6-0.51-0.97v-2.25c0-0.38,0.23-0.55,0.51-0.39l2.1,1.21
					c0.28,0.16,0.51,0.6,0.51,0.97v2.25C99.22,171.06,98.99,171.23,98.71,171.07z"/>
			</g>
		</g>
		<g>
			<path class="ebene010" d="M112.64,243.3l-22.93-13.13c-1.29-0.75-2.34-2.74-2.34-4.46v-8.2c0-1.72,1.05-2.51,2.34-1.77l22.93,13.13
				c1.29,0.74,2.34,2.74,2.34,4.46v8.2C114.98,243.25,113.93,244.04,112.64,243.3z"/>
			<path class="ebene011" d="M88.57,215.49c-0.36,0.34-0.59,0.92-0.59,1.71v8.2c0,1.72,1.05,3.72,2.34,4.46l22.93,13.13
				c0.41,0.24,0.8,0.3,1.14,0.25c-0.43,0.4-1.05,0.46-1.75,0.06l-22.93-13.13c-1.29-0.74-2.34-2.74-2.34-4.46v-8.2
				C87.37,216.33,87.86,215.61,88.57,215.49z"/>
			<g>
				<path class="ebene6" d="M105.74,234.39l-2.1-1.21c-0.28-0.16-0.51-0.6-0.51-0.97v-2.25c0-0.38,0.23-0.55,0.51-0.38l2.1,1.21
					c0.28,0.16,0.51,0.6,0.51,0.97V234C106.25,234.38,106.03,234.55,105.74,234.39z"/>
				<path class="ebene6" d="M98.71,230.33l-2.1-1.21c-0.28-0.16-0.51-0.6-0.51-0.97v-2.25c0-0.38,0.23-0.55,0.51-0.39l2.1,1.21
					c0.28,0.16,0.51,0.6,0.51,0.97v2.25C99.22,230.32,98.99,230.49,98.71,230.33z"/>
			</g>
		</g>
		<g>
			<path class="ebene010" d="M112.64,272.93L89.71,259.8c-1.29-0.75-2.34-2.74-2.34-4.46v-8.2c0-1.72,1.05-2.51,2.34-1.77l22.93,13.13
				c1.29,0.74,2.34,2.74,2.34,4.46v8.2C114.98,272.88,113.93,273.67,112.64,272.93z"/>
			<path class="ebene011" d="M88.57,245.12c-0.36,0.34-0.59,0.92-0.59,1.71v8.2c0,1.72,1.05,3.72,2.34,4.46l22.93,13.13
				c0.41,0.24,0.8,0.3,1.14,0.25c-0.43,0.4-1.05,0.46-1.75,0.06L89.71,259.8c-1.29-0.74-2.34-2.74-2.34-4.46v-8.2
				C87.37,245.96,87.86,245.24,88.57,245.12z"/>
			<g>
				<path class="ebene011" d="M105.74,264.02l-2.1-1.21c-0.28-0.16-0.51-0.6-0.51-0.97v-2.25c0-0.38,0.23-0.55,0.51-0.39l2.1,1.21
					c0.28,0.16,0.51,0.6,0.51,0.97v2.25C106.25,264.01,106.03,264.18,105.74,264.02z"/>
				<path class="ebene6" d="M98.71,259.96l-2.1-1.21c-0.28-0.16-0.51-0.6-0.51-0.97v-2.25c0-0.38,0.23-0.55,0.51-0.38l2.1,1.21
					c0.28,0.16,0.51,0.6,0.51,0.97v2.25C99.22,259.95,98.99,260.12,98.71,259.96z"/>
			</g>
		</g>
		<g>
			<path class="ebene010" d="M112.64,213.67l-22.93-13.13c-1.29-0.75-2.34-2.74-2.34-4.46v-8.2c0-1.72,1.05-2.51,2.34-1.77l22.93,13.13
				c1.29,0.74,2.34,2.74,2.34,4.46v8.2C114.98,213.62,113.93,214.41,112.64,213.67z"/>
			<path class="ebene011" d="M88.57,185.86c-0.36,0.34-0.59,0.92-0.59,1.71v8.2c0,1.72,1.05,3.72,2.34,4.46l22.93,13.13
				c0.41,0.24,0.8,0.3,1.14,0.25c-0.43,0.4-1.05,0.46-1.75,0.06l-22.93-13.13c-1.29-0.74-2.34-2.74-2.34-4.46v-8.2
				C87.37,186.7,87.86,185.98,88.57,185.86z"/>
			<g>
				<path class="ebene011" d="M105.74,204.76l-2.1-1.21c-0.28-0.16-0.51-0.6-0.51-0.97v-2.25c0-0.38,0.23-0.55,0.51-0.39l2.1,1.21
					c0.28,0.16,0.51,0.6,0.51,0.97v2.25C106.25,204.75,106.03,204.92,105.74,204.76z"/>
				<path class="ebene011" d="M98.71,200.7l-2.1-1.21c-0.28-0.16-0.51-0.6-0.51-0.97v-2.25c0-0.38,0.23-0.55,0.51-0.39l2.1,1.21
					c0.28,0.16,0.51,0.6,0.51,0.97v2.25C99.22,200.69,98.99,200.86,98.71,200.7z"/>
			</g>
		</g>
	</g>
	<g>
		<path class="ebene7" d="M132.5,175.64l52.91-30.55c1.18-0.68,2.14-2.52,2.14-4.1v-10.09c0-1.58-0.96-2.3-2.14-1.62l-52.91,30.55
			c-1.18,0.68-2.14,2.52-2.14,4.1v10.09C130.36,175.6,131.32,176.32,132.5,175.64z"/>
		<path class="ebene012" d="M134.02,172.1l49.87-28.79c0.6-0.35,1.09-1.28,1.09-2.08v-7.58c0-0.8-0.49-1.17-1.09-0.82l-49.87,28.79
			c-0.6,0.35-1.09,1.28-1.09,2.08v7.58C132.94,172.08,133.42,172.45,134.02,172.1z"/>
		<path class="ebene6" d="M173.5,145.48l7.44-4.3c0.58-0.34,1.06-1.24,1.06-2.02l0,0c0-0.78-0.47-1.14-1.06-0.8l-7.44,4.3
			c-0.58,0.34-1.06,1.24-1.06,2.02l0,0C172.44,145.46,172.92,145.81,173.5,145.48z"/>
		<path class="ebene010" d="M167.16,147.73c0,0.78,0.55,1.09,1.22,0.7c0.67-0.39,1.22-1.33,1.22-2.11c0-0.78-0.55-1.09-1.22-0.7
			C167.7,146.01,167.16,146.95,167.16,147.73z"/>
		<path class="ebene010" d="M162.85,150.21c0,0.78,0.55,1.09,1.22,0.7s1.22-1.33,1.22-2.11c0-0.78-0.55-1.09-1.22-0.7
			C163.4,148.49,162.85,149.44,162.85,150.21z"/>
		<path class="ebene6" d="M158.55,152.7c0,0.78,0.55,1.09,1.22,0.7c0.67-0.39,1.22-1.33,1.22-2.11c0-0.78-0.55-1.09-1.22-0.7
			C159.1,150.98,158.55,151.92,158.55,152.7z"/>
		<path class="ebene010" d="M154.25,155.18c0,0.78,0.55,1.09,1.22,0.7c0.67-0.39,1.22-1.33,1.22-2.11c0-0.78-0.55-1.09-1.22-0.7
			C154.79,153.46,154.25,154.41,154.25,155.18z"/>
		<path class="ebene010" d="M136.12,167.88l2.51-1.45c0.37-0.22,0.68-0.8,0.68-1.3v-2.65c0-0.5-0.3-0.73-0.68-0.51l-2.51,1.45
			c-0.37,0.22-0.68,0.8-0.68,1.3v2.65C135.44,167.87,135.75,168.1,136.12,167.88z"/>
	</g>
	<g>
		<path class="ebene7" d="M132.5,193.43l52.91-30.55c1.18-0.68,2.14-2.52,2.14-4.1V148.7c0-1.58-0.96-2.3-2.14-1.62l-52.91,30.55
			c-1.18,0.68-2.14,2.52-2.14,4.1v10.09C130.36,193.39,131.32,194.11,132.5,193.43z"/>
		<path class="ebene012" d="M134.02,189.89l49.87-28.79c0.6-0.35,1.09-1.28,1.09-2.08v-7.58c0-0.8-0.49-1.17-1.09-0.82l-49.87,28.79
			c-0.6,0.35-1.09,1.28-1.09,2.08v7.58C132.94,189.87,133.42,190.24,134.02,189.89z"/>
		<path class="ebene6" d="M173.5,163.27l7.44-4.3c0.58-0.34,1.06-1.24,1.06-2.02l0,0c0-0.78-0.47-1.14-1.06-0.8l-7.44,4.3
			c-0.58,0.34-1.06,1.24-1.06,2.02l0,0C172.44,163.25,172.92,163.6,173.5,163.27z"/>
		<path class="ebene011" d="M167.16,165.52c0,0.78,0.55,1.09,1.22,0.7c0.67-0.39,1.22-1.33,1.22-2.11c0-0.78-0.55-1.09-1.22-0.7
			C167.7,163.8,167.16,164.74,167.16,165.52z"/>
		<path class="ebene010" d="M162.85,168c0,0.78,0.55,1.09,1.22,0.7c0.67-0.39,1.22-1.33,1.22-2.11c0-0.78-0.55-1.09-1.22-0.7
			C163.4,166.28,162.85,167.23,162.85,168z"/>
		<path class="ebene6" d="M158.55,170.49c0,0.78,0.55,1.09,1.22,0.7c0.67-0.39,1.22-1.33,1.22-2.11c0-0.78-0.55-1.09-1.22-0.7
			C159.1,168.77,158.55,169.71,158.55,170.49z"/>
		<path class="ebene010" d="M154.25,172.97c0,0.78,0.55,1.09,1.22,0.7c0.67-0.39,1.22-1.33,1.22-2.11c0-0.78-0.55-1.09-1.22-0.7
			C154.79,171.25,154.25,172.2,154.25,172.97z"/>
		<path class="ebene010" d="M136.12,185.67l2.51-1.45c0.37-0.22,0.68-0.8,0.68-1.3v-2.65c0-0.5-0.3-0.73-0.68-0.51l-2.51,1.45
			c-0.37,0.22-0.68,0.8-0.68,1.3v2.65C135.44,185.66,135.75,185.89,136.12,185.67z"/>
	</g>
	<g>
		<path class="ebene7" d="M132.5,211.22l52.91-30.55c1.18-0.68,2.14-2.52,2.14-4.1v-10.09c0-1.58-0.96-2.3-2.14-1.62l-52.91,30.55
			c-1.18,0.68-2.14,2.52-2.14,4.1v10.09C130.36,211.18,131.32,211.9,132.5,211.22z"/>
		<path class="ebene012" d="M134.02,207.68l49.87-28.79c0.6-0.35,1.09-1.28,1.09-2.08v-7.58c0-0.8-0.49-1.17-1.09-0.82l-49.87,28.79
			c-0.6,0.35-1.09,1.28-1.09,2.08v7.58C132.94,207.66,133.42,208.03,134.02,207.68z"/>
		<path class="ebene6" d="M173.5,181.06l7.44-4.3c0.58-0.34,1.06-1.24,1.06-2.02l0,0c0-0.78-0.47-1.14-1.06-0.8l-7.44,4.3
			c-0.58,0.34-1.06,1.24-1.06,2.02l0,0C172.44,181.04,172.92,181.39,173.5,181.06z"/>
		<path class="ebene011" d="M167.16,183.31c0,0.78,0.55,1.09,1.22,0.7c0.67-0.39,1.22-1.33,1.22-2.11c0-0.78-0.55-1.09-1.22-0.7
			C167.7,181.59,167.16,182.53,167.16,183.31z"/>
		<path class="ebene010" d="M162.85,185.79c0,0.78,0.55,1.09,1.22,0.7c0.67-0.39,1.22-1.33,1.22-2.11c0-0.78-0.55-1.09-1.22-0.7
			C163.4,184.07,162.85,185.02,162.85,185.79z"/>
		<path class="ebene6" d="M158.55,188.28c0,0.78,0.55,1.09,1.22,0.7c0.67-0.39,1.22-1.33,1.22-2.11c0-0.78-0.55-1.09-1.22-0.7
			C159.1,186.56,158.55,187.5,158.55,188.28z"/>
		<path class="ebene010" d="M154.25,190.76c0,0.78,0.55,1.09,1.22,0.7c0.67-0.39,1.22-1.33,1.22-2.11c0-0.78-0.55-1.09-1.22-0.7
			C154.79,189.04,154.25,189.99,154.25,190.76z"/>
		<path class="ebene010" d="M136.12,203.46l2.51-1.45c0.37-0.22,0.68-0.8,0.68-1.3v-2.65c0-0.5-0.3-0.73-0.68-0.51l-2.51,1.45
			c-0.37,0.22-0.68,0.8-0.68,1.3v2.65C135.44,203.45,135.75,203.68,136.12,203.46z"/>
	</g>
	<g>
		<path class="ebene7" d="M132.5,229.01l52.91-30.55c1.18-0.68,2.14-2.52,2.14-4.1v-10.09c0-1.58-0.96-2.3-2.14-1.62L132.5,213.2
			c-1.18,0.68-2.14,2.52-2.14,4.1v10.09C130.36,228.97,131.32,229.69,132.5,229.01z"/>
		<path class="ebene012" d="M134.02,225.47l49.87-28.79c0.6-0.35,1.09-1.28,1.09-2.08v-7.58c0-0.8-0.49-1.17-1.09-0.82l-49.87,28.79
			c-0.6,0.35-1.09,1.28-1.09,2.08v7.58C132.94,225.45,133.42,225.82,134.02,225.47z"/>
		<path class="ebene6" d="M173.5,198.85l7.44-4.3c0.58-0.34,1.06-1.24,1.06-2.02l0,0c0-0.78-0.47-1.14-1.06-0.8l-7.44,4.3
			c-0.58,0.34-1.06,1.24-1.06,2.02l0,0C172.44,198.83,172.92,199.18,173.5,198.85z"/>
		<path class="ebene010" d="M167.16,201.1c0,0.78,0.55,1.09,1.22,0.7c0.67-0.39,1.22-1.33,1.22-2.11c0-0.78-0.55-1.09-1.22-0.7
			C167.7,199.38,167.16,200.32,167.16,201.1z"/>
		<path class="ebene010" d="M162.85,203.58c0,0.78,0.55,1.09,1.22,0.7c0.67-0.39,1.22-1.33,1.22-2.11c0-0.78-0.55-1.09-1.22-0.7
			C163.4,201.86,162.85,202.81,162.85,203.58z"/>
		<path class="ebene6" d="M158.55,206.07c0,0.78,0.55,1.09,1.22,0.7c0.67-0.39,1.22-1.33,1.22-2.11c0-0.78-0.55-1.09-1.22-0.7
			C159.1,204.35,158.55,205.29,158.55,206.07z"/>
		<path class="ebene010" d="M154.25,208.55c0,0.78,0.55,1.09,1.22,0.7c0.67-0.39,1.22-1.33,1.22-2.11c0-0.78-0.55-1.09-1.22-0.7
			C154.79,206.83,154.25,207.78,154.25,208.55z"/>
		<path class="ebene6" d="M136.12,221.25l2.51-1.45c0.37-0.22,0.68-0.8,0.68-1.3v-2.65c0-0.5-0.3-0.73-0.68-0.51l-2.51,1.45
			c-0.37,0.22-0.68,0.8-0.68,1.3v2.65C135.44,221.24,135.75,221.47,136.12,221.25z"/>
	</g>
	<g>
		<path class="ebene7" d="M132.5,246.8l52.91-30.55c1.18-0.68,2.14-2.52,2.14-4.1v-10.09c0-1.58-0.96-2.3-2.14-1.62l-52.91,30.55
			c-1.18,0.68-2.14,2.52-2.14,4.1v10.09C130.36,246.76,131.32,247.48,132.5,246.8z"/>
		<path class="ebene012" d="M134.02,243.26l49.87-28.79c0.6-0.35,1.09-1.28,1.09-2.08v-7.58c0-0.8-0.49-1.17-1.09-0.82l-49.87,28.79
			c-0.6,0.35-1.09,1.28-1.09,2.08v7.58C132.94,243.24,133.42,243.61,134.02,243.26z"/>
		<path class="ebene6" d="M173.5,216.64l7.44-4.3c0.58-0.34,1.06-1.24,1.06-2.02l0,0c0-0.78-0.47-1.14-1.06-0.8l-7.44,4.3
			c-0.58,0.34-1.06,1.24-1.06,2.02l0,0C172.44,216.62,172.92,216.97,173.5,216.64z"/>
		<path class="ebene010" d="M167.16,218.89c0,0.78,0.55,1.09,1.22,0.7c0.67-0.39,1.22-1.33,1.22-2.11c0-0.78-0.55-1.09-1.22-0.7
			C167.7,217.17,167.16,218.11,167.16,218.89z"/>
		<path class="ebene011" d="M162.85,221.37c0,0.78,0.55,1.09,1.22,0.7c0.67-0.39,1.22-1.33,1.22-2.11c0-0.78-0.55-1.09-1.22-0.7
			C163.4,219.65,162.85,220.6,162.85,221.37z"/>
		<path class="ebene6" d="M158.55,223.86c0,0.78,0.55,1.09,1.22,0.7c0.67-0.39,1.22-1.33,1.22-2.11c0-0.78-0.55-1.09-1.22-0.7
			C159.1,222.14,158.55,223.08,158.55,223.86z"/>
		<path class="ebene011" d="M154.25,226.34c0,0.78,0.55,1.09,1.22,0.7c0.67-0.39,1.22-1.33,1.22-2.11c0-0.78-0.55-1.09-1.22-0.7
			C154.79,224.62,154.25,225.57,154.25,226.34z"/>
		<path class="ebene6" d="M136.12,239.04l2.51-1.45c0.37-0.22,0.68-0.8,0.68-1.3v-2.65c0-0.5-0.3-0.73-0.68-0.51l-2.51,1.45
			c-0.37,0.22-0.68,0.8-0.68,1.3v2.65C135.44,239.03,135.75,239.26,136.12,239.04z"/>
	</g>
	<g>
		<path class="ebene7" d="M132.5,264.59l52.91-30.55c1.18-0.68,2.14-2.52,2.14-4.1v-10.09c0-1.58-0.96-2.3-2.14-1.62l-52.91,30.55
			c-1.18,0.68-2.14,2.52-2.14,4.1v10.09C130.36,264.55,131.32,265.27,132.5,264.59z"/>
		<path class="ebene012" d="M134.02,261.05l49.87-28.79c0.6-0.35,1.09-1.28,1.09-2.08v-7.58c0-0.8-0.49-1.17-1.09-0.82l-49.87,28.79
			c-0.6,0.35-1.09,1.28-1.09,2.08v7.58C132.94,261.03,133.42,261.4,134.02,261.05z"/>
		<path class="ebene6" d="M173.5,234.43l7.44-4.3c0.58-0.34,1.06-1.24,1.06-2.02l0,0c0-0.78-0.47-1.14-1.06-0.8l-7.44,4.3
			c-0.58,0.34-1.06,1.24-1.06,2.02l0,0C172.44,234.41,172.92,234.76,173.5,234.43z"/>
		<path class="ebene010" d="M167.16,236.68c0,0.78,0.55,1.09,1.22,0.7c0.67-0.39,1.22-1.33,1.22-2.11c0-0.78-0.55-1.09-1.22-0.7
			C167.7,234.96,167.16,235.9,167.16,236.68z"/>
		<path class="ebene010" d="M162.85,239.16c0,0.78,0.55,1.09,1.22,0.7s1.22-1.33,1.22-2.11c0-0.78-0.55-1.09-1.22-0.7
			C163.4,237.44,162.85,238.39,162.85,239.16z"/>
		<path class="ebene6" d="M158.55,241.65c0,0.78,0.55,1.09,1.22,0.7c0.67-0.39,1.22-1.33,1.22-2.11c0-0.78-0.55-1.09-1.22-0.7
			C159.1,239.93,158.55,240.87,158.55,241.65z"/>
		<path class="ebene010" d="M154.25,244.13c0,0.78,0.55,1.09,1.22,0.7c0.67-0.39,1.22-1.33,1.22-2.11c0-0.78-0.55-1.09-1.22-0.7
			C154.79,242.41,154.25,243.36,154.25,244.13z"/>
		<path class="ebene010" d="M136.12,256.83l2.51-1.45c0.37-0.22,0.68-0.8,0.68-1.3v-2.65c0-0.5-0.3-0.73-0.68-0.51l-2.51,1.45
			c-0.37,0.22-0.68,0.8-0.68,1.3v2.65C135.44,256.82,135.75,257.05,136.12,256.83z"/>
	</g>
	<g>
		<path class="ebene7" d="M132.5,282.38l52.91-30.55c1.18-0.68,2.14-2.52,2.14-4.1v-10.09c0-1.58-0.96-2.3-2.14-1.62l-52.91,30.55
			c-1.18,0.68-2.14,2.52-2.14,4.1v10.09C130.36,282.34,131.32,283.06,132.5,282.38z"/>
		<path class="ebene012" d="M134.02,278.84l49.87-28.79c0.6-0.35,1.09-1.28,1.09-2.08v-7.58c0-0.8-0.49-1.17-1.09-0.82l-49.87,28.79
			c-0.6,0.35-1.09,1.28-1.09,2.08v7.58C132.94,278.82,133.42,279.19,134.02,278.84z"/>
		<path class="ebene6" d="M173.5,252.22l7.44-4.3c0.58-0.34,1.06-1.24,1.06-2.02l0,0c0-0.78-0.47-1.14-1.06-0.8l-7.44,4.3
			c-0.58,0.34-1.06,1.24-1.06,2.02l0,0C172.44,252.2,172.92,252.55,173.5,252.22z"/>
		<path class="ebene011" d="M167.16,254.47c0,0.78,0.55,1.09,1.22,0.7c0.67-0.39,1.22-1.33,1.22-2.11c0-0.78-0.55-1.09-1.22-0.7
			C167.7,252.75,167.16,253.69,167.16,254.47z"/>
		<path class="ebene010" d="M162.85,256.95c0,0.78,0.55,1.09,1.22,0.7c0.67-0.39,1.22-1.33,1.22-2.11c0-0.78-0.55-1.09-1.22-0.7
			C163.4,255.23,162.85,256.18,162.85,256.95z"/>
		<path class="ebene6" d="M158.55,259.44c0,0.78,0.55,1.09,1.22,0.7c0.67-0.39,1.22-1.33,1.22-2.11c0-0.78-0.55-1.09-1.22-0.7
			C159.1,257.72,158.55,258.66,158.55,259.44z"/>
		<path class="ebene010" d="M154.25,261.92c0,0.78,0.55,1.09,1.22,0.7c0.67-0.39,1.22-1.33,1.22-2.11c0-0.78-0.55-1.09-1.22-0.7
			C154.79,260.2,154.25,261.15,154.25,261.92z"/>
		<path class="ebene6" d="M136.12,274.62l2.51-1.45c0.37-0.22,0.68-0.8,0.68-1.3v-2.65c0-0.5-0.3-0.73-0.68-0.51l-2.51,1.45
			c-0.37,0.22-0.68,0.8-0.68,1.3v2.65C135.44,274.61,135.75,274.84,136.12,274.62z"/>
	</g>
</g>
<g>
	<path class="ebene7" d="M147.89,120.33c0.44,0,0.8-0.36,0.8-0.8V86.65c0-0.44-0.36-0.8-0.8-0.8c-0.44,0-0.8,0.36-0.8,0.8v32.89
		C147.09,119.98,147.45,120.33,147.89,120.33z"/>
	<g>
		<g>
			
				<rect x="145.04" y="84.58" transform="matrix(-1 -1.224647e-16 1.224647e-16 -1 295.786 181.4874)" class="ebene7" width="5.71" height="12.33"/>
			<path class="ebene7" d="M145.87,98.07c1.12,0.64,2.92,0.64,4.04,0c1.12-0.64,1.12-1.69,0-2.33c-1.12-0.64-2.92-0.64-4.04,0
				C144.76,96.39,144.76,97.43,145.87,98.07z"/>
		</g>
		<g>
			
				<rect x="143.26" y="67.39" transform="matrix(-1 -1.224647e-16 1.224647e-16 -1 295.786 154.1274)" class="ebene7" width="9.26" height="19.34"/>
			<path class="ebene6" d="M150.75,86.61v4.17c-1.68,0.77-4.04,0.77-5.71,0v-4.17C146.71,85.84,149.07,85.84,150.75,86.61z"/>
			<path class="ebene7" d="M144.62,88.62c1.81,1.04,4.74,1.04,6.55,0c1.81-1.04,1.81-2.74,0-3.78c-1.81-1.04-4.74-1.04-6.55,0
				S142.81,87.58,144.62,88.62z"/>
		</g>
	</g>
</g>
<g>
	<path class="ebene7" d="M140.09,125c0.44,0,0.8-0.36,0.8-0.8V91.31c0-0.44-0.36-0.8-0.8-0.8c-0.44,0-0.8,0.36-0.8,0.8v32.89
		C139.29,124.64,139.64,125,140.09,125z"/>
	<g>
		<g>
			
				<rect x="137.23" y="89.24" transform="matrix(-1 -1.224647e-16 1.224647e-16 -1 280.1698 190.8123)" class="ebene7" width="5.71" height="12.33"/>
			<path class="ebene7" d="M138.06,102.74c1.12,0.64,2.92,0.64,4.04,0c1.12-0.64,1.12-1.69,0-2.33c-1.12-0.64-2.92-0.64-4.04,0
				C136.95,101.05,136.95,102.09,138.06,102.74z"/>
		</g>
		<g>
			
				<rect x="135.46" y="72.06" transform="matrix(-1 -1.224647e-16 1.224647e-16 -1 280.1698 163.4523)" class="ebene7" width="9.26" height="19.34"/>
			<path class="ebene6" d="M142.94,91.27v4.17c-1.68,0.77-4.04,0.77-5.71,0v-4.17C138.9,90.5,141.27,90.5,142.94,91.27z"/>
			<path class="ebene7" d="M136.81,93.29c1.81,1.04,4.74,1.04,6.55,0c1.81-1.04,1.81-2.74,0-3.78c-1.81-1.04-4.74-1.04-6.55,0
				C135,90.55,135,92.24,136.81,93.29z"/>
		</g>
	</g>
</g>
<g>
	<path class="ebene7" d="M132.28,129.66c0.44,0,0.8-0.36,0.8-0.8V95.97c0-0.44-0.36-0.8-0.8-0.8c-0.44,0-0.8,0.36-0.8,0.8v32.89
		C131.48,129.3,131.84,129.66,132.28,129.66z"/>
	<g>
		<g>
			
				<rect x="129.42" y="93.9" transform="matrix(-1 -1.224647e-16 1.224647e-16 -1 264.5536 200.1371)" class="ebene7" width="5.71" height="12.33"/>
			<path class="ebene7" d="M130.26,107.4c1.12,0.64,2.92,0.64,4.04,0c1.12-0.64,1.12-1.69,0-2.33c-1.12-0.64-2.92-0.64-4.04,0
				C129.14,105.71,129.14,106.76,130.26,107.4z"/>
		</g>
		<g>
			
				<rect x="127.65" y="76.72" transform="matrix(-1 -1.224647e-16 1.224647e-16 -1 264.5536 172.7771)" class="ebene7" width="9.26" height="19.34"/>
			<path class="ebene6" d="M135.13,95.93v4.17c-1.68,0.77-4.04,0.77-5.71,0v-4.17C131.1,95.17,133.46,95.17,135.13,95.93z"/>
			<path class="ebene7" d="M129,97.95c1.81,1.04,4.74,1.04,6.55,0c1.81-1.04,1.81-2.74,0-3.78c-1.81-1.04-4.74-1.04-6.55,0
				S127.2,96.9,129,97.95z"/>
		</g>
	</g>
</g>
<g>
	<path class="ebene7" d="M124.47,134.32c0.44,0,0.8-0.36,0.8-0.8v-32.89c0-0.44-0.36-0.8-0.8-0.8s-0.8,0.36-0.8,0.8v32.89
		C123.67,133.96,124.03,134.32,124.47,134.32z"/>
	<g>
		<g>
			
				<rect x="121.61" y="98.57" transform="matrix(-1 -1.224647e-16 1.224647e-16 -1 248.9374 209.4621)" class="ebene7" width="5.71" height="12.33"/>
			<path class="ebene7" d="M122.45,112.06c1.12,0.64,2.92,0.64,4.04,0c1.12-0.64,1.12-1.69,0-2.33c-1.12-0.64-2.92-0.64-4.04,0
				C121.33,110.37,121.33,111.42,122.45,112.06z"/>
		</g>
		<g>
			
				<rect x="119.84" y="81.38" transform="matrix(-1 -1.224647e-16 1.224647e-16 -1 248.9374 182.102)" class="ebene7" width="9.26" height="19.34"/>
			<path class="ebene6" d="M127.33,100.59v4.17c-1.68,0.77-4.04,0.77-5.71,0v-4.17C123.29,99.83,125.65,99.83,127.33,100.59z"/>
			<path class="ebene7" d="M121.2,102.61c1.81,1.04,4.74,1.04,6.55,0s1.81-2.74,0-3.78c-1.81-1.04-4.74-1.04-6.55,0
				S119.39,101.57,121.2,102.61z"/>
		</g>
	</g>
</g>
<g>
	<g>
		<polygon class="ebene7" points="88.18,116.74 75.77,109.43 87.59,94.67 90.7,99.75 		"/>
		<path class="ebene7" d="M178.32,35.75l-19.81-11.4c0,0,0.75,11.38,0.75,11.4c0,0.02,11.38,3.53,11.38,3.53L178.32,35.75z"/>
		<path class="ebene7" d="M84.73,79.63c1.51-0.87,2.95-1.38,4.29-1.59c2-10.5,9.3-21.65,18.01-26.68c2.62-1.51,5.11-2.32,7.37-2.49
			c1.19-12.72,10.04-27.19,20.78-33.39c5.61-3.24,10.7-3.62,14.46-1.64l0-0.01l0.18,0.1c0.1,0.05,0.19,0.11,0.29,0.16l11.68,6.9
			l-3.88,3.07c3.49,1.52,5.69,5.43,5.69,11.21c0,10.65-7.48,23.61-16.71,28.94L84.73,108.6c-6.93,4-12.54,0.76-12.54-7.24
			C72.18,93.36,77.8,83.63,84.73,79.63z"/>
		<path class="ebene7" d="M163.02,30.59l-26.81-15.67c5.21-2.71,9.91-2.94,13.44-1.08l0-0.01l0.18,0.1c0.1,0.05,0.19,0.11,0.29,0.16
			l11.68,6.9l-3.88,3.07C160.35,25.13,162.15,27.37,163.02,30.59z"/>
		<path class="ebene7" d="M113.5,76.68L93.94,65.2c3.36-5.8,7.98-10.87,13.09-13.83c0.68-0.39,1.35-0.73,2-1.03l24.89,14.55
			L113.5,76.68z"/>
		<path class="ebene6" d="M156.28,22.28l-8.72,5.03l-15.97-9.4c1.17-0.91,2.36-1.72,3.59-2.43c1.93-1.12,3.8-1.89,5.58-2.34
			L156.28,22.28z"/>
		<path class="ebene6" d="M96.1,61.82l15.62,9.2l-5.43,6.06L92.1,68.71C93.22,66.31,94.57,63.98,96.1,61.82z"/>
		<path class="ebene6" d="M97,86.86c1.51-0.87,2.95-1.38,4.29-1.59c2-10.5,9.3-21.65,18.01-26.68c2.62-1.51,5.11-2.32,7.37-2.49
			c1.19-12.72,10.04-27.19,20.78-33.39c11.55-6.67,20.92-1.26,20.92,12.08c0,0.45-0.01,0.91-0.03,1.37
			c8.45-3.92,15.05,0.5,15.05,10.51c0,10.65-7.48,23.61-16.71,28.94L97,115.83c-6.93,4-12.55,0.76-12.55-7.24
			C84.45,100.59,90.07,90.86,97,86.86z"/>
		<g>
			<path class="ebene011" d="M168.34,36.15c0.02-0.46,0.03-0.92,0.03-1.37c0-0.02,0-0.04,0-0.06c4.67-1.81,8.68-1.03,11.2,1.89
				C176.83,34.37,172.85,34.06,168.34,36.15z"/>
			<path class="ebene011" d="M95.98,85.86c1.51-0.87,2.95-1.38,4.29-1.59c2-10.5,9.3-21.65,18.01-26.68c2.62-1.51,5.11-2.32,7.37-2.49
				c1.19-12.73,10.04-27.19,20.78-33.39c7.2-4.16,13.55-3.62,17.31,0.6c-3.84-3.28-9.71-3.4-16.29,0.4
				c-10.74,6.2-19.59,20.66-20.78,33.39c-2.26,0.17-4.75,0.98-7.37,2.49c-8.71,5.03-16.02,16.18-18.01,26.68
				c-1.34,0.21-2.78,0.72-4.29,1.59c-6.93,4-12.55,13.73-12.55,21.73c0,2.89,0.74,5.14,2,6.67c-1.88-1.45-3.02-4.07-3.02-7.67
				C83.43,99.59,89.05,89.86,95.98,85.86z"/>
		</g>
		<g>
			<path class="ebene6" d="M169.81,39.33l-5.24,2.43l0.27-5.77c0.02-0.4,0.03-0.81,0.03-1.21c0-5.15-1.55-8.88-4.38-10.51
				c-2.82-1.63-6.83-1.11-11.29,1.47c-9.59,5.54-17.95,19.01-19.05,30.68l-0.27,2.94l-2.94,0.23c-1.81,0.14-3.79,0.82-5.89,2.04
				c-7.62,4.4-14.48,14.62-16.32,24.3l-0.46,2.42l-2.44,0.38c-0.97,0.15-2.01,0.54-3.08,1.16c-5.85,3.38-10.79,11.94-10.79,18.69
				c0,2.53,0.7,4.38,1.92,5.09c1.22,0.7,3.18,0.39,5.37-0.88l69.68-40.23c8.11-4.68,14.96-16.54,14.96-25.9
				c0-3.67-1.08-6.47-2.97-7.68c-0.78-0.5-1.72-0.74-2.78-0.74C172.85,38.24,171.38,38.6,169.81,39.33z"/>
		</g>
	</g>
	<g>
		<polygon class="ebene7" points="135.03,83.01 133.19,82.08 135,80.71 		"/>
		<polygon class="ebene7" points="140.55,58.17 138.77,57.27 138.73,58.21 		"/>
		<polygon class="ebene7" points="129.79,77.2 127.92,76.27 131.51,72.86 		"/>
		<g>
			<path class="ebene7" d="M133.73,82.02l8.7-5.13c0.44-0.26,0.8-0.92,0.8-1.46l-0.03-10.08l-10.3,6.07l0.03,10.08
				C132.93,82.05,133.29,82.28,133.73,82.02z"/>
			<path class="ebene7" d="M138.79,57.28l9.4,6.05c0.4,0.26,0.08,1.21-0.53,1.57l-9.6,5.65l-9.6,5.65c-0.61,0.36-0.93-0.22-0.54-0.94
				l9.33-17.08C137.66,57.45,138.38,57.02,138.79,57.28z"/>
		</g>
		<g>
			<path class="ebene6" d="M135.6,82.96l8.7-5.13c0.44-0.26,0.8-0.92,0.8-1.46l-0.03-10.08l-10.3,6.07l0.03,10.08
				C134.79,82.99,135.15,83.22,135.6,82.96z"/>
			<path class="ebene6" d="M140.65,58.22l9.4,6.05c0.4,0.26,0.08,1.21-0.53,1.57l-9.6,5.65l-9.6,5.65c-0.61,0.36-0.93-0.22-0.54-0.94
				l9.33-17.08C139.52,58.39,140.25,57.96,140.65,58.22z"/>
		</g>
	</g>
</g>
<polygon class="ebene011" points="104.16,261.61 105.23,261.61 105.23,202.04 98.19,197.98 98.19,168.66 97.13,168.66 97.13,198.59 
	104.16,202.65 "/>
<g>
	<path class="ebene0" d="M273.26,274.48c0.62,0,1.24-0.16,1.8-0.48l19.44-11.01c0.59-0.33,0.94-0.94,0.95-1.62
		c0-0.68-0.35-1.29-0.93-1.62l-48.48-28.04c-2.78-1.61-6.24-1.61-9.02,0l-55.42,32.03l0.8,1.38l55.41-32.03
		c2.29-1.32,5.13-1.32,7.42,0l48.48,28.04c0.12,0.07,0.13,0.18,0.13,0.23c0,0.06-0.02,0.17-0.14,0.23l-19.44,11.01
		c-0.67,0.38-1.48,0.36-2.13-0.06l-8.21-5.31l-0.87,1.34l8.21,5.31C271.88,274.28,272.57,274.48,273.26,274.48z"/>
</g>
<path class="ebene0" d="M244.62,292.15c0.94,0,1.87-0.24,2.71-0.73l16.49-9.57c0.56-0.33,0.89-0.91,0.89-1.55s-0.34-1.23-0.9-1.55
	l-10.84-6.29l-0.8,1.38l10.84,6.29c0.08,0.05,0.1,0.12,0.1,0.17c0,0.05-0.02,0.12-0.1,0.17l-16.49,9.57
	c-1.16,0.67-2.61,0.68-3.78,0.01l-32.29-18.4c-1.66-0.95-3.72-0.94-5.38,0.02l-27.05,15.62c-1.17,0.68-2.63,0.69-3.81,0.01
	l-13.04-7.54l-0.8,1.38l13.04,7.54c1.67,0.97,3.74,0.96,5.41-0.01l27.05-15.62c1.17-0.68,2.62-0.68,3.79-0.02l32.29,18.4
	C242.78,291.92,243.7,292.15,244.62,292.15z"/>
<path class="ebene6" d="M148.77,94.77c0,0.57,0.4,0.8,0.89,0.51c0.49-0.28,0.89-0.97,0.89-1.54s-0.4-0.8-0.89-0.51
	C149.17,93.51,148.77,94.2,148.77,94.77z"/>
<path class="ebene6" d="M140.94,99.52c0,0.57,0.4,0.8,0.89,0.51c0.49-0.28,0.89-0.97,0.89-1.54s-0.4-0.8-0.89-0.51
	C141.34,98.26,140.94,98.95,140.94,99.52z"/>
<path class="ebene6" d="M133.1,104.27c0,0.57,0.4,0.8,0.89,0.51c0.49-0.28,0.89-0.97,0.89-1.54s-0.4-0.8-0.89-0.51
	C133.5,103.01,133.1,103.7,133.1,104.27z"/>
<path class="ebene6" d="M125.27,109.02c0,0.57,0.4,0.8,0.89,0.51c0.49-0.28,0.89-0.97,0.89-1.54s-0.4-0.8-0.89-0.51
	C125.67,107.76,125.27,108.45,125.27,109.02z"/>
<path class="ebene6" d="M153.23,190.58c0,0.44,0.36,0.8,0.8,0.8c0.44,0,0.8-0.36,0.8-0.8c0-0.44-0.36-0.8-0.8-0.8
	C153.58,189.78,153.23,190.14,153.23,190.58z"/>
<path class="ebene6" d="M153.23,190.58c0,0.44,0.36,0.8,0.8,0.8c0.44,0,0.8-0.36,0.8-0.8c0-0.44-0.36-0.8-0.8-0.8
	C153.58,189.78,153.23,190.14,153.23,190.58z"/>
<circle class="ebene6" cx="154.03" cy="190.58" r="0.8"/>
<path class="ebene6" d="M153.23,190.58c0,0.44,0.36,0.8,0.8,0.8c0.44,0,0.8-0.36,0.8-0.8c0-0.44-0.36-0.8-0.8-0.8
	C153.58,189.78,153.23,190.14,153.23,190.58z"/>
<g>
	<path class="ebene1" d="M247.06,276.77l24.94-14.4c1.53-0.88,1.34-2.43-0.43-3.45l-24.08-13.9c-1.77-1.02-4.44-1.13-5.97-0.25
		l-24.94,14.4c-1.53,0.88-1.34,2.43,0.43,3.45l24.08,13.9C242.86,277.54,245.53,277.65,247.06,276.77z"/>
	<g>
		<path class="ebene2" d="M208.31,248.2L208.31,248.2v-10.78l24.16-0.01l8.35-4.82c1.92-1.11,5.26-0.97,7.48,0.31l7.79,4.5l24.18-0.01
			v11.08c0.05,0.75-0.36,1.47-1.28,2l-31.23,18.03c-1.92,1.11-5.26,0.97-7.48-0.31l-30.15-17.41
			C208.85,250.04,208.23,249.09,208.31,248.2z"/>
		<path class="ebene2" d="M244.29,231.85c1.4,0.03,2.86,0.39,4.01,1.05l7.79,4.5l24.18-0.01v11.08c0.05,0.75-0.36,1.47-1.28,2
			l-31.23,18.03c-0.92,0.53-2.17,0.77-3.47,0.74V231.85z"/>
		<path class="ebene3" d="M277.54,237.39l2.74,0v11.08c0.05,0.75-0.36,1.47-1.28,2l-1.45,0.84V237.39z"/>
		<path class="ebene3" d="M247.28,268.74c-1.65,0.71-4.04,0.67-5.98-0.07v-12.58h5.98V268.74z"/>
		<path class="ebene4" d="M247.76,257.46l31.23-18.03c1.92-1.11,1.68-3.04-0.54-4.32L248.3,217.7c-2.21-1.28-5.56-1.42-7.48-0.31
			l-31.23,18.03c-1.92,1.11-1.68,3.04,0.54,4.32l30.15,17.41C242.5,258.43,245.84,258.57,247.76,257.46z"/>
		<path class="ebene5" d="M247.2,254.21l26.17-15.11c1.61-0.93,1.4-2.55-0.45-3.62l-25.27-14.59c-1.85-1.07-4.66-1.19-6.27-0.26
			l-26.17,15.11c-1.61,0.93-1.4,2.55,0.45,3.62l25.27,14.59C242.79,255.03,245.59,255.14,247.2,254.21z"/>
		<g>
			<path class="ebene4" d="M219.79,251.04c0,0.8,0.56,1.78,1.26,2.18c0.7,0.4,1.26,0.08,1.26-0.73s-0.56-1.78-1.26-2.18
				C220.36,249.91,219.79,250.24,219.79,251.04z"/>
			<path class="ebene4" d="M215.73,248.7c0,0.8,0.56,1.78,1.26,2.18c0.7,0.4,1.26,0.08,1.26-0.73s-0.56-1.78-1.26-2.18
				C216.3,247.57,215.73,247.9,215.73,248.7z"/>
			<path class="ebene4" d="M211.68,246.36c0,0.8,0.56,1.78,1.26,2.18c0.7,0.4,1.26,0.08,1.26-0.73s-0.56-1.78-1.26-2.18
				C212.24,245.23,211.68,245.55,211.68,246.36z"/>
		</g>
	</g>
	<g>
		<path class="ebene2" d="M208.31,230.73L208.31,230.73v-10.78l24.16-0.01l8.35-4.82c1.92-1.11,5.26-0.97,7.48,0.31l7.79,4.5
			l24.18-0.01v11.08c0.05,0.75-0.36,1.47-1.28,2l-31.23,18.03c-1.92,1.11-5.26,0.97-7.48-0.31l-30.15-17.41
			C208.85,232.57,208.23,231.61,208.31,230.73z"/>
		<path class="ebene2" d="M244.29,214.37c1.4,0.03,2.86,0.39,4.01,1.05l7.79,4.5l24.18-0.01v11.08c0.05,0.75-0.36,1.47-1.28,2
			l-31.23,18.03c-0.92,0.53-2.17,0.77-3.47,0.74V214.37z"/>
		<path class="ebene3" d="M277.54,219.91l2.74,0v11.08c0.05,0.75-0.36,1.47-1.28,2l-1.45,0.84V219.91z"/>
		<path class="ebene3" d="M247.28,251.26c-1.65,0.71-4.04,0.67-5.98-0.07v-12.58h5.98V251.26z"/>
		<path class="ebene4" d="M247.76,239.98l31.23-18.03c1.92-1.11,1.68-3.04-0.54-4.32l-30.15-17.41c-2.21-1.28-5.56-1.42-7.48-0.31
			l-31.23,18.03c-1.92,1.11-1.68,3.04,0.54,4.32l30.15,17.41C242.5,240.95,245.84,241.09,247.76,239.98z"/>
		<path class="ebene5" d="M247.2,236.74l26.17-15.11c1.61-0.93,1.4-2.55-0.45-3.62l-25.27-14.59c-1.85-1.07-4.66-1.19-6.27-0.26
			l-26.17,15.11c-1.61,0.93-1.4,2.55,0.45,3.62l25.27,14.59C242.79,237.55,245.59,237.67,247.2,236.74z"/>
		<g>
			<path class="ebene4" d="M219.79,233.57c0,0.8,0.56,1.78,1.26,2.18c0.7,0.4,1.26,0.08,1.26-0.73s-0.56-1.78-1.26-2.18
				C220.36,232.44,219.79,232.76,219.79,233.57z"/>
			<path class="ebene4" d="M215.73,231.23c0,0.8,0.56,1.78,1.26,2.18c0.7,0.4,1.26,0.08,1.26-0.73s-0.56-1.78-1.26-2.18
				C216.3,230.1,215.73,230.42,215.73,231.23z"/>
			<ellipse transform="matrix(0.866 -0.5 0.5 0.866 -86.2823 137.2469)" class="ebene4" cx="212.94" cy="229.61" rx="1.03" ry="1.78"/>
		</g>
	</g>
	<g>
		<path class="ebene2" d="M208.31,213.25L208.31,213.25v-10.78l24.16-0.01l8.35-4.82c1.92-1.11,5.26-0.97,7.48,0.31l7.79,4.5
			l24.18-0.01v11.08c0.05,0.75-0.36,1.47-1.28,2l-31.23,18.03c-1.92,1.11-5.26,0.97-7.48-0.31l-30.15-17.41
			C208.85,215.09,208.23,214.14,208.31,213.25z"/>
		<path class="ebene2" d="M244.29,196.9c1.4,0.03,2.86,0.39,4.01,1.05l7.79,4.5l24.18-0.01v11.08c0.05,0.75-0.36,1.47-1.28,2
			l-31.23,18.03c-0.92,0.53-2.17,0.77-3.47,0.74V196.9z"/>
		<path class="ebene3" d="M277.54,202.44l2.74,0v11.08c0.05,0.75-0.36,1.47-1.28,2l-1.45,0.84V202.44z"/>
		<path class="ebene3" d="M247.28,233.79c-1.65,0.71-4.04,0.67-5.98-0.07v-12.58h5.98V233.79z"/>
		<path class="ebene2" d="M247.76,222.51l31.23-18.03c1.92-1.11,1.68-3.04-0.54-4.32l-30.15-17.41c-2.21-1.28-5.56-1.42-7.48-0.31
			l-31.23,18.03c-1.92,1.11-1.68,3.04,0.54,4.32l30.15,17.41C242.5,223.48,245.84,223.61,247.76,222.51z"/>
		<path class="ebene4" d="M210.13,202.67l30.15,17.41c2.21,1.28,5.56,1.42,7.48,0.31l31.23-18.03c0.43-0.25,0.74-0.54,0.96-0.85
			c0.66,1.06,0.36,2.21-0.96,2.97l-31.23,18.03c-1.92,1.11-5.26,0.97-7.48-0.31l-30.15-17.41c-1.72-0.99-2.24-2.38-1.49-3.47
			C208.93,201.8,209.43,202.27,210.13,202.67z"/>
		<g>
			<path class="ebene4" d="M219.79,216.09c0,0.8,0.56,1.78,1.26,2.18c0.7,0.4,1.26,0.08,1.26-0.73s-0.56-1.78-1.26-2.18
				C220.36,214.96,219.79,215.29,219.79,216.09z"/>
			<path class="ebene4" d="M215.73,213.75c0,0.8,0.56,1.78,1.26,2.18c0.7,0.4,1.26,0.08,1.26-0.73c0-0.8-0.56-1.78-1.26-2.18
				C216.3,212.62,215.73,212.95,215.73,213.75z"/>
			<path class="ebene4" d="M211.68,211.41c0,0.8,0.56,1.78,1.26,2.18c0.7,0.4,1.26,0.08,1.26-0.73c0-0.8-0.56-1.78-1.26-2.18
				C212.24,210.28,211.68,210.6,211.68,211.41z"/>
		</g>
		<g>
			<path class="ebene5" d="M245.91,211.81l14.61-8.44c0.9-0.52,0.78-1.42-0.25-2.02l-14.11-8.15c-1.04-0.6-2.6-0.66-3.5-0.15
				l-14.61,8.44c-0.9,0.52-0.78,1.42,0.25,2.02l14.11,8.15C243.45,212.26,245.02,212.33,245.91,211.81z"/>
			<path class="ebene4" d="M244.51,204.74l2.02-1.17c0.12-0.07,0.11-0.2-0.03-0.28l-1.95-1.13c-0.14-0.08-0.36-0.09-0.48-0.02
				l-2.02,1.17c-0.12,0.07-0.11,0.2,0.03,0.28l1.95,1.13C244.17,204.81,244.39,204.82,244.51,204.74z"/>
			<path class="ebene4" d="M235.56,214l2.02-1.17c0.12-0.07,0.11-0.2-0.03-0.28l-1.95-1.13c-0.14-0.08-0.36-0.09-0.48-0.02l-2.02,1.17
				c-0.12,0.07-0.11,0.2,0.03,0.28l1.95,1.13C235.22,214.07,235.43,214.08,235.56,214z"/>
			<path class="ebene4" d="M231.14,211.43l2.02-1.17c0.12-0.07,0.11-0.2-0.03-0.28l-1.95-1.13c-0.14-0.08-0.36-0.09-0.48-0.02
				l-2.02,1.17c-0.12,0.07-0.11,0.2,0.03,0.28l1.95,1.13C230.8,211.49,231.02,211.5,231.14,211.43z"/>
			<path class="ebene4" d="M226.72,208.85l2.02-1.17c0.12-0.07,0.11-0.2-0.03-0.28l-1.95-1.13c-0.14-0.08-0.36-0.09-0.48-0.02
				l-2.02,1.17c-0.12,0.07-0.11,0.2,0.03,0.28l1.95,1.13C226.38,208.92,226.6,208.93,226.72,208.85z"/>
			<path class="ebene3" d="M260.53,203.37l-0.04,0.02c-0.07-0.05-0.13-0.1-0.21-0.14l-14.11-8.15c-1.04-0.6-2.6-0.66-3.5-0.15
				l-14.57,8.41c-0.83-0.59-0.87-1.4-0.04-1.88l14.61-8.44c0.9-0.52,2.46-0.45,3.5,0.15l14.11,8.15
				C261.31,201.95,261.42,202.85,260.53,203.37z"/>
		</g>
	</g>
	<path class="ebene5" d="M257.09,242.26l12.64-7.3c0.78-0.45,1.41-1.66,1.41-2.7l0,0c0-1.04-0.63-1.52-1.41-1.07l-12.64,7.3
		c-0.78,0.45-1.41,1.66-1.41,2.7l0,0C255.68,242.23,256.31,242.71,257.09,242.26z"/>
	<path class="ebene4" d="M255.96,241.56l12.64-7.3c0.78-0.45,1.41-1.66,1.41-2.7c0-0.18-0.02-0.33-0.06-0.47
		c0.67-0.24,1.19,0.23,1.19,1.17c0,1.04-0.63,2.25-1.41,2.7l-12.64,7.3c-0.65,0.37-1.19,0.1-1.35-0.6
		C255.81,241.64,255.89,241.61,255.96,241.56z"/>
</g>
<g>
	<path class="ebene1" d="M101.99,349.22l24.94-14.4c1.53-0.88,1.34-2.43-0.43-3.45l-24.08-13.9c-1.77-1.02-4.44-1.13-5.97-0.25
		l-24.94,14.4c-1.53,0.88-1.34,2.43,0.43,3.45l24.08,13.9C97.79,350,100.46,350.11,101.99,349.22z"/>
	<g>
		<path class="ebene2" d="M63.24,320.66L63.24,320.66v-10.78l24.16-0.01l8.35-4.82c1.92-1.11,5.26-0.97,7.48,0.31l7.79,4.5l24.18-0.01
			v11.08c0.05,0.75-0.36,1.47-1.28,2l-31.23,18.03c-1.92,1.11-5.26,0.97-7.48-0.31l-30.15-17.41
			C63.78,322.5,63.16,321.55,63.24,320.66z"/>
		<path class="ebene2" d="M99.22,304.3c1.4,0.03,2.86,0.39,4.01,1.05l7.79,4.5l24.18-0.01v11.08c0.05,0.75-0.36,1.47-1.28,2
			l-31.23,18.03c-0.92,0.53-2.17,0.77-3.47,0.74V304.3z"/>
		<path class="ebene3" d="M132.47,309.84l2.74,0v11.08c0.05,0.75-0.36,1.47-1.28,2l-1.45,0.84V309.84z"/>
		<path class="ebene3" d="M102.21,341.19c-1.65,0.71-4.04,0.67-5.98-0.07v-12.58h5.98V341.19z"/>
		<path class="ebene4" d="M102.69,329.92l31.23-18.03c1.92-1.11,1.68-3.04-0.54-4.32l-30.15-17.41c-2.21-1.28-5.56-1.42-7.48-0.31
			l-31.23,18.03c-1.92,1.11-1.68,3.04,0.54,4.32l30.15,17.41C97.43,330.88,100.77,331.02,102.69,329.92z"/>
		<path class="ebene5" d="M102.13,326.67l26.17-15.11c1.61-0.93,1.4-2.55-0.45-3.62l-25.27-14.59c-1.85-1.07-4.66-1.19-6.27-0.26
			L70.14,308.2c-1.61,0.93-1.4,2.55,0.45,3.62l25.27,14.59C97.72,327.48,100.52,327.6,102.13,326.67z"/>
		<g>
			<path class="ebene4" d="M74.72,323.5c0,0.8,0.56,1.78,1.26,2.18c0.7,0.4,1.26,0.08,1.26-0.73c0-0.8-0.56-1.78-1.26-2.18
				C75.29,322.37,74.72,322.7,74.72,323.5z"/>
			<path class="ebene4" d="M70.66,321.16c0,0.8,0.56,1.78,1.26,2.18c0.7,0.4,1.26,0.08,1.26-0.73c0-0.8-0.56-1.78-1.26-2.18
				C71.23,320.03,70.66,320.35,70.66,321.16z"/>
			<path class="ebene4" d="M66.61,318.81c0,0.8,0.56,1.78,1.26,2.18c0.7,0.4,1.26,0.08,1.26-0.73s-0.56-1.78-1.26-2.18
				C67.17,317.68,66.61,318.01,66.61,318.81z"/>
		</g>
	</g>
	<g>
		<path class="ebene2" d="M63.24,303.18L63.24,303.18v-10.78l24.16-0.01l8.35-4.82c1.92-1.11,5.26-0.97,7.48,0.31l7.79,4.5l24.18-0.01
			v11.08c0.05,0.75-0.36,1.47-1.28,2l-31.23,18.03c-1.92,1.11-5.26,0.97-7.48-0.31l-30.15-17.41
			C63.78,305.02,63.16,304.07,63.24,303.18z"/>
		<path class="ebene2" d="M99.22,286.83c1.4,0.03,2.86,0.39,4.01,1.05l7.79,4.5l24.18-0.01v11.08c0.05,0.75-0.36,1.47-1.28,2
			l-31.23,18.03c-0.92,0.53-2.17,0.77-3.47,0.74V286.83z"/>
		<path class="ebene3" d="M132.47,292.37l2.74,0v11.08c0.05,0.75-0.36,1.47-1.28,2l-1.45,0.84V292.37z"/>
		<path class="ebene3" d="M102.21,323.72c-1.65,0.71-4.04,0.67-5.98-0.07v-12.58h5.98V323.72z"/>
		<path class="ebene4" d="M102.69,312.44l31.23-18.03c1.92-1.11,1.68-3.04-0.54-4.32l-30.15-17.41c-2.21-1.28-5.56-1.42-7.48-0.31
			L64.52,290.4c-1.92,1.11-1.68,3.04,0.54,4.32l30.15,17.41C97.43,313.41,100.77,313.55,102.69,312.44z"/>
		<path class="ebene5" d="M102.13,309.19l26.17-15.11c1.61-0.93,1.4-2.55-0.45-3.62l-25.27-14.59c-1.85-1.07-4.66-1.19-6.27-0.26
			l-26.17,15.11c-1.61,0.93-1.4,2.55,0.45,3.62l25.27,14.59C97.72,310.01,100.52,310.12,102.13,309.19z"/>
		<g>
			<path class="ebene4" d="M74.72,306.02c0,0.8,0.56,1.78,1.26,2.18c0.7,0.4,1.26,0.08,1.26-0.73c0-0.8-0.56-1.78-1.26-2.18
				C75.29,304.89,74.72,305.22,74.72,306.02z"/>
			<path class="ebene4" d="M70.66,303.68c0,0.8,0.56,1.78,1.26,2.18c0.7,0.4,1.26,0.08,1.26-0.73c0-0.8-0.56-1.78-1.26-2.18
				C71.23,302.55,70.66,302.88,70.66,303.68z"/>
			<ellipse transform="matrix(0.866 -0.5 0.5 0.866 -141.9529 74.4143)" class="ebene4" cx="67.87" cy="302.07" rx="1.03" ry="1.78"/>
		</g>
	</g>
	<g>
		<path class="ebene2" d="M63.24,285.71L63.24,285.71v-10.78l24.16-0.01l8.35-4.82c1.92-1.11,5.26-0.97,7.48,0.31l7.79,4.5l24.18-0.01
			v11.08c0.05,0.75-0.36,1.47-1.28,2l-31.23,18.03c-1.92,1.11-5.26,0.97-7.48-0.31l-30.15-17.41
			C63.78,287.55,63.16,286.59,63.24,285.71z"/>
		<path class="ebene2" d="M99.22,269.35c1.4,0.03,2.86,0.39,4.01,1.05l7.79,4.5l24.18-0.01v11.08c0.05,0.75-0.36,1.47-1.28,2
			l-31.23,18.03c-0.92,0.53-2.17,0.77-3.47,0.74V269.35z"/>
		<path class="ebene3" d="M132.47,274.89l2.74,0v11.08c0.05,0.75-0.36,1.47-1.28,2l-1.45,0.84V274.89z"/>
		<path class="ebene3" d="M102.21,306.24c-1.65,0.71-4.04,0.67-5.98-0.07v-12.58h5.98V306.24z"/>
		<path class="ebene2" d="M102.69,294.96l31.23-18.03c1.92-1.11,1.68-3.04-0.54-4.32l-30.15-17.41c-2.21-1.28-5.56-1.42-7.48-0.31
			l-31.23,18.03c-1.92,1.11-1.68,3.04,0.54,4.32l30.15,17.41C97.43,295.93,100.77,296.07,102.69,294.96z"/>
		<path class="ebene4" d="M65.06,275.12l30.15,17.41c2.21,1.28,5.56,1.42,7.48,0.31l31.23-18.03c0.43-0.25,0.74-0.54,0.96-0.85
			c0.66,1.06,0.36,2.21-0.96,2.97l-31.23,18.03c-1.92,1.11-5.26,0.97-7.48-0.31l-30.15-17.41c-1.72-0.99-2.24-2.38-1.49-3.47
			C63.86,274.26,64.36,274.72,65.06,275.12z"/>
		<g>
			<path class="ebene4" d="M74.72,288.55c0,0.8,0.56,1.78,1.26,2.18c0.7,0.4,1.26,0.08,1.26-0.73c0-0.8-0.56-1.78-1.26-2.18
				C75.29,287.42,74.72,287.74,74.72,288.55z"/>
			<path class="ebene4" d="M70.66,286.21c0,0.8,0.56,1.78,1.26,2.18c0.7,0.4,1.26,0.08,1.26-0.73s-0.56-1.78-1.26-2.18
				C71.23,285.08,70.66,285.4,70.66,286.21z"/>
			<path class="ebene4" d="M66.61,283.86c0,0.8,0.56,1.78,1.26,2.18c0.7,0.4,1.26,0.08,1.26-0.73c0-0.8-0.56-1.78-1.26-2.18
				C67.17,282.73,66.61,283.06,66.61,283.86z"/>
		</g>
		<g>
			<path class="ebene5" d="M100.84,284.26l14.61-8.44c0.9-0.52,0.78-1.42-0.25-2.02l-14.11-8.15c-1.04-0.6-2.6-0.66-3.5-0.15
				l-14.61,8.44c-0.9,0.52-0.78,1.42,0.25,2.02l14.11,8.15C98.38,284.72,99.95,284.78,100.84,284.26z"/>
			<path class="ebene4" d="M99.44,277.2l2.02-1.17c0.12-0.07,0.11-0.2-0.03-0.28l-1.95-1.13c-0.14-0.08-0.36-0.09-0.48-0.02l-2.02,1.17
				c-0.12,0.07-0.11,0.2,0.03,0.28l1.95,1.13C99.1,277.26,99.32,277.27,99.44,277.2z"/>
			<path class="ebene4" d="M90.49,286.46l2.02-1.17c0.12-0.07,0.11-0.2-0.03-0.28l-1.95-1.13c-0.14-0.08-0.36-0.09-0.48-0.02
				l-2.02,1.17c-0.12,0.07-0.11,0.2,0.03,0.28l1.95,1.13C90.15,286.52,90.36,286.53,90.49,286.46z"/>
			<path class="ebene4" d="M86.07,283.88l2.02-1.17c0.12-0.07,0.11-0.2-0.03-0.28l-1.95-1.13c-0.14-0.08-0.36-0.09-0.48-0.02
				l-2.02,1.17c-0.12,0.07-0.11,0.2,0.03,0.28l1.95,1.13C85.73,283.95,85.95,283.96,86.07,283.88z"/>
			<path class="ebene4" d="M81.65,281.31l2.02-1.17c0.12-0.07,0.11-0.2-0.03-0.28l-1.95-1.13c-0.14-0.08-0.36-0.09-0.48-0.02
				l-2.02,1.17c-0.12,0.07-0.11,0.2,0.03,0.28l1.95,1.13C81.31,281.37,81.53,281.38,81.65,281.31z"/>
			<path class="ebene3" d="M115.46,275.83l-0.04,0.02c-0.07-0.05-0.13-0.1-0.21-0.14l-14.11-8.15c-1.04-0.6-2.6-0.66-3.5-0.15
				l-14.57,8.41c-0.83-0.59-0.87-1.4-0.04-1.88l14.61-8.44c0.9-0.52,2.46-0.45,3.5,0.15l14.11,8.15
				C116.24,274.4,116.35,275.31,115.46,275.83z"/>
		</g>
	</g>
	<path class="ebene5" d="M112.02,314.72l12.64-7.3c0.78-0.45,1.41-1.66,1.41-2.7l0,0c0-1.04-0.63-1.52-1.41-1.07l-12.64,7.3
		c-0.78,0.45-1.41,1.66-1.41,2.7l0,0C110.61,314.69,111.24,315.17,112.02,314.72z"/>
	<path class="ebene4" d="M110.89,314.02l12.64-7.3c0.78-0.45,1.41-1.66,1.41-2.7c0-0.18-0.02-0.33-0.06-0.47
		c0.67-0.24,1.19,0.23,1.19,1.17c0,1.04-0.63,2.25-1.41,2.7l-12.64,7.3c-0.65,0.37-1.19,0.1-1.35-0.6
		C110.74,314.09,110.82,314.06,110.89,314.02z"/>
</g>
</svg>
