<?xml version="1.0" encoding="utf-8"?>
<!-- Generator: Adobe Illustrator 23.1.1, SVG Export Plug-In . SVG Version: 6.00 Build 0)  -->
<svg version="1.1" id="Layer_1" xmlns="http://www.w3.org/2000/svg" xmlns:xlink="http://www.w3.org/1999/xlink" x="0px" y="0px"
	 viewBox="0 0 1200 600" style="enable-background:new 0 0 1200 600;" xml:space="preserve">
<g>
	<defs>
		<rect id="SVGID_1_" width="1200" height="600"/>
	</defs>
	<clipPath id="SVGID_2_">
		<use xlink:href="#SVGID_1_"  style="overflow:visible;"/>
	</clipPath>
	<linearGradient id="SVGID_3_" gradientUnits="userSpaceOnUse" x1="26.8924" y1="98.676" x2="1175.2114" y2="502.063">
		<stop  offset="0.1155" style="stop-color:#38ADA9"/>
		<stop  offset="0.4826" style="stop-color:#5ECFCC"/>
		<stop  offset="0.9984" style="stop-color:#90FCF9"/>
	</linearGradient>
	<rect style="clip-path:url(#SVGID_2_);fill:url(#SVGID_3_);" width="1200" height="600"/>
	<g id="XMLID_413_" style="opacity:0.51;clip-path:url(#SVGID_2_);">
		<g id="XMLID_414_">
			<g id="XMLID_423_">
				
					<rect id="XMLID_424_" x="357.5" y="532.7" transform="matrix(0.7071 -0.7071 0.7071 0.7071 -268.4198 419.0719)" style="fill:#FFFFFF;" width="28.4" height="1.8"/>
			</g>
			<g id="XMLID_421_">
				
					<rect id="XMLID_422_" x="377.6" y="532.7" transform="matrix(0.7071 -0.7071 0.7071 0.7071 -262.5449 433.2913)" style="fill:#FFFFFF;" width="28.4" height="1.8"/>
			</g>
			<g id="XMLID_419_">
				
					<rect id="XMLID_420_" x="397.6" y="532.7" transform="matrix(0.7071 -0.7071 0.7071 0.7071 -256.662 447.4594)" style="fill:#FFFFFF;" width="28.4" height="1.8"/>
			</g>
			<g id="XMLID_417_">
				
					<rect id="XMLID_418_" x="417.7" y="532.7" transform="matrix(0.7071 -0.7071 0.7071 0.7071 -250.7828 461.6503)" style="fill:#FFFFFF;" width="28.4" height="1.8"/>
			</g>
			<g id="XMLID_415_">
				
					<rect id="XMLID_416_" x="437.8" y="532.7" transform="matrix(0.7072 -0.7071 0.7071 0.7072 -244.9021 475.8227)" style="fill:#FFFFFF;" width="28.4" height="1.8"/>
			</g>
		</g>
	</g>
	<g id="XMLID_323_" style="clip-path:url(#SVGID_2_);">
		<g id="XMLID_324_">
			<g id="XMLID_333_">
				
					<rect id="XMLID_334_" x="705.5" y="412.7" transform="matrix(0.7071 -0.7071 0.7071 0.7071 -81.6532 629.9916)" style="fill:#FFFFFF;" width="28.4" height="1.8"/>
			</g>
			<g id="XMLID_331_">
				
					<rect id="XMLID_332_" x="725.6" y="412.7" transform="matrix(0.7071 -0.7071 0.7071 0.7071 -75.7652 644.2172)" style="fill:#FFFFFF;" width="28.4" height="1.8"/>
			</g>
			<g id="XMLID_329_">
				
					<rect id="XMLID_330_" x="745.6" y="412.7" transform="matrix(0.7071 -0.7071 0.7071 0.7071 -69.8953 658.379)" style="fill:#FFFFFF;" width="28.4" height="1.8"/>
			</g>
			<g id="XMLID_327_">
				
					<rect id="XMLID_328_" x="765.7" y="412.7" transform="matrix(0.7071 -0.7071 0.7071 0.7071 -64.0184 672.5664)" style="fill:#FFFFFF;" width="28.4" height="1.8"/>
			</g>
			<g id="XMLID_325_">
				
					<rect id="XMLID_326_" x="785.8" y="412.7" transform="matrix(0.7072 -0.7071 0.7071 0.7072 -58.146 686.7397)" style="fill:#FFFFFF;" width="28.4" height="1.8"/>
			</g>
		</g>
	</g>
	<g style="clip-path:url(#SVGID_2_);">
		
			<rect x="807.2" y="58.8" transform="matrix(0.7071 -0.7071 0.7071 0.7071 278.0948 791.0078)" style="fill:#FFFFFF;" width="573.2" height="2"/>
	</g>
	<g style="clip-path:url(#SVGID_2_);">
		
			<rect x="926.2" y="-13.2" transform="matrix(0.7071 -0.7071 0.7071 0.7071 363.8656 854.0664)" style="fill:#FFFFFF;" width="573.2" height="2"/>
	</g>
	<g style="clip-path:url(#SVGID_2_);">
		
			<rect x="355.2" y="692.8" transform="matrix(0.7071 -0.7071 0.7071 0.7071 -302.6258 657.0944)" style="fill:#FFFFFF;" width="573.2" height="2"/>
	</g>
	<g style="clip-path:url(#SVGID_2_);">
		
			<rect x="474.2" y="620.8" transform="matrix(0.7071 -0.7071 0.7071 0.7071 -216.855 720.153)" style="fill:#FFFFFF;" width="573.2" height="2"/>
	</g>
	<g style="opacity:0.2;clip-path:url(#SVGID_2_);">
		
			<rect x="-42.8" y="-29.2" transform="matrix(0.7071 -0.7071 0.7071 0.7071 91.3419 164.169)" style="fill:#FFFFFF;" width="573.2" height="2"/>
	</g>
	<g style="opacity:0.2;clip-path:url(#SVGID_2_);">
		
			<rect x="76.2" y="-101.2" transform="matrix(0.7071 -0.7071 0.7071 0.7071 177.1127 227.2276)" style="fill:#FFFFFF;" width="573.2" height="2"/>
	</g>
	<g style="opacity:0.51;clip-path:url(#SVGID_2_);">
		
			<rect x="-318.8" y="627.8" transform="matrix(0.7071 -0.7071 0.7071 0.7071 -454.0891 161.4479)" style="fill:#FFFFFF;" width="573.2" height="2"/>
	</g>
	<g style="opacity:0.51;clip-path:url(#SVGID_2_);">
		
			<rect x="-199.8" y="555.8" transform="matrix(0.7071 -0.7071 0.7071 0.7071 -368.3183 224.5065)" style="fill:#FFFFFF;" width="573.2" height="2"/>
	</g>
	<g style="opacity:0.49;clip-path:url(#SVGID_2_);">
		<g>
			<path style="fill:#FFFFFF;" d="M-91.7,225.6l-20.4,35.3C-107.7,247.8-100.7,235.8-91.7,225.6z"/>
		</g>
		<g>
			<path style="fill:#FFFFFF;" d="M-75,210.4l-41.9,72.5c0.3-2.6,0.6-5.2,1.1-7.8l34.6-59.9C-79.2,213.5-77.1,211.9-75,210.4z"/>
		</g>
		<g>
			<path style="fill:#FFFFFF;" d="M-62.6,202.6l-54.8,94.8c0-1.2-0.1-2.4-0.1-3.7c0-0.7,0-1.4,0-2.1l49.8-86.2
				C-66,204.4-64.3,203.5-62.6,202.6z"/>
		</g>
		<g>
			<path style="fill:#FFFFFF;" d="M-51.8,197.7l-64.4,111.6c-0.2-1.6-0.4-3.2-0.6-4.8l60.6-104.9C-54.8,198.9-53.3,198.2-51.8,197.7
				z"/>
		</g>
		<g>
			<path style="fill:#FFFFFF;" d="M-42.1,194.4l-72.2,125c-0.4-1.4-0.7-2.8-1-4.2l69.1-119.6C-44.8,195.2-43.4,194.8-42.1,194.4z"/>
		</g>
		<g>
			<path style="fill:#FFFFFF;" d="M-32.9,192.3l-78.6,136.1c-0.4-1.2-0.9-2.5-1.2-3.7l76-131.6C-35.5,192.8-34.2,192.5-32.9,192.3z"
				/>
		</g>
		<g>
			<path style="fill:#FFFFFF;" d="M-24.3,191.1l-83.9,145.3c-0.5-1.1-1-2.2-1.4-3.3L-28,191.5C-26.8,191.3-25.5,191.2-24.3,191.1z"
				/>
		</g>
		<g>
			<path style="fill:#FFFFFF;" d="M-16.2,190.6l-88.4,153.1c-0.6-1-1.1-2-1.6-3l86.6-150C-18.5,190.7-17.3,190.6-16.2,190.6z"/>
		</g>
		<g>
			<path style="fill:#FFFFFF;" d="M-8.4,190.8l-92.2,159.6c-0.6-0.9-1.2-1.8-1.8-2.8l90.7-157C-10.5,190.6-9.4,190.7-8.4,190.8z"/>
		</g>
		<g>
			<path style="fill:#FFFFFF;" d="M-0.8,191.4l-95.3,165.1c-0.7-0.8-1.3-1.7-1.9-2.6l94-162.9C-3,191.2-1.9,191.3-0.8,191.4z"/>
		</g>
		<g>
			<path style="fill:#FFFFFF;" d="M6.4,192.6l-97.9,169.5c-0.7-0.8-1.4-1.6-2-2.3L3.3,192.1C4.3,192.2,5.4,192.4,6.4,192.6z"/>
		</g>
		<g>
			<path style="fill:#FFFFFF;" d="M13.3,194.3l-99.9,173.1c-0.7-0.7-1.4-1.4-2.1-2.1l99.1-171.7C11.4,193.8,12.3,194,13.3,194.3z"/>
		</g>
		<g>
			<path style="fill:#FFFFFF;" d="M20,196.4L-81.4,372.1c-0.8-0.6-1.5-1.3-2.2-2L17.2,195.4C18.1,195.7,19.1,196.1,20,196.4z"/>
		</g>
		<g>
			<path style="fill:#FFFFFF;" d="M26.4,198.9L-76.1,376.4c-0.8-0.6-1.6-1.2-2.3-1.8L23.7,197.8C24.6,198.1,25.5,198.5,26.4,198.9z"
				/>
		</g>
		<g>
			<path style="fill:#FFFFFF;" d="M32.7,201.8L-70.4,380.4c-0.8-0.5-1.6-1.1-2.4-1.6L30,200.5C30.9,200.9,31.8,201.4,32.7,201.8z"/>
		</g>
		<g>
			<path style="fill:#FFFFFF;" d="M38.7,205.1L-64.6,383.9c-0.9-0.5-1.7-1-2.5-1.5L36.1,203.7C37,204.1,37.8,204.6,38.7,205.1z"/>
		</g>
		<g>
			<path style="fill:#FFFFFF;" d="M44.4,208.8L-58.5,387c-0.9-0.4-1.8-0.8-2.6-1.3L42,207.2C42.8,207.7,43.6,208.3,44.4,208.8z"/>
		</g>
		<g>
			<path style="fill:#FFFFFF;" d="M50,212.9L-52.2,389.8c-0.9-0.4-1.8-0.7-2.7-1.1L47.6,211.1C48.4,211.7,49.2,212.3,50,212.9z"/>
		</g>
		<g>
			<path style="fill:#FFFFFF;" d="M55.2,217.5L-45.6,392.1c-0.9-0.3-1.9-0.6-2.8-1L53,215.5C53.8,216.1,54.5,216.8,55.2,217.5z"/>
		</g>
		<g>
			<path style="fill:#FFFFFF;" d="M60.3,222.4L-38.8,394c-1-0.2-2-0.5-2.9-0.8l99.9-173C58.9,220.9,59.6,221.7,60.3,222.4z"/>
		</g>
		<g>
			<path style="fill:#FFFFFF;" d="M65.1,227.7l-96.8,167.8c-1-0.2-2-0.4-3-0.6l97.9-169.5C63.8,226.2,64.4,227,65.1,227.7z"/>
		</g>
		<g>
			<path style="fill:#FFFFFF;" d="M69.6,233.6l-94,162.9c-1.1-0.1-2.1-0.2-3.2-0.4L67.7,231C68.4,231.9,69,232.7,69.6,233.6z"/>
		</g>
		<g>
			<path style="fill:#FFFFFF;" d="M73.9,240l-90.7,157c-1.1,0-2.2-0.1-3.3-0.1l92.2-159.6C72.7,238.1,73.3,239,73.9,240z"/>
		</g>
		<g>
			<path style="fill:#FFFFFF;" d="M77.7,246.9l-86.6,150c-1.1,0.1-2.3,0.1-3.4,0.1l88.4-153.1C76.7,244.9,77.2,245.9,77.7,246.9z"/>
		</g>
		<g>
			<path style="fill:#FFFFFF;" d="M81.3,254.5L-0.5,396.1c-1.2,0.2-2.4,0.3-3.6,0.4l83.9-145.3C80.3,252.3,80.8,253.4,81.3,254.5z"
				/>
		</g>
		<g>
			<path style="fill:#FFFFFF;" d="M84.3,262.9l-76,131.6c-1.3,0.3-2.5,0.6-3.8,0.8l78.6-136.1C83.5,260.4,83.9,261.7,84.3,262.9z"/>
		</g>
		<g>
			<path style="fill:#FFFFFF;" d="M86.8,272.3L17.7,392c-1.3,0.4-2.7,0.9-4.1,1.2l72.2-125C86.2,269.6,86.5,270.9,86.8,272.3z"/>
		</g>
		<g>
			<path style="fill:#FFFFFF;" d="M88.4,283.1l-60.6,105c-1.5,0.7-2.9,1.3-4.4,1.9l64.4-111.6C88.1,279.9,88.3,281.5,88.4,283.1z"/>
		</g>
		<g>
			<path style="fill:#FFFFFF;" d="M89,293.8c0,0.7,0,1.4,0,2.1l-49.8,86.3c-1.6,1-3.3,1.9-5,2.8l54.8-94.8
				C89,291.3,89,292.6,89,293.8z"/>
		</g>
		<g>
			<path style="fill:#FFFFFF;" d="M88.4,304.7c-0.3,2.6-0.6,5.2-1.1,7.8l-34.6,59.9c-2,1.7-4.1,3.3-6.2,4.9L88.4,304.7z"/>
		</g>
		<g>
			<path style="fill:#FFFFFF;" d="M83.7,326.6c-4.4,13.2-11.4,25.2-20.4,35.4L83.7,326.6z"/>
		</g>
	</g>
	<g style="clip-path:url(#SVGID_2_);">
		<path style="fill:#FFFFFF;" d="M1029.1,554.3L968,493.1l61.1-61.1l61.1,61.1L1029.1,554.3z M970.8,493.1l58.3,58.3l58.3-58.3
			l-58.3-58.3L970.8,493.1z"/>
	</g>
	<g style="opacity:0.41;clip-path:url(#SVGID_2_);">
		<path style="fill:#FFFFFF;" d="M313.6,238.8l-63.1-63.1l63.1-63.1l63.1,63.1L313.6,238.8z M253.3,175.6l60.3,60.3l60.3-60.3
			l-60.3-60.3L253.3,175.6z"/>
	</g>
	<g style="opacity:0.51;clip-path:url(#SVGID_2_);">
		<path style="fill:#FFFFFF;" d="M262.6,512.8l-28.1-28.1l28.1-28.1l28.1,28.1L262.6,512.8z M237.3,484.6l25.3,25.3l25.3-25.3
			l-25.3-25.3L237.3,484.6z"/>
	</g>
	<g style="clip-path:url(#SVGID_2_);">
		<path style="fill:#FFFFFF;" d="M963.6,121.8l-28.1-28.1l28.1-28.1l28.1,28.1L963.6,121.8z M938.3,93.6l25.3,25.3l25.3-25.3
			l-25.3-25.3L938.3,93.6z"/>
	</g>
	<g style="clip-path:url(#SVGID_2_);">
		<path style="fill:#FFFFFF;" d="M1080.4,342l-19.6-19.6l19.6-19.6l19.6,19.6L1080.4,342z M1063.6,322.4l16.8,16.8l16.8-16.8
			l-16.8-16.8L1063.6,322.4z"/>
	</g>
	<g style="opacity:0.51;clip-path:url(#SVGID_2_);">
		<path style="fill:#FFFFFF;" d="M420.4,371l-19.6-19.6l19.6-19.6l19.6,19.6L420.4,371z M403.6,351.4l16.8,16.8l16.8-16.8
			l-16.8-16.8L403.6,351.4z"/>
	</g>
	<path style="opacity:0.21;clip-path:url(#SVGID_2_);fill:#FFFFFF;" d="M642.8,179.1L642.8,179.1c13-3.2,25.5-7.7,37.2-13.6
		c59.6-29.5,100.5-90.9,100.5-161.8c0-1.2,0-2.5,0-3.7h-82.8c0,1.2,0.1,2.5,0.1,3.7c0,54-43.8,97.8-97.8,97.8
		c-54,0-97.8-43.8-97.8-97.8c0-1.2,0-2.5,0.1-3.7h-82.8c0,1.2,0,2.5,0,3.7c0,85.7,59.7,157.4,139.8,175.9
		c12.7,2.9,25.9,4.5,39.4,4.6c0.4,0,0.9,0,1.3,0C614.7,184.2,629.1,182.5,642.8,179.1z"/>
	<path id="XMLID_412_" style="opacity:0.21;clip-path:url(#SVGID_2_);fill:#FFFFFF;" d="M659.8,0H540.2c0,33,26.8,59.8,59.8,59.8
		C633,59.8,659.8,33,659.8,0z"/>
	<g id="XMLID_399_" style="clip-path:url(#SVGID_2_);">
		<path id="XMLID_400_" style="fill:#FFFFFF;" d="M600,201.2c1.1,0,2,0.9,2,2l0,0c0,1.1-0.9,2-2,2l0,0c-1.1,0-2-0.9-2-2l0,0
			C598,202.1,598.9,201.2,600,201.2z M600,181.1c1.1,0,2,0.9,2,2l0,0c0,1.1-0.9,2-2,2l0,0c-1.1,0-2-0.9-2-2l0,0
			C598,181.9,598.9,181.1,600,181.1z M600,161c1.1,0,2,0.9,2,2l0,0c0,1.1-0.9,2-2,2l0,0c-1.1,0-2-0.9-2-2l0,0
			C598,161.8,598.9,161,600,161z M600,140.8c1.1,0,2,0.9,2,2l0,0c0,1.1-0.9,2-2,2l0,0c-1.1,0-2-0.9-2-2l0,0
			C598,141.7,598.9,140.8,600,140.8z M600,120.7c1.1,0,2,0.9,2,2l0,0c0,1.1-0.9,1.9-2,1.9l0,0c-1.1,0-2-0.9-2-1.9l0,0
			C598,121.6,598.9,120.7,600,120.7z M600,100.6c1.1,0,2,0.9,2,2l0,0c0,1.1-0.9,2-2,2l0,0c-1.1,0-2-0.9-2-2l0,0
			C598,101.5,598.9,100.6,600,100.6z M600,80.5c1.1,0,2,0.9,2,2l0,0c0,1.1-0.9,2-2,2l0,0c-1.1,0-2-0.9-2-2l0,0
			C598,81.3,598.9,80.5,600,80.5z M600,60.4c1.1,0,2,0.9,2,2l0,0c0,1.1-0.9,2-2,2l0,0c-1.1,0-2-0.9-2-2l0,0
			C598,61.2,598.9,60.4,600,60.4z M600,40.2c1.1,0,2,0.9,2,2l0,0c0,1.1-0.9,2-2,2l0,0c-1.1,0-2-0.9-2-2l0,0
			C598,41.1,598.9,40.2,600,40.2z M600,20.1c1.1,0,2,0.9,2,2l0,0c0,1.1-0.9,2-2,2l0,0c-1.1,0-2-0.9-2-2l0,0
			C598,21,598.9,20.1,600,20.1z M600,0c1.1,0,2,0.9,2,2l0,0c0,1.1-0.9,2-2,2l0,0c-1.1,0-2-0.9-2-2l0,0C598,0.9,598.9,0,600,0z"/>
	</g>
	<path style="opacity:0.21;clip-path:url(#SVGID_2_);fill:#FFFFFF;" d="M764.5,441C644.9,441,548,537.9,548,657.5
		C548,777.1,644.9,874,764.5,874S981,777.1,981,657.5C981,537.9,884.1,441,764.5,441z M764.5,823.1c-91.5,0-165.6-74.2-165.6-165.6
		S673,491.9,764.5,491.9S930.1,566,930.1,657.5S856,823.1,764.5,823.1z"/>
	<path style="opacity:0.21;clip-path:url(#SVGID_2_);fill:#FFFFFF;" d="M764.5,515.1c-78.6,0-142.4,63.8-142.4,142.4
		s63.8,142.4,142.4,142.4s142.4-63.8,142.4-142.4S843.1,515.1,764.5,515.1z M764.5,766.4c-60.2,0-108.9-48.8-108.9-108.9
		s48.8-108.9,108.9-108.9c60.2,0,108.9,48.8,108.9,108.9S824.7,766.4,764.5,766.4z"/>
	<path style="opacity:0.21;clip-path:url(#SVGID_2_);fill:#FFFFFF;" d="M1162.5,195c-73.7,0-133.5,59.8-133.5,133.5
		S1088.8,462,1162.5,462S1296,402.2,1296,328.5S1236.2,195,1162.5,195z M1162.5,430.6c-56.4,0-102.1-45.7-102.1-102.1
		s45.7-102.1,102.1-102.1s102.1,45.7,102.1,102.1S1218.9,430.6,1162.5,430.6z"/>
	<path style="opacity:0.21;clip-path:url(#SVGID_2_);fill:#FFFFFF;" d="M1162.5,240.7c-48.5,0-87.8,39.3-87.8,87.8
		c0,48.5,39.3,87.8,87.8,87.8s87.8-39.3,87.8-87.8C1250.3,280,1211,240.7,1162.5,240.7z M1162.5,395.7c-37.1,0-67.2-30.1-67.2-67.2
		s30.1-67.2,67.2-67.2s67.2,30.1,67.2,67.2S1199.6,395.7,1162.5,395.7z"/>
</g>
</svg>
