<?xml version="1.0" encoding="utf-8"?>
<!-- Generator: Adobe Illustrator 23.1.1, SVG Export Plug-In . SVG Version: 6.00 Build 0)  -->
<svg version="1.1" id="Ebene_1" xmlns="http://www.w3.org/2000/svg" xmlns:xlink="http://www.w3.org/1999/xlink" x="0px" y="0px"
	 viewBox="0 0 1920 1080" style="enable-background:new 0 0 1920 1080;" xml:space="preserve">
<path style="fill:#F7F7F7;" d="M1866.2,371.2c-157.9,0-286,128-286,286s128.1,286,286,286s286-128.1,286-286
	S2024.1,371.2,1866.2,371.2z M1866.2,822.8c-91.4,0-165.5-74.1-165.5-165.5s74.1-165.5,165.5-165.5s165.5,74.1,165.5,165.5
	S1957.6,822.8,1866.2,822.8z"/>
<path style="fill:#F7F7F7;" d="M-205.3,460c-157.9,0-286,128-286,286s128.1,286,286,286s286-128.1,286-286S-47.4,460-205.3,460z
	 M-205.3,911.5c-91.4,0-165.5-74.1-165.5-165.5s74.1-165.5,165.5-165.5S-39.8,654.6-39.8,746S-113.9,911.5-205.3,911.5z"/>
<path style="fill:#F7F7F7;" d="M827-199C669.1-199,541-71,541,87s128.1,286,286,286s286-128.1,286-286S984.9-199,827-199z
	 M827,252.5c-91.4,0-165.5-74.1-165.5-165.5S735.6-78.5,827-78.5S992.5-4.4,992.5,87S918.4,252.5,827,252.5z"/>
<circle style="fill:none;stroke:#F7F7F7;stroke-width:4;stroke-miterlimit:10;" cx="1453.5" cy="680.5" r="91.5"/>
<circle style="fill:none;stroke:#F7F7F7;stroke-width:5;stroke-miterlimit:10;" cx="566" cy="720.8" r="91.5"/>
<circle style="fill:none;stroke:#F7F7F7;stroke-width:4;stroke-miterlimit:10;" cx="1884.5" cy="49.5" r="91.5"/>
<g>
	<line style="fill:none;stroke:#F7F7F7;stroke-width:5;stroke-miterlimit:10;" x1="1050" y1="551" x2="966.5" y2="634.5"/>
	<line style="fill:none;stroke:#F7F7F7;stroke-width:5;stroke-miterlimit:10;" x1="1025" y1="551" x2="941.5" y2="634.5"/>
	<line style="fill:none;stroke:#F7F7F7;stroke-width:5;stroke-miterlimit:10;" x1="974" y1="551" x2="890.5" y2="634.5"/>
	<line style="fill:none;stroke:#F7F7F7;stroke-width:5;stroke-miterlimit:10;" x1="999" y1="551" x2="915.5" y2="634.5"/>
	<line style="fill:none;stroke:#F7F7F7;stroke-width:5;stroke-miterlimit:10;" x1="944.8" y1="551.2" x2="861.2" y2="634.8"/>
	<line style="fill:none;stroke:#F7F7F7;stroke-width:5;stroke-miterlimit:10;" x1="919.8" y1="551.2" x2="836.2" y2="634.8"/>
	<line style="fill:none;stroke:#F7F7F7;stroke-width:5;stroke-miterlimit:10;" x1="868.8" y1="551.2" x2="785.2" y2="634.8"/>
	<line style="fill:none;stroke:#F7F7F7;stroke-width:5;stroke-miterlimit:10;" x1="893.8" y1="551.2" x2="810.2" y2="634.8"/>
</g>
<g>
	<line style="fill:none;stroke:#F7F7F7;stroke-width:4;stroke-miterlimit:10;" x1="193.5" y1="855.2" x2="110" y2="771.8"/>
	<line style="fill:none;stroke:#F7F7F7;stroke-width:4;stroke-miterlimit:10;" x1="193.5" y1="830.2" x2="110" y2="746.8"/>
	<line style="fill:none;stroke:#F7F7F7;stroke-width:4;stroke-miterlimit:10;" x1="193.5" y1="779.2" x2="110" y2="695.8"/>
	<line style="fill:none;stroke:#F7F7F7;stroke-width:4;stroke-miterlimit:10;" x1="193.5" y1="804.2" x2="110" y2="720.8"/>
	<line style="fill:none;stroke:#F7F7F7;stroke-width:4;stroke-miterlimit:10;" x1="193.2" y1="750" x2="109.8" y2="666.5"/>
	<line style="fill:none;stroke:#F7F7F7;stroke-width:4;stroke-miterlimit:10;" x1="193.2" y1="725" x2="109.8" y2="641.5"/>
	<line style="fill:none;stroke:#F7F7F7;stroke-width:4;stroke-miterlimit:10;" x1="193.2" y1="674" x2="109.8" y2="590.5"/>
	<line style="fill:none;stroke:#F7F7F7;stroke-width:4;stroke-miterlimit:10;" x1="193.2" y1="699" x2="109.8" y2="615.5"/>
</g>
<rect x="1458.8" y="290.3" transform="matrix(0.7071 -0.7071 0.7071 0.7071 206.2816 1223.6392)" style="fill:none;stroke:#F7F7F7;stroke-width:4;stroke-miterlimit:9.9999;" width="242.8" height="145"/>
<rect x="1256.1" y="21" transform="matrix(0.7071 -0.7071 0.7071 0.7071 337.3538 1001.4129)" style="fill:none;stroke:#F7F7F7;stroke-width:4;stroke-miterlimit:9.9999;" width="242.8" height="145"/>
<rect x="318.7" y="367.6" transform="matrix(0.7071 -0.7071 0.7071 0.7071 -182.2982 440.1067)" style="fill:none;stroke:#F7F7F7;stroke-width:4;stroke-miterlimit:9.9999;" width="242.8" height="145"/>
<g>
	<circle style="fill:#F7F7F7;" cx="173" cy="198" r="10"/>
	<circle style="fill:#F7F7F7;" cx="208" cy="198" r="10"/>
	<circle style="fill:#F7F7F7;" cx="243" cy="198" r="10"/>
	<circle style="fill:#F7F7F7;" cx="278" cy="198" r="10"/>
	<circle style="fill:#F7F7F7;" cx="313" cy="198" r="10"/>
	<circle style="fill:#F7F7F7;" cx="348" cy="198" r="10"/>
	<circle style="fill:#F7F7F7;" cx="383" cy="198" r="10"/>
	<circle style="fill:#F7F7F7;" cx="418" cy="198" r="10"/>
</g>
<g>
	<circle style="fill:#F7F7F7;" cx="313" cy="93" r="10"/>
	<circle style="fill:#F7F7F7;" cx="313" cy="128" r="10"/>
	<circle style="fill:#F7F7F7;" cx="313" cy="163" r="10"/>
	<circle style="fill:#F7F7F7;" cx="313" cy="198" r="10"/>
	<circle style="fill:#F7F7F7;" cx="313" cy="233" r="10"/>
	<circle style="fill:#F7F7F7;" cx="313" cy="268" r="10"/>
	<circle style="fill:#F7F7F7;" cx="313" cy="303" r="10"/>
</g>
<g>
	<circle style="fill:#F7F7F7;" cx="1162.4" cy="666" r="10"/>
	<circle style="fill:#F7F7F7;" cx="1162.4" cy="701" r="10"/>
	<circle style="fill:#F7F7F7;" cx="1162.4" cy="736" r="10"/>
	<circle style="fill:#F7F7F7;" cx="1162.4" cy="771" r="10"/>
	<circle style="fill:#F7F7F7;" cx="1162.4" cy="806" r="10"/>
	<circle style="fill:#F7F7F7;" cx="1162.4" cy="841" r="10"/>
	<circle style="fill:#F7F7F7;" cx="1162.4" cy="876" r="10"/>
	<circle style="fill:#F7F7F7;" cx="1162.4" cy="911" r="10"/>
</g>
<path style="fill:#F7F7F7;" d="M827,9c-43.1,0-78,34.9-78,78s34.9,78,78,78s78-34.9,78-78S870.1,9,827,9z M827,132.1
	c-24.9,0-45.1-20.2-45.1-45.1s20.2-45.1,45.1-45.1s45.1,20.2,45.1,45.1S851.9,132.1,827,132.1z"/>
</svg>
