<?xml version="1.0" encoding="utf-8"?>
<!-- Generator: Adobe Illustrator 23.1.1, SVG Export Plug-In . SVG Version: 6.00 Build 0)  -->
<svg version="1.1" id="Ebene_1" xmlns="http://www.w3.org/2000/svg" xmlns:xlink="http://www.w3.org/1999/xlink" x="0px" y="0px"
	 viewBox="0 0 78 89.8" style="enable-background:new 0 0 78 89.8;" xml:space="preserve">
<g>
	<g>
		<path style="fill:#38ADA9;" d="M72.8,27.4c0-1.1-0.8-2.4-1.7-3L40.7,6.8c-1-0.5-2.5-0.5-3.5,0L6.9,24.4c-1,0.6-1.7,1.9-1.7,3
			l0,35.1c0,1.1,0.8,2.4,1.7,3L37.3,83c1,0.5,2.5,0.5,3.5,0l30.4-17.6c1-0.6,1.7-1.9,1.7-3L72.8,27.4z M40.8,69.9
			c-1,0.5-2.5,0.5-3.5,0L18.1,58.9c-1-0.5-1.7-1.9-1.7-3v-22c0-1.1,0.8-2.5,1.7-3l19.2-11.1c1-0.6,2.5-0.6,3.5,0l19.1,11.1
			c1,0.6,1.7,1.9,1.7,3l0.1,22.1c0,1.1-0.8,2.4-1.7,3L40.8,69.9z"/>
	</g>
	<g>
		<path style="fill:#38ADA9;" d="M54.3,34.1c1,0.6,1,1.5,0,2l-13.5,7.8c-1,0.5-2.5,0.5-3.5,0l-13.5-7.8c-1-0.5-1-1.4,0-2l13.5-7.8
			c1-0.6,2.5-0.6,3.5,0L54.3,34.1z"/>
	</g>
</g>
</svg>
