<?xml version="1.0" encoding="utf-8"?>
<!-- Generator: Adobe Illustrator 23.1.1, SVG Export Plug-In . SVG Version: 6.00 Build 0)  -->
<svg version="1.1" id="Ebene_1" xmlns="http://www.w3.org/2000/svg" xmlns:xlink="http://www.w3.org/1999/xlink" x="0px" y="0px"
	 viewBox="0 0 1920 1080" style="enable-background:new 0 0 1920 1080;" xml:space="preserve">
<defs>
	<filter id="Adobe_OpacityMaskFilter" filterUnits="userSpaceOnUse" x="-978.4" y="51.6" width="3895.4" height="2329.8">
		<feColorMatrix  type="matrix" values="1 0 0 0 0  0 1 0 0 0  0 0 1 0 0  0 0 0 1 0"/>
	</filter>
</defs>
<mask maskUnits="userSpaceOnUse" x="-978.4" y="51.6" width="3895.4" height="2329.8" id="SVGID_1_">
	<g style="filter:url(#Adobe_OpacityMaskFilter);">
		<path style="fill:#38ADA9;" d="M1908,1131H12c-6.6,0-12-5.4-12-12V63c0-6.6,5.4-12,12-12h1896c6.6,0,12,5.4,12,12v1056
			C1920,1125.6,1914.6,1131,1908,1131z"/>
	</g>
</mask>
<g style="mask:url(#SVGID_1_);">
	<path style="fill:#38ADA9;" d="M-0.5,362.5c210.8-119.7,364.7-124.3,471-101c83.1,18.2,104.8,46.4,204,73
		c115.4,30.9,200.7,23.5,451-9c430.4-55.9,548.2-82,684-8c31.4,17.1,77.9,43,119,95c93.1,117.7,69.2,256.5,48,544
		c-30.3,410.4-1.9,401.1-32,445c-129.8,189.2-461.3,75.9-1239,41c-701.6-31.5-894.7,40-1000-108C-490.4,1059.2-71.4,461.7-0.5,362.5
		z"/>
	<path style="opacity:0.42;fill:#38ADA9;" d="M-417.4,361c107.8-66.8,284.8-107.7,333.8-119c161.3-37.3,333.1-77,524.8-28
		c185.7,47.4,230.1,137.2,388.5,127c89.2-5.7,90.5-35.2,221.1-76c207.8-65,295.6-19,646.1-57c183.4-19.9,165.6-33.2,236.1-34
		c337.3-4,744.7,299.4,810.3,616c99.4,479.8-599.6,925.3-973.5,1094C1015.5,2224.4-177,2232.8-568.8,1621
		C-824.4,1221.7-738.3,559.7-417.4,361z"/>
	<path style="opacity:0.28;fill:#38ADA9;" d="M-749,1998c-378.1-458.9-269.4-1458.9,184-1749c155.2-99.3,405.4-150.4,619-144
		c273.4,8.1,335.9,105.9,627,121c244,12.7,306.7-50.5,645-107c339.7-56.8,637.6-106.5,884-23c408.2,138.4,769.1,674.3,698,1066
		C2737.8,2099.1-26.7,2874.6-749,1998z"/>
</g>
</svg>
